<mxfile host="app.diagrams.net" modified="2024-05-16T08:56:00.398Z" agent="Mozilla/5.0 (Windows NT 10.0; Win64; x64) AppleWebKit/537.36 (KHTML, like Gecko) Chrome/124.0.0.0 Safari/537.36" etag="QTRSeZjxi3QdLKjpuIXv" version="24.4.2" type="device">
  <diagram name="Page-1" id="52a04d89-c75d-2922-d76d-85b35f80e030">
    <mxGraphModel dx="2618" dy="2355" grid="1" gridSize="10" guides="1" tooltips="1" connect="1" arrows="1" fold="1" page="1" pageScale="1" pageWidth="1100" pageHeight="850" background="none" math="0" shadow="0">
      <root>
        <mxCell id="0" />
        <mxCell id="1" parent="0" />
        <mxCell id="21ea969265ad0168-30" value="Database" style="html=1;rounded=0;shadow=0;comic=0;labelBackgroundColor=none;strokeWidth=2;fontFamily=Verdana;fontSize=12;align=center;shape=mxgraph.ios7ui.horLines;" parent="1" vertex="1">
          <mxGeometry x="910" y="107" width="135" height="50" as="geometry" />
        </mxCell>
        <mxCell id="17472293e6e8944d-4" value="Database" style="html=1;rounded=0;shadow=0;comic=0;labelBackgroundColor=none;strokeWidth=2;fontFamily=Verdana;fontSize=12;align=center;shape=mxgraph.ios7ui.horLines;" parent="1" vertex="1">
          <mxGeometry x="910" y="205" width="135" height="50" as="geometry" />
        </mxCell>
        <mxCell id="17472293e6e8944d-29" value="Output" style="whiteSpace=wrap;html=1;rounded=0;shadow=0;comic=0;labelBackgroundColor=none;strokeWidth=1;fontFamily=Verdana;fontSize=12;align=center;" parent="1" vertex="1">
          <mxGeometry x="720" y="57" width="120" height="50" as="geometry" />
        </mxCell>
        <mxCell id="1fdf3b25b50cf41e-27" style="edgeStyle=none;html=1;labelBackgroundColor=none;startFill=0;startSize=8;endFill=1;endSize=8;fontFamily=Verdana;fontSize=12;" parent="1" source="17472293e6e8944d-30" target="1fdf3b25b50cf41e-1" edge="1">
          <mxGeometry relative="1" as="geometry" />
        </mxCell>
        <mxCell id="17472293e6e8944d-30" value="Input" style="whiteSpace=wrap;html=1;rounded=0;shadow=0;comic=0;labelBackgroundColor=none;strokeWidth=1;fontFamily=Verdana;fontSize=12;align=center;" parent="1" vertex="1">
          <mxGeometry x="60" y="55" width="120" height="50" as="geometry" />
        </mxCell>
        <mxCell id="1fdf3b25b50cf41e-28" style="edgeStyle=none;html=1;labelBackgroundColor=none;startFill=0;startSize=8;endFill=1;endSize=8;fontFamily=Verdana;fontSize=12;" parent="1" source="1fdf3b25b50cf41e-1" target="17472293e6e8944d-29" edge="1">
          <mxGeometry relative="1" as="geometry" />
        </mxCell>
        <mxCell id="1fdf3b25b50cf41e-29" style="edgeStyle=none;html=1;labelBackgroundColor=none;startFill=0;startSize=8;endFill=1;endSize=8;fontFamily=Verdana;fontSize=12;" parent="1" source="1fdf3b25b50cf41e-1" target="1fdf3b25b50cf41e-7" edge="1">
          <mxGeometry relative="1" as="geometry" />
        </mxCell>
        <mxCell id="1fdf3b25b50cf41e-38" style="edgeStyle=orthogonalEdgeStyle;html=1;labelBackgroundColor=none;startFill=0;startSize=8;endFill=1;endSize=8;fontFamily=Verdana;fontSize=12;" parent="1" source="1fdf3b25b50cf41e-1" target="21ea969265ad0168-30" edge="1">
          <mxGeometry relative="1" as="geometry">
            <Array as="points">
              <mxPoint x="540" y="132" />
            </Array>
          </mxGeometry>
        </mxCell>
        <mxCell id="1fdf3b25b50cf41e-1" value="1.5" style="swimlane;html=1;fontStyle=0;childLayout=stackLayout;horizontal=1;startSize=26;fillColor=#e0e0e0;horizontalStack=0;resizeParent=1;resizeLast=0;collapsible=1;marginBottom=0;swimlaneFillColor=#ffffff;align=center;rounded=1;shadow=0;comic=0;labelBackgroundColor=none;strokeWidth=1;fontFamily=Verdana;fontSize=12" parent="1" vertex="1">
          <mxGeometry x="430" y="54" width="140" height="52" as="geometry" />
        </mxCell>
        <mxCell id="1fdf3b25b50cf41e-2" value="Row 1" style="text;html=1;strokeColor=none;fillColor=none;spacingLeft=4;spacingRight=4;whiteSpace=wrap;overflow=hidden;rotatable=0;points=[[0,0.5],[1,0.5]];portConstraint=eastwest;align=center;" parent="1fdf3b25b50cf41e-1" vertex="1">
          <mxGeometry y="26" width="140" height="26" as="geometry" />
        </mxCell>
        <mxCell id="1fdf3b25b50cf41e-47" style="edgeStyle=orthogonalEdgeStyle;html=1;labelBackgroundColor=none;startFill=0;startSize=8;endFill=1;endSize=8;fontFamily=Verdana;fontSize=12;" parent="1" source="1fdf3b25b50cf41e-6" target="1fdf3b25b50cf41e-21" edge="1">
          <mxGeometry relative="1" as="geometry">
            <Array as="points">
              <mxPoint x="978" y="466" />
            </Array>
          </mxGeometry>
        </mxCell>
        <mxCell id="1fdf3b25b50cf41e-6" value="Database" style="html=1;rounded=0;shadow=0;comic=0;labelBackgroundColor=none;strokeWidth=2;fontFamily=Verdana;fontSize=12;align=center;shape=mxgraph.ios7ui.horLines;" parent="1" vertex="1">
          <mxGeometry x="910" y="380" width="135" height="50" as="geometry" />
        </mxCell>
        <mxCell id="1fdf3b25b50cf41e-35" style="edgeStyle=none;html=1;labelBackgroundColor=none;startFill=0;startSize=8;endFill=1;endSize=8;fontFamily=Verdana;fontSize=12;" parent="1" source="1fdf3b25b50cf41e-7" target="1fdf3b25b50cf41e-34" edge="1">
          <mxGeometry relative="1" as="geometry">
            <mxPoint x="570.0001622472457" y="179.9302333127779" as="targetPoint" />
          </mxGeometry>
        </mxCell>
        <mxCell id="1fdf3b25b50cf41e-39" style="edgeStyle=none;html=1;labelBackgroundColor=none;startFill=0;startSize=8;endFill=1;endSize=8;fontFamily=Verdana;fontSize=12;" parent="1" source="1fdf3b25b50cf41e-7" target="1fdf3b25b50cf41e-26" edge="1">
          <mxGeometry relative="1" as="geometry" />
        </mxCell>
        <mxCell id="1fdf3b25b50cf41e-7" value="1.6" style="swimlane;html=1;fontStyle=0;childLayout=stackLayout;horizontal=1;startSize=26;fillColor=#e0e0e0;horizontalStack=0;resizeParent=1;resizeLast=0;collapsible=1;marginBottom=0;swimlaneFillColor=#ffffff;align=center;rounded=1;shadow=0;comic=0;labelBackgroundColor=none;strokeWidth=1;fontFamily=Verdana;fontSize=12" parent="1" vertex="1">
          <mxGeometry x="430" y="154" width="140" height="52" as="geometry" />
        </mxCell>
        <mxCell id="1fdf3b25b50cf41e-8" value="Row 1" style="text;html=1;strokeColor=none;fillColor=none;spacingLeft=4;spacingRight=4;whiteSpace=wrap;overflow=hidden;rotatable=0;points=[[0,0.5],[1,0.5]];portConstraint=eastwest;align=center;" parent="1fdf3b25b50cf41e-7" vertex="1">
          <mxGeometry y="26" width="140" height="26" as="geometry" />
        </mxCell>
        <mxCell id="1fdf3b25b50cf41e-40" style="edgeStyle=none;html=1;labelBackgroundColor=none;startFill=0;startSize=8;endFill=1;endSize=8;fontFamily=Verdana;fontSize=12;" parent="1" source="1fdf3b25b50cf41e-9" target="1fdf3b25b50cf41e-7" edge="1">
          <mxGeometry relative="1" as="geometry" />
        </mxCell>
        <mxCell id="1fdf3b25b50cf41e-9" value="1.2" style="swimlane;html=1;fontStyle=0;childLayout=stackLayout;horizontal=1;startSize=26;fillColor=#e0e0e0;horizontalStack=0;resizeParent=1;resizeLast=0;collapsible=1;marginBottom=0;swimlaneFillColor=#ffffff;align=center;rounded=1;shadow=0;comic=0;labelBackgroundColor=none;strokeWidth=1;fontFamily=Verdana;fontSize=12" parent="1" vertex="1">
          <mxGeometry x="250" y="153" width="140" height="52" as="geometry" />
        </mxCell>
        <mxCell id="1fdf3b25b50cf41e-10" value="Row 1" style="text;html=1;strokeColor=none;fillColor=none;spacingLeft=4;spacingRight=4;whiteSpace=wrap;overflow=hidden;rotatable=0;points=[[0,0.5],[1,0.5]];portConstraint=eastwest;align=center;" parent="1fdf3b25b50cf41e-9" vertex="1">
          <mxGeometry y="26" width="140" height="26" as="geometry" />
        </mxCell>
        <mxCell id="1fdf3b25b50cf41e-31" style="edgeStyle=orthogonalEdgeStyle;html=1;labelBackgroundColor=none;startFill=0;startSize=8;endFill=1;endSize=8;fontFamily=Verdana;fontSize=12;" parent="1" source="1fdf3b25b50cf41e-11" target="17472293e6e8944d-4" edge="1">
          <mxGeometry relative="1" as="geometry">
            <Array as="points">
              <mxPoint x="810" y="230" />
            </Array>
          </mxGeometry>
        </mxCell>
        <mxCell id="1fdf3b25b50cf41e-11" value="1.9" style="swimlane;html=1;fontStyle=0;childLayout=stackLayout;horizontal=1;startSize=26;fillColor=#e0e0e0;horizontalStack=0;resizeParent=1;resizeLast=0;collapsible=1;marginBottom=0;swimlaneFillColor=#ffffff;align=center;rounded=1;shadow=0;comic=0;labelBackgroundColor=none;strokeWidth=1;fontFamily=Verdana;fontSize=12" parent="1" vertex="1">
          <mxGeometry x="740" y="153" width="140" height="52" as="geometry" />
        </mxCell>
        <mxCell id="1fdf3b25b50cf41e-12" value="Row 1" style="text;html=1;strokeColor=none;fillColor=none;spacingLeft=4;spacingRight=4;whiteSpace=wrap;overflow=hidden;rotatable=0;points=[[0,0.5],[1,0.5]];portConstraint=eastwest;align=center;" parent="1fdf3b25b50cf41e-11" vertex="1">
          <mxGeometry y="26" width="140" height="26" as="geometry" />
        </mxCell>
        <mxCell id="1fdf3b25b50cf41e-43" style="edgeStyle=none;html=1;labelBackgroundColor=none;startFill=0;startSize=8;endFill=1;endSize=8;fontFamily=Verdana;fontSize=12;" parent="1" source="1fdf3b25b50cf41e-13" target="1fdf3b25b50cf41e-19" edge="1">
          <mxGeometry relative="1" as="geometry" />
        </mxCell>
        <mxCell id="1fdf3b25b50cf41e-13" value="1.3" style="swimlane;html=1;fontStyle=0;childLayout=stackLayout;horizontal=1;startSize=26;fillColor=#e0e0e0;horizontalStack=0;resizeParent=1;resizeLast=0;collapsible=1;marginBottom=0;swimlaneFillColor=#ffffff;align=center;rounded=1;shadow=0;comic=0;labelBackgroundColor=none;strokeWidth=1;fontFamily=Verdana;fontSize=12" parent="1" vertex="1">
          <mxGeometry x="250" y="305" width="140" height="52" as="geometry" />
        </mxCell>
        <mxCell id="1fdf3b25b50cf41e-14" value="Row 1" style="text;html=1;strokeColor=none;fillColor=none;spacingLeft=4;spacingRight=4;whiteSpace=wrap;overflow=hidden;rotatable=0;points=[[0,0.5],[1,0.5]];portConstraint=eastwest;align=center;" parent="1fdf3b25b50cf41e-13" vertex="1">
          <mxGeometry y="26" width="140" height="26" as="geometry" />
        </mxCell>
        <mxCell id="1fdf3b25b50cf41e-46" style="edgeStyle=orthogonalEdgeStyle;html=1;labelBackgroundColor=none;startFill=0;startSize=8;endFill=1;endSize=8;fontFamily=Verdana;fontSize=12;" parent="1" source="1fdf3b25b50cf41e-15" target="1fdf3b25b50cf41e-6" edge="1">
          <mxGeometry relative="1" as="geometry">
            <Array as="points">
              <mxPoint x="650" y="400" />
            </Array>
          </mxGeometry>
        </mxCell>
        <mxCell id="1fdf3b25b50cf41e-15" value="1.8" style="swimlane;html=1;fontStyle=0;childLayout=stackLayout;horizontal=1;startSize=26;fillColor=#e0e0e0;horizontalStack=0;resizeParent=1;resizeLast=0;collapsible=1;marginBottom=0;swimlaneFillColor=#ffffff;align=center;rounded=1;shadow=0;comic=0;labelBackgroundColor=none;strokeWidth=1;fontFamily=Verdana;fontSize=12" parent="1" vertex="1">
          <mxGeometry x="580" y="304" width="140" height="52" as="geometry" />
        </mxCell>
        <mxCell id="1fdf3b25b50cf41e-16" value="Row 1" style="text;html=1;strokeColor=none;fillColor=none;spacingLeft=4;spacingRight=4;whiteSpace=wrap;overflow=hidden;rotatable=0;points=[[0,0.5],[1,0.5]];portConstraint=eastwest;align=center;" parent="1fdf3b25b50cf41e-15" vertex="1">
          <mxGeometry y="26" width="140" height="26" as="geometry" />
        </mxCell>
        <mxCell id="1fdf3b25b50cf41e-42" style="edgeStyle=none;html=1;labelBackgroundColor=none;startFill=0;startSize=8;endFill=1;endSize=8;fontFamily=Verdana;fontSize=12;" parent="1" source="1fdf3b25b50cf41e-17" target="1fdf3b25b50cf41e-25" edge="1">
          <mxGeometry relative="1" as="geometry" />
        </mxCell>
        <mxCell id="1fdf3b25b50cf41e-17" value="1.1" style="swimlane;html=1;fontStyle=0;childLayout=stackLayout;horizontal=1;startSize=26;fillColor=#e0e0e0;horizontalStack=0;resizeParent=1;resizeLast=0;collapsible=1;marginBottom=0;swimlaneFillColor=#ffffff;align=center;rounded=1;shadow=0;comic=0;labelBackgroundColor=none;strokeWidth=1;fontFamily=Verdana;fontSize=12" parent="1" vertex="1">
          <mxGeometry x="50" y="440" width="140" height="52" as="geometry" />
        </mxCell>
        <mxCell id="1fdf3b25b50cf41e-18" value="Row 1" style="text;html=1;strokeColor=none;fillColor=none;spacingLeft=4;spacingRight=4;whiteSpace=wrap;overflow=hidden;rotatable=0;points=[[0,0.5],[1,0.5]];portConstraint=eastwest;align=center;" parent="1fdf3b25b50cf41e-17" vertex="1">
          <mxGeometry y="26" width="140" height="26" as="geometry" />
        </mxCell>
        <mxCell id="1fdf3b25b50cf41e-44" style="edgeStyle=none;html=1;labelBackgroundColor=none;startFill=0;startSize=8;endFill=1;endSize=8;fontFamily=Verdana;fontSize=12;" parent="1" source="1fdf3b25b50cf41e-19" target="1fdf3b25b50cf41e-21" edge="1">
          <mxGeometry relative="1" as="geometry" />
        </mxCell>
        <mxCell id="1fdf3b25b50cf41e-48" style="edgeStyle=none;html=1;labelBackgroundColor=none;startFill=0;startSize=8;endFill=1;endSize=8;fontFamily=Verdana;fontSize=12;" parent="1" source="1fdf3b25b50cf41e-19" target="1fdf3b25b50cf41e-17" edge="1">
          <mxGeometry relative="1" as="geometry" />
        </mxCell>
        <mxCell id="1fdf3b25b50cf41e-19" value="1.4" style="swimlane;html=1;fontStyle=0;childLayout=stackLayout;horizontal=1;startSize=26;fillColor=#e0e0e0;horizontalStack=0;resizeParent=1;resizeLast=0;collapsible=1;marginBottom=0;swimlaneFillColor=#ffffff;align=center;rounded=1;shadow=0;comic=0;labelBackgroundColor=none;strokeWidth=1;fontFamily=Verdana;fontSize=12" parent="1" vertex="1">
          <mxGeometry x="250" y="440" width="140" height="52" as="geometry" />
        </mxCell>
        <mxCell id="1fdf3b25b50cf41e-20" value="Row 1" style="text;html=1;strokeColor=none;fillColor=none;spacingLeft=4;spacingRight=4;whiteSpace=wrap;overflow=hidden;rotatable=0;points=[[0,0.5],[1,0.5]];portConstraint=eastwest;align=center;" parent="1fdf3b25b50cf41e-19" vertex="1">
          <mxGeometry y="26" width="140" height="26" as="geometry" />
        </mxCell>
        <mxCell id="1fdf3b25b50cf41e-45" style="edgeStyle=none;html=1;labelBackgroundColor=none;startFill=0;startSize=8;endFill=1;endSize=8;fontFamily=Verdana;fontSize=12;" parent="1" source="1fdf3b25b50cf41e-21" target="1fdf3b25b50cf41e-26" edge="1">
          <mxGeometry relative="1" as="geometry" />
        </mxCell>
        <mxCell id="1fdf3b25b50cf41e-21" value="1.7" style="swimlane;html=1;fontStyle=0;childLayout=stackLayout;horizontal=1;startSize=26;fillColor=#e0e0e0;horizontalStack=0;resizeParent=1;resizeLast=0;collapsible=1;marginBottom=0;swimlaneFillColor=#ffffff;align=center;rounded=1;shadow=0;comic=0;labelBackgroundColor=none;strokeWidth=1;fontFamily=Verdana;fontSize=12" parent="1" vertex="1">
          <mxGeometry x="430" y="440" width="140" height="52" as="geometry" />
        </mxCell>
        <mxCell id="1fdf3b25b50cf41e-22" value="Row 1" style="text;html=1;strokeColor=none;fillColor=none;spacingLeft=4;spacingRight=4;whiteSpace=wrap;overflow=hidden;rotatable=0;points=[[0,0.5],[1,0.5]];portConstraint=eastwest;align=center;" parent="1fdf3b25b50cf41e-21" vertex="1">
          <mxGeometry y="26" width="140" height="26" as="geometry" />
        </mxCell>
        <mxCell id="1fdf3b25b50cf41e-41" style="edgeStyle=orthogonalEdgeStyle;html=1;labelBackgroundColor=none;startFill=0;startSize=8;endFill=1;endSize=8;fontFamily=Verdana;fontSize=12;" parent="1" source="1fdf3b25b50cf41e-25" target="1fdf3b25b50cf41e-9" edge="1">
          <mxGeometry relative="1" as="geometry">
            <Array as="points">
              <mxPoint x="120" y="179" />
            </Array>
          </mxGeometry>
        </mxCell>
        <mxCell id="1fdf3b25b50cf41e-25" value="Object" style="whiteSpace=wrap;html=1;rounded=0;shadow=0;comic=0;labelBackgroundColor=none;strokeWidth=1;fontFamily=Verdana;fontSize=12;align=center;" parent="1" vertex="1">
          <mxGeometry x="60" y="307" width="120" height="50" as="geometry" />
        </mxCell>
        <mxCell id="1fdf3b25b50cf41e-26" value="Object" style="whiteSpace=wrap;html=1;rounded=0;shadow=0;comic=0;labelBackgroundColor=none;strokeWidth=1;fontFamily=Verdana;fontSize=12;align=center;" parent="1" vertex="1">
          <mxGeometry x="440" y="307" width="120" height="50" as="geometry" />
        </mxCell>
        <mxCell id="1fdf3b25b50cf41e-36" style="edgeStyle=none;html=1;labelBackgroundColor=none;startFill=0;startSize=8;endFill=1;endSize=8;fontFamily=Verdana;fontSize=12;" parent="1" source="1fdf3b25b50cf41e-34" target="1fdf3b25b50cf41e-15" edge="1">
          <mxGeometry relative="1" as="geometry" />
        </mxCell>
        <mxCell id="1fdf3b25b50cf41e-37" style="edgeStyle=none;html=1;labelBackgroundColor=none;startFill=0;startSize=8;endFill=1;endSize=8;fontFamily=Verdana;fontSize=12;" parent="1" source="1fdf3b25b50cf41e-34" target="1fdf3b25b50cf41e-11" edge="1">
          <mxGeometry relative="1" as="geometry" />
        </mxCell>
        <mxCell id="1fdf3b25b50cf41e-34" value="" style="ellipse;whiteSpace=wrap;html=1;rounded=1;shadow=0;comic=0;labelBackgroundColor=none;strokeWidth=1;fontFamily=Verdana;fontSize=12;align=center;" parent="1" vertex="1">
          <mxGeometry x="635" y="165" width="30" height="30" as="geometry" />
        </mxCell>
        <UserObject label="" plantUmlData="{&#xa;  &quot;data&quot;: &quot;@startuml\n\n:Student Login;\n:Username, Password;\nif (Valid Credentials?) then (yes)\n  :Access Student Dashboard;\n  :View Events;\n  :Search Events;\n  :Register for Events;\nelse (no)\n  :Display Error Message;\nendif\n\n:College Login;\n:CollegeID, Password;\nif (Valid Credentials?) then (yes)\n  :Access College Dashboard;\n  :View Events;\n  :Search Events;\n  :Request Event Registration;\nelse (no)\n  :Display Error Message;\nendif\n\n:Admin Login;\n:Username, Password;\nif (Valid Credentials?) then (yes)\n  :Access Admin Dashboard;\n  :View Events;\n  :Search Events;\n  if (Event Registration Request?) then (yes)\n    :Approve or Decline Request;\n  else (no)\n    :Continue Viewing Events;\n  endif\nelse (no)\n  :Display Error Message;\nendif\n\n:Guest Access;\n:View Events;\n:Search Events;\n\n@enduml\n&quot;,&#xa;  &quot;format&quot;: &quot;svg&quot;&#xa;}" id="nF57_oaCUXwNxO_2Wn-n-1">
          <mxCell style="shape=image;noLabel=1;verticalAlign=top;aspect=fixed;imageAspect=0;image=data:image/svg+xml,PD94bWwgdmVyc2lvbj0iMS4wIiBlbmNvZGluZz0idXMtYXNjaWkiIHN0YW5kYWxvbmU9Im5vIj8+PHN2ZyB4bWxucz0iaHR0cDovL3d3dy53My5vcmcvMjAwMC9zdmciIHhtbG5zOnhsaW5rPSJodHRwOi8vd3d3LnczLm9yZy8xOTk5L3hsaW5rIiBjb250ZW50U3R5bGVUeXBlPSJ0ZXh0L2NzcyIgaGVpZ2h0PSIxMzY3cHgiIHByZXNlcnZlQXNwZWN0UmF0aW89Im5vbmUiIHN0eWxlPSJ3aWR0aDo2MDNweDtoZWlnaHQ6MTM2N3B4O2JhY2tncm91bmQ6I0ZGRkZGRjsiIHZlcnNpb249IjEuMSIgdmlld0JveD0iMCAwIDYwMyAxMzY3IiB3aWR0aD0iNjAzcHgiIHpvb21BbmRQYW49Im1hZ25pZnkiPjxkZWZzLz48Zz48cmVjdCBmaWxsPSIjRjFGMUYxIiBoZWlnaHQ9IjMyLjg0MzgiIHJ4PSIxMi41IiByeT0iMTIuNSIgc3R5bGU9InN0cm9rZTojMTgxODE4O3N0cm9rZS13aWR0aDowLjU7IiB3aWR0aD0iMTA2IiB4PSIzMDguNSIgeT0iMTEiLz48dGV4dCBmaWxsPSIjMDAwMDAwIiBmb250LWZhbWlseT0ic2Fucy1zZXJpZiIgZm9udC1zaXplPSIxMiIgbGVuZ3RoQWRqdXN0PSJzcGFjaW5nIiB0ZXh0TGVuZ3RoPSI4NiIgeD0iMzE4LjUiIHk9IjMyLjM0MzgiPlN0dWRlbnQgTG9naW48L3RleHQ+PHJlY3QgZmlsbD0iI0YxRjFGMSIgaGVpZ2h0PSIzMi44NDM4IiByeD0iMTIuNSIgcnk9IjEyLjUiIHN0eWxlPSJzdHJva2U6IzE4MTgxODtzdHJva2Utd2lkdGg6MC41OyIgd2lkdGg9IjE0MiIgeD0iMjkwLjUiIHk9IjYzLjg0MzgiLz48dGV4dCBmaWxsPSIjMDAwMDAwIiBmb250LWZhbWlseT0ic2Fucy1zZXJpZiIgZm9udC1zaXplPSIxMiIgbGVuZ3RoQWRqdXN0PSJzcGFjaW5nIiB0ZXh0TGVuZ3RoPSIxMjIiIHg9IjMwMC41IiB5PSI4NS4xODc1Ij5Vc2VybmFtZSwgUGFzc3dvcmQ8L3RleHQ+PHBvbHlnb24gZmlsbD0iI0YxRjFGMSIgcG9pbnRzPSIzMDcuNSwxMTYuNjg3NSw0MTUuNSwxMTYuNjg3NSw0MjcuNSwxMjguNjg3NSw0MTUuNSwxNDAuNjg3NSwzMDcuNSwxNDAuNjg3NSwyOTUuNSwxMjguNjg3NSwzMDcuNSwxMTYuNjg3NSIgc3R5bGU9InN0cm9rZTojMTgxODE4O3N0cm9rZS13aWR0aDowLjU7Ii8+PHRleHQgZmlsbD0iIzAwMDAwMCIgZm9udC1mYW1pbHk9InNhbnMtc2VyaWYiIGZvbnQtc2l6ZT0iMTEiIGxlbmd0aEFkanVzdD0ic3BhY2luZyIgdGV4dExlbmd0aD0iMTA4IiB4PSIzMDcuNSIgeT0iMTMzLjE5OTIiPlZhbGlkIENyZWRlbnRpYWxzPzwvdGV4dD48dGV4dCBmaWxsPSIjMDAwMDAwIiBmb250LWZhbWlseT0ic2Fucy1zZXJpZiIgZm9udC1zaXplPSIxMSIgbGVuZ3RoQWRqdXN0PSJzcGFjaW5nIiB0ZXh0TGVuZ3RoPSIxOCIgeD0iMjc3LjUiIHk9IjEyNy4zMTI1Ij55ZXM8L3RleHQ+PHRleHQgZmlsbD0iIzAwMDAwMCIgZm9udC1mYW1pbHk9InNhbnMtc2VyaWYiIGZvbnQtc2l6ZT0iMTEiIGxlbmd0aEFkanVzdD0ic3BhY2luZyIgdGV4dExlbmd0aD0iMTIiIHg9IjQyNy41IiB5PSIxMjcuMzEyNSI+bm88L3RleHQ+PHJlY3QgZmlsbD0iI0YxRjFGMSIgaGVpZ2h0PSIzMi44NDM4IiByeD0iMTIuNSIgcnk9IjEyLjUiIHN0eWxlPSJzdHJva2U6IzE4MTgxODtzdHJva2Utd2lkdGg6MC41OyIgd2lkdGg9IjE4MiIgeD0iMTc0LjUiIHk9IjE1MC42ODc1Ii8+PHRleHQgZmlsbD0iIzAwMDAwMCIgZm9udC1mYW1pbHk9InNhbnMtc2VyaWYiIGZvbnQtc2l6ZT0iMTIiIGxlbmd0aEFkanVzdD0ic3BhY2luZyIgdGV4dExlbmd0aD0iMTYyIiB4PSIxODQuNSIgeT0iMTcyLjAzMTMiPkFjY2VzcyBTdHVkZW50IERhc2hib2FyZDwvdGV4dD48cmVjdCBmaWxsPSIjRjFGMUYxIiBoZWlnaHQ9IjMyLjg0MzgiIHJ4PSIxMi41IiByeT0iMTIuNSIgc3R5bGU9InN0cm9rZTojMTgxODE4O3N0cm9rZS13aWR0aDowLjU7IiB3aWR0aD0iOTIiIHg9IjIxOS41IiB5PSIyMDMuNTMxMyIvPjx0ZXh0IGZpbGw9IiMwMDAwMDAiIGZvbnQtZmFtaWx5PSJzYW5zLXNlcmlmIiBmb250LXNpemU9IjEyIiBsZW5ndGhBZGp1c3Q9InNwYWNpbmciIHRleHRMZW5ndGg9IjcyIiB4PSIyMjkuNSIgeT0iMjI0Ljg3NSI+VmlldyBFdmVudHM8L3RleHQ+PHJlY3QgZmlsbD0iI0YxRjFGMSIgaGVpZ2h0PSIzMi44NDM4IiByeD0iMTIuNSIgcnk9IjEyLjUiIHN0eWxlPSJzdHJva2U6IzE4MTgxODtzdHJva2Utd2lkdGg6MC41OyIgd2lkdGg9IjEwNyIgeD0iMjEyIiB5PSIyNTYuMzc1Ii8+PHRleHQgZmlsbD0iIzAwMDAwMCIgZm9udC1mYW1pbHk9InNhbnMtc2VyaWYiIGZvbnQtc2l6ZT0iMTIiIGxlbmd0aEFkanVzdD0ic3BhY2luZyIgdGV4dExlbmd0aD0iODciIHg9IjIyMiIgeT0iMjc3LjcxODgiPlNlYXJjaCBFdmVudHM8L3RleHQ+PHJlY3QgZmlsbD0iI0YxRjFGMSIgaGVpZ2h0PSIzMi44NDM4IiByeD0iMTIuNSIgcnk9IjEyLjUiIHN0eWxlPSJzdHJva2U6IzE4MTgxODtzdHJva2Utd2lkdGg6MC41OyIgd2lkdGg9IjE0NiIgeD0iMTkyLjUiIHk9IjMwOS4yMTg4Ii8+PHRleHQgZmlsbD0iIzAwMDAwMCIgZm9udC1mYW1pbHk9InNhbnMtc2VyaWYiIGZvbnQtc2l6ZT0iMTIiIGxlbmd0aEFkanVzdD0ic3BhY2luZyIgdGV4dExlbmd0aD0iMTI2IiB4PSIyMDIuNSIgeT0iMzMwLjU2MjUiPlJlZ2lzdGVyIGZvciBFdmVudHM8L3RleHQ+PHJlY3QgZmlsbD0iI0YxRjFGMSIgaGVpZ2h0PSIzMi44NDM4IiByeD0iMTIuNSIgcnk9IjEyLjUiIHN0eWxlPSJzdHJva2U6IzE4MTgxODtzdHJva2Utd2lkdGg6MC41OyIgd2lkdGg9IjE2MiIgeD0iMzc2LjUiIHk9IjE1MC42ODc1Ii8+PHRleHQgZmlsbD0iIzAwMDAwMCIgZm9udC1mYW1pbHk9InNhbnMtc2VyaWYiIGZvbnQtc2l6ZT0iMTIiIGxlbmd0aEFkanVzdD0ic3BhY2luZyIgdGV4dExlbmd0aD0iMTQyIiB4PSIzODYuNSIgeT0iMTcyLjAzMTMiPkRpc3BsYXkgRXJyb3IgTWVzc2FnZTwvdGV4dD48cG9seWdvbiBmaWxsPSIjRjFGMUYxIiBwb2ludHM9IjM2MS41LDM0OC4wNjI1LDM3My41LDM2MC4wNjI1LDM2MS41LDM3Mi4wNjI1LDM0OS41LDM2MC4wNjI1LDM2MS41LDM0OC4wNjI1IiBzdHlsZT0ic3Ryb2tlOiMxODE4MTg7c3Ryb2tlLXdpZHRoOjAuNTsiLz48cmVjdCBmaWxsPSIjRjFGMUYxIiBoZWlnaHQ9IjMyLjg0MzgiIHJ4PSIxMi41IiByeT0iMTIuNSIgc3R5bGU9InN0cm9rZTojMTgxODE4O3N0cm9rZS13aWR0aDowLjU7IiB3aWR0aD0iMTA2IiB4PSIzMDguNSIgeT0iMzkyLjA2MjUiLz48dGV4dCBmaWxsPSIjMDAwMDAwIiBmb250LWZhbWlseT0ic2Fucy1zZXJpZiIgZm9udC1zaXplPSIxMiIgbGVuZ3RoQWRqdXN0PSJzcGFjaW5nIiB0ZXh0TGVuZ3RoPSI4NiIgeD0iMzE4LjUiIHk9IjQxMy40MDYzIj5Db2xsZWdlIExvZ2luPC90ZXh0PjxyZWN0IGZpbGw9IiNGMUYxRjEiIGhlaWdodD0iMzIuODQzOCIgcng9IjEyLjUiIHJ5PSIxMi41IiBzdHlsZT0ic3Ryb2tlOiMxODE4MTg7c3Ryb2tlLXdpZHRoOjAuNTsiIHdpZHRoPSIxNDciIHg9IjI4OCIgeT0iNDQ0LjkwNjMiLz48dGV4dCBmaWxsPSIjMDAwMDAwIiBmb250LWZhbWlseT0ic2Fucy1zZXJpZiIgZm9udC1zaXplPSIxMiIgbGVuZ3RoQWRqdXN0PSJzcGFjaW5nIiB0ZXh0TGVuZ3RoPSIxMjciIHg9IjI5OCIgeT0iNDY2LjI1Ij5Db2xsZWdlSUQsIFBhc3N3b3JkPC90ZXh0Pjxwb2x5Z29uIGZpbGw9IiNGMUYxRjEiIHBvaW50cz0iMzA3LjUsNDk3Ljc1LDQxNS41LDQ5Ny43NSw0MjcuNSw1MDkuNzUsNDE1LjUsNTIxLjc1LDMwNy41LDUyMS43NSwyOTUuNSw1MDkuNzUsMzA3LjUsNDk3Ljc1IiBzdHlsZT0ic3Ryb2tlOiMxODE4MTg7c3Ryb2tlLXdpZHRoOjAuNTsiLz48dGV4dCBmaWxsPSIjMDAwMDAwIiBmb250LWZhbWlseT0ic2Fucy1zZXJpZiIgZm9udC1zaXplPSIxMSIgbGVuZ3RoQWRqdXN0PSJzcGFjaW5nIiB0ZXh0TGVuZ3RoPSIxMDgiIHg9IjMwNy41IiB5PSI1MTQuMjYxNyI+VmFsaWQgQ3JlZGVudGlhbHM/PC90ZXh0Pjx0ZXh0IGZpbGw9IiMwMDAwMDAiIGZvbnQtZmFtaWx5PSJzYW5zLXNlcmlmIiBmb250LXNpemU9IjExIiBsZW5ndGhBZGp1c3Q9InNwYWNpbmciIHRleHRMZW5ndGg9IjE4IiB4PSIyNzcuNSIgeT0iNTA4LjM3NSI+eWVzPC90ZXh0Pjx0ZXh0IGZpbGw9IiMwMDAwMDAiIGZvbnQtZmFtaWx5PSJzYW5zLXNlcmlmIiBmb250LXNpemU9IjExIiBsZW5ndGhBZGp1c3Q9InNwYWNpbmciIHRleHRMZW5ndGg9IjEyIiB4PSI0MjcuNSIgeT0iNTA4LjM3NSI+bm88L3RleHQ+PHJlY3QgZmlsbD0iI0YxRjFGMSIgaGVpZ2h0PSIzMi44NDM4IiByeD0iMTIuNSIgcnk9IjEyLjUiIHN0eWxlPSJzdHJva2U6IzE4MTgxODtzdHJva2Utd2lkdGg6MC41OyIgd2lkdGg9IjE4MiIgeD0iMTcxLjc1IiB5PSI1MzEuNzUiLz48dGV4dCBmaWxsPSIjMDAwMDAwIiBmb250LWZhbWlseT0ic2Fucy1zZXJpZiIgZm9udC1zaXplPSIxMiIgbGVuZ3RoQWRqdXN0PSJzcGFjaW5nIiB0ZXh0TGVuZ3RoPSIxNjIiIHg9IjE4MS43NSIgeT0iNTUzLjA5MzgiPkFjY2VzcyBDb2xsZWdlIERhc2hib2FyZDwvdGV4dD48cmVjdCBmaWxsPSIjRjFGMUYxIiBoZWlnaHQ9IjMyLjg0MzgiIHJ4PSIxMi41IiByeT0iMTIuNSIgc3R5bGU9InN0cm9rZTojMTgxODE4O3N0cm9rZS13aWR0aDowLjU7IiB3aWR0aD0iOTIiIHg9IjIxNi43NSIgeT0iNTg0LjU5MzgiLz48dGV4dCBmaWxsPSIjMDAwMDAwIiBmb250LWZhbWlseT0ic2Fucy1zZXJpZiIgZm9udC1zaXplPSIxMiIgbGVuZ3RoQWRqdXN0PSJzcGFjaW5nIiB0ZXh0TGVuZ3RoPSI3MiIgeD0iMjI2Ljc1IiB5PSI2MDUuOTM3NSI+VmlldyBFdmVudHM8L3RleHQ+PHJlY3QgZmlsbD0iI0YxRjFGMSIgaGVpZ2h0PSIzMi44NDM4IiByeD0iMTIuNSIgcnk9IjEyLjUiIHN0eWxlPSJzdHJva2U6IzE4MTgxODtzdHJva2Utd2lkdGg6MC41OyIgd2lkdGg9IjEwNyIgeD0iMjA5LjI1IiB5PSI2MzcuNDM3NSIvPjx0ZXh0IGZpbGw9IiMwMDAwMDAiIGZvbnQtZmFtaWx5PSJzYW5zLXNlcmlmIiBmb250LXNpemU9IjEyIiBsZW5ndGhBZGp1c3Q9InNwYWNpbmciIHRleHRMZW5ndGg9Ijg3IiB4PSIyMTkuMjUiIHk9IjY1OC43ODEzIj5TZWFyY2ggRXZlbnRzPC90ZXh0PjxyZWN0IGZpbGw9IiNGMUYxRjEiIGhlaWdodD0iMzIuODQzOCIgcng9IjEyLjUiIHJ5PSIxMi41IiBzdHlsZT0ic3Ryb2tlOiMxODE4MTg7c3Ryb2tlLXdpZHRoOjAuNTsiIHdpZHRoPSIxOTMiIHg9IjE2Ni4yNSIgeT0iNjkwLjI4MTMiLz48dGV4dCBmaWxsPSIjMDAwMDAwIiBmb250LWZhbWlseT0ic2Fucy1zZXJpZiIgZm9udC1zaXplPSIxMiIgbGVuZ3RoQWRqdXN0PSJzcGFjaW5nIiB0ZXh0TGVuZ3RoPSIxNzMiIHg9IjE3Ni4yNSIgeT0iNzExLjYyNSI+UmVxdWVzdCBFdmVudCBSZWdpc3RyYXRpb248L3RleHQ+PHJlY3QgZmlsbD0iI0YxRjFGMSIgaGVpZ2h0PSIzMi44NDM4IiByeD0iMTIuNSIgcnk9IjEyLjUiIHN0eWxlPSJzdHJva2U6IzE4MTgxODtzdHJva2Utd2lkdGg6MC41OyIgd2lkdGg9IjE2MiIgeD0iMzc5LjI1IiB5PSI1MzEuNzUiLz48dGV4dCBmaWxsPSIjMDAwMDAwIiBmb250LWZhbWlseT0ic2Fucy1zZXJpZiIgZm9udC1zaXplPSIxMiIgbGVuZ3RoQWRqdXN0PSJzcGFjaW5nIiB0ZXh0TGVuZ3RoPSIxNDIiIHg9IjM4OS4yNSIgeT0iNTUzLjA5MzgiPkRpc3BsYXkgRXJyb3IgTWVzc2FnZTwvdGV4dD48cG9seWdvbiBmaWxsPSIjRjFGMUYxIiBwb2ludHM9IjM2MS41LDcyOS4xMjUsMzczLjUsNzQxLjEyNSwzNjEuNSw3NTMuMTI1LDM0OS41LDc0MS4xMjUsMzYxLjUsNzI5LjEyNSIgc3R5bGU9InN0cm9rZTojMTgxODE4O3N0cm9rZS13aWR0aDowLjU7Ii8+PHJlY3QgZmlsbD0iI0YxRjFGMSIgaGVpZ2h0PSIzMi44NDM4IiByeD0iMTIuNSIgcnk9IjEyLjUiIHN0eWxlPSJzdHJva2U6IzE4MTgxODtzdHJva2Utd2lkdGg6MC41OyIgd2lkdGg9IjkyIiB4PSIzMTUuNSIgeT0iNzczLjEyNSIvPjx0ZXh0IGZpbGw9IiMwMDAwMDAiIGZvbnQtZmFtaWx5PSJzYW5zLXNlcmlmIiBmb250LXNpemU9IjEyIiBsZW5ndGhBZGp1c3Q9InNwYWNpbmciIHRleHRMZW5ndGg9IjcyIiB4PSIzMjUuNSIgeT0iNzk0LjQ2ODgiPkFkbWluIExvZ2luPC90ZXh0PjxyZWN0IGZpbGw9IiNGMUYxRjEiIGhlaWdodD0iMzIuODQzOCIgcng9IjEyLjUiIHJ5PSIxMi41IiBzdHlsZT0ic3Ryb2tlOiMxODE4MTg7c3Ryb2tlLXdpZHRoOjAuNTsiIHdpZHRoPSIxNDIiIHg9IjI5MC41IiB5PSI4MjUuOTY4OCIvPjx0ZXh0IGZpbGw9IiMwMDAwMDAiIGZvbnQtZmFtaWx5PSJzYW5zLXNlcmlmIiBmb250LXNpemU9IjEyIiBsZW5ndGhBZGp1c3Q9InNwYWNpbmciIHRleHRMZW5ndGg9IjEyMiIgeD0iMzAwLjUiIHk9Ijg0Ny4zMTI1Ij5Vc2VybmFtZSwgUGFzc3dvcmQ8L3RleHQ+PHBvbHlnb24gZmlsbD0iI0YxRjFGMSIgcG9pbnRzPSIzMDcuNSw4NzguODEyNSw0MTUuNSw4NzguODEyNSw0MjcuNSw4OTAuODEyNSw0MTUuNSw5MDIuODEyNSwzMDcuNSw5MDIuODEyNSwyOTUuNSw4OTAuODEyNSwzMDcuNSw4NzguODEyNSIgc3R5bGU9InN0cm9rZTojMTgxODE4O3N0cm9rZS13aWR0aDowLjU7Ii8+PHRleHQgZmlsbD0iIzAwMDAwMCIgZm9udC1mYW1pbHk9InNhbnMtc2VyaWYiIGZvbnQtc2l6ZT0iMTEiIGxlbmd0aEFkanVzdD0ic3BhY2luZyIgdGV4dExlbmd0aD0iMTA4IiB4PSIzMDcuNSIgeT0iODk1LjMyNDIiPlZhbGlkIENyZWRlbnRpYWxzPzwvdGV4dD48dGV4dCBmaWxsPSIjMDAwMDAwIiBmb250LWZhbWlseT0ic2Fucy1zZXJpZiIgZm9udC1zaXplPSIxMSIgbGVuZ3RoQWRqdXN0PSJzcGFjaW5nIiB0ZXh0TGVuZ3RoPSIxOCIgeD0iMjc3LjUiIHk9Ijg4OS40Mzc1Ij55ZXM8L3RleHQ+PHRleHQgZmlsbD0iIzAwMDAwMCIgZm9udC1mYW1pbHk9InNhbnMtc2VyaWYiIGZvbnQtc2l6ZT0iMTEiIGxlbmd0aEFkanVzdD0ic3BhY2luZyIgdGV4dExlbmd0aD0iMTIiIHg9IjQyNy41IiB5PSI4ODkuNDM3NSI+bm88L3RleHQ+PHJlY3QgZmlsbD0iI0YxRjFGMSIgaGVpZ2h0PSIzMi44NDM4IiByeD0iMTIuNSIgcnk9IjEyLjUiIHN0eWxlPSJzdHJva2U6IzE4MTgxODtzdHJva2Utd2lkdGg6MC41OyIgd2lkdGg9IjE2OCIgeD0iMTI3LjUiIHk9IjkxMi44MTI1Ii8+PHRleHQgZmlsbD0iIzAwMDAwMCIgZm9udC1mYW1pbHk9InNhbnMtc2VyaWYiIGZvbnQtc2l6ZT0iMTIiIGxlbmd0aEFkanVzdD0ic3BhY2luZyIgdGV4dExlbmd0aD0iMTQ4IiB4PSIxMzcuNSIgeT0iOTM0LjE1NjMiPkFjY2VzcyBBZG1pbiBEYXNoYm9hcmQ8L3RleHQ+PHJlY3QgZmlsbD0iI0YxRjFGMSIgaGVpZ2h0PSIzMi44NDM4IiByeD0iMTIuNSIgcnk9IjEyLjUiIHN0eWxlPSJzdHJva2U6IzE4MTgxODtzdHJva2Utd2lkdGg6MC41OyIgd2lkdGg9IjkyIiB4PSIxNjUuNSIgeT0iOTY1LjY1NjMiLz48dGV4dCBmaWxsPSIjMDAwMDAwIiBmb250LWZhbWlseT0ic2Fucy1zZXJpZiIgZm9udC1zaXplPSIxMiIgbGVuZ3RoQWRqdXN0PSJzcGFjaW5nIiB0ZXh0TGVuZ3RoPSI3MiIgeD0iMTc1LjUiIHk9Ijk4NyI+VmlldyBFdmVudHM8L3RleHQ+PHJlY3QgZmlsbD0iI0YxRjFGMSIgaGVpZ2h0PSIzMi44NDM4IiByeD0iMTIuNSIgcnk9IjEyLjUiIHN0eWxlPSJzdHJva2U6IzE4MTgxODtzdHJva2Utd2lkdGg6MC41OyIgd2lkdGg9IjEwNyIgeD0iMTU4IiB5PSIxMDE4LjUiLz48dGV4dCBmaWxsPSIjMDAwMDAwIiBmb250LWZhbWlseT0ic2Fucy1zZXJpZiIgZm9udC1zaXplPSIxMiIgbGVuZ3RoQWRqdXN0PSJzcGFjaW5nIiB0ZXh0TGVuZ3RoPSI4NyIgeD0iMTY4IiB5PSIxMDM5Ljg0MzgiPlNlYXJjaCBFdmVudHM8L3RleHQ+PHBvbHlnb24gZmlsbD0iI0YxRjFGMSIgcG9pbnRzPSIxMzAuNSwxMDcxLjM0MzgsMjkyLjUsMTA3MS4zNDM4LDMwNC41LDEwODMuMzQzOCwyOTIuNSwxMDk1LjM0MzgsMTMwLjUsMTA5NS4zNDM4LDExOC41LDEwODMuMzQzOCwxMzAuNSwxMDcxLjM0MzgiIHN0eWxlPSJzdHJva2U6IzE4MTgxODtzdHJva2Utd2lkdGg6MC41OyIvPjx0ZXh0IGZpbGw9IiMwMDAwMDAiIGZvbnQtZmFtaWx5PSJzYW5zLXNlcmlmIiBmb250LXNpemU9IjExIiBsZW5ndGhBZGp1c3Q9InNwYWNpbmciIHRleHRMZW5ndGg9IjE2MiIgeD0iMTMwLjUiIHk9IjEwODcuODU1NSI+RXZlbnQgUmVnaXN0cmF0aW9uIFJlcXVlc3Q/PC90ZXh0Pjx0ZXh0IGZpbGw9IiMwMDAwMDAiIGZvbnQtZmFtaWx5PSJzYW5zLXNlcmlmIiBmb250LXNpemU9IjExIiBsZW5ndGhBZGp1c3Q9InNwYWNpbmciIHRleHRMZW5ndGg9IjE4IiB4PSIxMDAuNSIgeT0iMTA4MS45Njg4Ij55ZXM8L3RleHQ+PHRleHQgZmlsbD0iIzAwMDAwMCIgZm9udC1mYW1pbHk9InNhbnMtc2VyaWYiIGZvbnQtc2l6ZT0iMTEiIGxlbmd0aEFkanVzdD0ic3BhY2luZyIgdGV4dExlbmd0aD0iMTIiIHg9IjMwNC41IiB5PSIxMDgxLjk2ODgiPm5vPC90ZXh0PjxyZWN0IGZpbGw9IiNGMUYxRjEiIGhlaWdodD0iMzIuODQzOCIgcng9IjEyLjUiIHJ5PSIxMi41IiBzdHlsZT0ic3Ryb2tlOiMxODE4MTg7c3Ryb2tlLXdpZHRoOjAuNTsiIHdpZHRoPSIxOTUiIHg9IjExIiB5PSIxMTA1LjM0MzgiLz48dGV4dCBmaWxsPSIjMDAwMDAwIiBmb250LWZhbWlseT0ic2Fucy1zZXJpZiIgZm9udC1zaXplPSIxMiIgbGVuZ3RoQWRqdXN0PSJzcGFjaW5nIiB0ZXh0TGVuZ3RoPSIxNzUiIHg9IjIxIiB5PSIxMTI2LjY4NzUiPkFwcHJvdmUgb3IgRGVjbGluZSBSZXF1ZXN0PC90ZXh0PjxyZWN0IGZpbGw9IiNGMUYxRjEiIGhlaWdodD0iMzIuODQzOCIgcng9IjEyLjUiIHJ5PSIxMi41IiBzdHlsZT0ic3Ryb2tlOiMxODE4MTg7c3Ryb2tlLXdpZHRoOjAuNTsiIHdpZHRoPSIxNzIiIHg9IjIyOC41IiB5PSIxMTA1LjM0MzgiLz48dGV4dCBmaWxsPSIjMDAwMDAwIiBmb250LWZhbWlseT0ic2Fucy1zZXJpZiIgZm9udC1zaXplPSIxMiIgbGVuZ3RoQWRqdXN0PSJzcGFjaW5nIiB0ZXh0TGVuZ3RoPSIxNTIiIHg9IjIzOC41IiB5PSIxMTI2LjY4NzUiPkNvbnRpbnVlIFZpZXdpbmcgRXZlbnRzPC90ZXh0Pjxwb2x5Z29uIGZpbGw9IiNGMUYxRjEiIHBvaW50cz0iMjExLjUsMTE0NC4xODc1LDIyMy41LDExNTYuMTg3NSwyMTEuNSwxMTY4LjE4NzUsMTk5LjUsMTE1Ni4xODc1LDIxMS41LDExNDQuMTg3NSIgc3R5bGU9InN0cm9rZTojMTgxODE4O3N0cm9rZS13aWR0aDowLjU7Ii8+PHJlY3QgZmlsbD0iI0YxRjFGMSIgaGVpZ2h0PSIzMi44NDM4IiByeD0iMTIuNSIgcnk9IjEyLjUiIHN0eWxlPSJzdHJva2U6IzE4MTgxODtzdHJva2Utd2lkdGg6MC41OyIgd2lkdGg9IjE2MiIgeD0iNDMwLjUiIHk9IjkxMi44MTI1Ii8+PHRleHQgZmlsbD0iIzAwMDAwMCIgZm9udC1mYW1pbHk9InNhbnMtc2VyaWYiIGZvbnQtc2l6ZT0iMTIiIGxlbmd0aEFkanVzdD0ic3BhY2luZyIgdGV4dExlbmd0aD0iMTQyIiB4PSI0NDAuNSIgeT0iOTM0LjE1NjMiPkRpc3BsYXkgRXJyb3IgTWVzc2FnZTwvdGV4dD48cG9seWdvbiBmaWxsPSIjRjFGMUYxIiBwb2ludHM9IjM2MS41LDExNzQuMTg3NSwzNzMuNSwxMTg2LjE4NzUsMzYxLjUsMTE5OC4xODc1LDM0OS41LDExODYuMTg3NSwzNjEuNSwxMTc0LjE4NzUiIHN0eWxlPSJzdHJva2U6IzE4MTgxODtzdHJva2Utd2lkdGg6MC41OyIvPjxyZWN0IGZpbGw9IiNGMUYxRjEiIGhlaWdodD0iMzIuODQzOCIgcng9IjEyLjUiIHJ5PSIxMi41IiBzdHlsZT0ic3Ryb2tlOiMxODE4MTg7c3Ryb2tlLXdpZHRoOjAuNTsiIHdpZHRoPSIxMDAiIHg9IjMxMS41IiB5PSIxMjE4LjE4NzUiLz48dGV4dCBmaWxsPSIjMDAwMDAwIiBmb250LWZhbWlseT0ic2Fucy1zZXJpZiIgZm9udC1zaXplPSIxMiIgbGVuZ3RoQWRqdXN0PSJzcGFjaW5nIiB0ZXh0TGVuZ3RoPSI4MCIgeD0iMzIxLjUiIHk9IjEyMzkuNTMxMyI+R3Vlc3QgQWNjZXNzPC90ZXh0PjxyZWN0IGZpbGw9IiNGMUYxRjEiIGhlaWdodD0iMzIuODQzOCIgcng9IjEyLjUiIHJ5PSIxMi41IiBzdHlsZT0ic3Ryb2tlOiMxODE4MTg7c3Ryb2tlLXdpZHRoOjAuNTsiIHdpZHRoPSI5MiIgeD0iMzE1LjUiIHk9IjEyNzEuMDMxMyIvPjx0ZXh0IGZpbGw9IiMwMDAwMDAiIGZvbnQtZmFtaWx5PSJzYW5zLXNlcmlmIiBmb250LXNpemU9IjEyIiBsZW5ndGhBZGp1c3Q9InNwYWNpbmciIHRleHRMZW5ndGg9IjcyIiB4PSIzMjUuNSIgeT0iMTI5Mi4zNzUiPlZpZXcgRXZlbnRzPC90ZXh0PjxyZWN0IGZpbGw9IiNGMUYxRjEiIGhlaWdodD0iMzIuODQzOCIgcng9IjEyLjUiIHJ5PSIxMi41IiBzdHlsZT0ic3Ryb2tlOiMxODE4MTg7c3Ryb2tlLXdpZHRoOjAuNTsiIHdpZHRoPSIxMDciIHg9IjMwOCIgeT0iMTMyMy44NzUiLz48dGV4dCBmaWxsPSIjMDAwMDAwIiBmb250LWZhbWlseT0ic2Fucy1zZXJpZiIgZm9udC1zaXplPSIxMiIgbGVuZ3RoQWRqdXN0PSJzcGFjaW5nIiB0ZXh0TGVuZ3RoPSI4NyIgeD0iMzE4IiB5PSIxMzQ1LjIxODgiPlNlYXJjaCBFdmVudHM8L3RleHQ+PGxpbmUgc3R5bGU9InN0cm9rZTojMTgxODE4O3N0cm9rZS13aWR0aDoxLjA7IiB4MT0iMzYxLjUiIHgyPSIzNjEuNSIgeTE9IjQzLjg0MzgiIHkyPSI2My44NDM4Ii8+PHBvbHlnb24gZmlsbD0iIzE4MTgxOCIgcG9pbnRzPSIzNTcuNSw1My44NDM4LDM2MS41LDYzLjg0MzgsMzY1LjUsNTMuODQzOCwzNjEuNSw1Ny44NDM4IiBzdHlsZT0ic3Ryb2tlOiMxODE4MTg7c3Ryb2tlLXdpZHRoOjEuMDsiLz48bGluZSBzdHlsZT0ic3Ryb2tlOiMxODE4MTg7c3Ryb2tlLXdpZHRoOjEuMDsiIHgxPSIyNjUuNSIgeDI9IjI2NS41IiB5MT0iMTgzLjUzMTMiIHkyPSIyMDMuNTMxMyIvPjxwb2x5Z29uIGZpbGw9IiMxODE4MTgiIHBvaW50cz0iMjYxLjUsMTkzLjUzMTMsMjY1LjUsMjAzLjUzMTMsMjY5LjUsMTkzLjUzMTMsMjY1LjUsMTk3LjUzMTMiIHN0eWxlPSJzdHJva2U6IzE4MTgxODtzdHJva2Utd2lkdGg6MS4wOyIvPjxsaW5lIHN0eWxlPSJzdHJva2U6IzE4MTgxODtzdHJva2Utd2lkdGg6MS4wOyIgeDE9IjI2NS41IiB4Mj0iMjY1LjUiIHkxPSIyMzYuMzc1IiB5Mj0iMjU2LjM3NSIvPjxwb2x5Z29uIGZpbGw9IiMxODE4MTgiIHBvaW50cz0iMjYxLjUsMjQ2LjM3NSwyNjUuNSwyNTYuMzc1LDI2OS41LDI0Ni4zNzUsMjY1LjUsMjUwLjM3NSIgc3R5bGU9InN0cm9rZTojMTgxODE4O3N0cm9rZS13aWR0aDoxLjA7Ii8+PGxpbmUgc3R5bGU9InN0cm9rZTojMTgxODE4O3N0cm9rZS13aWR0aDoxLjA7IiB4MT0iMjY1LjUiIHgyPSIyNjUuNSIgeTE9IjI4OS4yMTg4IiB5Mj0iMzA5LjIxODgiLz48cG9seWdvbiBmaWxsPSIjMTgxODE4IiBwb2ludHM9IjI2MS41LDI5OS4yMTg4LDI2NS41LDMwOS4yMTg4LDI2OS41LDI5OS4yMTg4LDI2NS41LDMwMy4yMTg4IiBzdHlsZT0ic3Ryb2tlOiMxODE4MTg7c3Ryb2tlLXdpZHRoOjEuMDsiLz48bGluZSBzdHlsZT0ic3Ryb2tlOiMxODE4MTg7c3Ryb2tlLXdpZHRoOjEuMDsiIHgxPSIyOTUuNSIgeDI9IjI2NS41IiB5MT0iMTI4LjY4NzUiIHkyPSIxMjguNjg3NSIvPjxsaW5lIHN0eWxlPSJzdHJva2U6IzE4MTgxODtzdHJva2Utd2lkdGg6MS4wOyIgeDE9IjI2NS41IiB4Mj0iMjY1LjUiIHkxPSIxMjguNjg3NSIgeTI9IjE1MC42ODc1Ii8+PHBvbHlnb24gZmlsbD0iIzE4MTgxOCIgcG9pbnRzPSIyNjEuNSwxNDAuNjg3NSwyNjUuNSwxNTAuNjg3NSwyNjkuNSwxNDAuNjg3NSwyNjUuNSwxNDQuNjg3NSIgc3R5bGU9InN0cm9rZTojMTgxODE4O3N0cm9rZS13aWR0aDoxLjA7Ii8+PGxpbmUgc3R5bGU9InN0cm9rZTojMTgxODE4O3N0cm9rZS13aWR0aDoxLjA7IiB4MT0iNDI3LjUiIHgyPSI0NTcuNSIgeTE9IjEyOC42ODc1IiB5Mj0iMTI4LjY4NzUiLz48bGluZSBzdHlsZT0ic3Ryb2tlOiMxODE4MTg7c3Ryb2tlLXdpZHRoOjEuMDsiIHgxPSI0NTcuNSIgeDI9IjQ1Ny41IiB5MT0iMTI4LjY4NzUiIHkyPSIxNTAuNjg3NSIvPjxwb2x5Z29uIGZpbGw9IiMxODE4MTgiIHBvaW50cz0iNDUzLjUsMTQwLjY4NzUsNDU3LjUsMTUwLjY4NzUsNDYxLjUsMTQwLjY4NzUsNDU3LjUsMTQ0LjY4NzUiIHN0eWxlPSJzdHJva2U6IzE4MTgxODtzdHJva2Utd2lkdGg6MS4wOyIvPjxsaW5lIHN0eWxlPSJzdHJva2U6IzE4MTgxODtzdHJva2Utd2lkdGg6MS4wOyIgeDE9IjI2NS41IiB4Mj0iMjY1LjUiIHkxPSIzNDIuMDYyNSIgeTI9IjM2MC4wNjI1Ii8+PGxpbmUgc3R5bGU9InN0cm9rZTojMTgxODE4O3N0cm9rZS13aWR0aDoxLjA7IiB4MT0iMjY1LjUiIHgyPSIzNDkuNSIgeTE9IjM2MC4wNjI1IiB5Mj0iMzYwLjA2MjUiLz48cG9seWdvbiBmaWxsPSIjMTgxODE4IiBwb2ludHM9IjMzOS41LDM1Ni4wNjI1LDM0OS41LDM2MC4wNjI1LDMzOS41LDM2NC4wNjI1LDM0My41LDM2MC4wNjI1IiBzdHlsZT0ic3Ryb2tlOiMxODE4MTg7c3Ryb2tlLXdpZHRoOjEuMDsiLz48bGluZSBzdHlsZT0ic3Ryb2tlOiMxODE4MTg7c3Ryb2tlLXdpZHRoOjEuMDsiIHgxPSI0NTcuNSIgeDI9IjQ1Ny41IiB5MT0iMTgzLjUzMTMiIHkyPSIzNjAuMDYyNSIvPjxsaW5lIHN0eWxlPSJzdHJva2U6IzE4MTgxODtzdHJva2Utd2lkdGg6MS4wOyIgeDE9IjQ1Ny41IiB4Mj0iMzczLjUiIHkxPSIzNjAuMDYyNSIgeTI9IjM2MC4wNjI1Ii8+PHBvbHlnb24gZmlsbD0iIzE4MTgxOCIgcG9pbnRzPSIzODMuNSwzNTYuMDYyNSwzNzMuNSwzNjAuMDYyNSwzODMuNSwzNjQuMDYyNSwzNzkuNSwzNjAuMDYyNSIgc3R5bGU9InN0cm9rZTojMTgxODE4O3N0cm9rZS13aWR0aDoxLjA7Ii8+PGxpbmUgc3R5bGU9InN0cm9rZTojMTgxODE4O3N0cm9rZS13aWR0aDoxLjA7IiB4MT0iMzYxLjUiIHgyPSIzNjEuNSIgeTE9Ijk2LjY4NzUiIHkyPSIxMTYuNjg3NSIvPjxwb2x5Z29uIGZpbGw9IiMxODE4MTgiIHBvaW50cz0iMzU3LjUsMTA2LjY4NzUsMzYxLjUsMTE2LjY4NzUsMzY1LjUsMTA2LjY4NzUsMzYxLjUsMTEwLjY4NzUiIHN0eWxlPSJzdHJva2U6IzE4MTgxODtzdHJva2Utd2lkdGg6MS4wOyIvPjxsaW5lIHN0eWxlPSJzdHJva2U6IzE4MTgxODtzdHJva2Utd2lkdGg6MS4wOyIgeDE9IjM2MS41IiB4Mj0iMzYxLjUiIHkxPSIzNzIuMDYyNSIgeTI9IjM5Mi4wNjI1Ii8+PHBvbHlnb24gZmlsbD0iIzE4MTgxOCIgcG9pbnRzPSIzNTcuNSwzODIuMDYyNSwzNjEuNSwzOTIuMDYyNSwzNjUuNSwzODIuMDYyNSwzNjEuNSwzODYuMDYyNSIgc3R5bGU9InN0cm9rZTojMTgxODE4O3N0cm9rZS13aWR0aDoxLjA7Ii8+PGxpbmUgc3R5bGU9InN0cm9rZTojMTgxODE4O3N0cm9rZS13aWR0aDoxLjA7IiB4MT0iMzYxLjUiIHgyPSIzNjEuNSIgeTE9IjQyNC45MDYzIiB5Mj0iNDQ0LjkwNjMiLz48cG9seWdvbiBmaWxsPSIjMTgxODE4IiBwb2ludHM9IjM1Ny41LDQzNC45MDYzLDM2MS41LDQ0NC45MDYzLDM2NS41LDQzNC45MDYzLDM2MS41LDQzOC45MDYzIiBzdHlsZT0ic3Ryb2tlOiMxODE4MTg7c3Ryb2tlLXdpZHRoOjEuMDsiLz48bGluZSBzdHlsZT0ic3Ryb2tlOiMxODE4MTg7c3Ryb2tlLXdpZHRoOjEuMDsiIHgxPSIyNjIuNzUiIHgyPSIyNjIuNzUiIHkxPSI1NjQuNTkzOCIgeTI9IjU4NC41OTM4Ii8+PHBvbHlnb24gZmlsbD0iIzE4MTgxOCIgcG9pbnRzPSIyNTguNzUsNTc0LjU5MzgsMjYyLjc1LDU4NC41OTM4LDI2Ni43NSw1NzQuNTkzOCwyNjIuNzUsNTc4LjU5MzgiIHN0eWxlPSJzdHJva2U6IzE4MTgxODtzdHJva2Utd2lkdGg6MS4wOyIvPjxsaW5lIHN0eWxlPSJzdHJva2U6IzE4MTgxODtzdHJva2Utd2lkdGg6MS4wOyIgeDE9IjI2Mi43NSIgeDI9IjI2Mi43NSIgeTE9IjYxNy40Mzc1IiB5Mj0iNjM3LjQzNzUiLz48cG9seWdvbiBmaWxsPSIjMTgxODE4IiBwb2ludHM9IjI1OC43NSw2MjcuNDM3NSwyNjIuNzUsNjM3LjQzNzUsMjY2Ljc1LDYyNy40Mzc1LDI2Mi43NSw2MzEuNDM3NSIgc3R5bGU9InN0cm9rZTojMTgxODE4O3N0cm9rZS13aWR0aDoxLjA7Ii8+PGxpbmUgc3R5bGU9InN0cm9rZTojMTgxODE4O3N0cm9rZS13aWR0aDoxLjA7IiB4MT0iMjYyLjc1IiB4Mj0iMjYyLjc1IiB5MT0iNjcwLjI4MTMiIHkyPSI2OTAuMjgxMyIvPjxwb2x5Z29uIGZpbGw9IiMxODE4MTgiIHBvaW50cz0iMjU4Ljc1LDY4MC4yODEzLDI2Mi43NSw2OTAuMjgxMywyNjYuNzUsNjgwLjI4MTMsMjYyLjc1LDY4NC4yODEzIiBzdHlsZT0ic3Ryb2tlOiMxODE4MTg7c3Ryb2tlLXdpZHRoOjEuMDsiLz48bGluZSBzdHlsZT0ic3Ryb2tlOiMxODE4MTg7c3Ryb2tlLXdpZHRoOjEuMDsiIHgxPSIyOTUuNSIgeDI9IjI2Mi43NSIgeTE9IjUwOS43NSIgeTI9IjUwOS43NSIvPjxsaW5lIHN0eWxlPSJzdHJva2U6IzE4MTgxODtzdHJva2Utd2lkdGg6MS4wOyIgeDE9IjI2Mi43NSIgeDI9IjI2Mi43NSIgeTE9IjUwOS43NSIgeTI9IjUzMS43NSIvPjxwb2x5Z29uIGZpbGw9IiMxODE4MTgiIHBvaW50cz0iMjU4Ljc1LDUyMS43NSwyNjIuNzUsNTMxLjc1LDI2Ni43NSw1MjEuNzUsMjYyLjc1LDUyNS43NSIgc3R5bGU9InN0cm9rZTojMTgxODE4O3N0cm9rZS13aWR0aDoxLjA7Ii8+PGxpbmUgc3R5bGU9InN0cm9rZTojMTgxODE4O3N0cm9rZS13aWR0aDoxLjA7IiB4MT0iNDI3LjUiIHgyPSI0NjAuMjUiIHkxPSI1MDkuNzUiIHkyPSI1MDkuNzUiLz48bGluZSBzdHlsZT0ic3Ryb2tlOiMxODE4MTg7c3Ryb2tlLXdpZHRoOjEuMDsiIHgxPSI0NjAuMjUiIHgyPSI0NjAuMjUiIHkxPSI1MDkuNzUiIHkyPSI1MzEuNzUiLz48cG9seWdvbiBmaWxsPSIjMTgxODE4IiBwb2ludHM9IjQ1Ni4yNSw1MjEuNzUsNDYwLjI1LDUzMS43NSw0NjQuMjUsNTIxLjc1LDQ2MC4yNSw1MjUuNzUiIHN0eWxlPSJzdHJva2U6IzE4MTgxODtzdHJva2Utd2lkdGg6MS4wOyIvPjxsaW5lIHN0eWxlPSJzdHJva2U6IzE4MTgxODtzdHJva2Utd2lkdGg6MS4wOyIgeDE9IjI2Mi43NSIgeDI9IjI2Mi43NSIgeTE9IjcyMy4xMjUiIHkyPSI3NDEuMTI1Ii8+PGxpbmUgc3R5bGU9InN0cm9rZTojMTgxODE4O3N0cm9rZS13aWR0aDoxLjA7IiB4MT0iMjYyLjc1IiB4Mj0iMzQ5LjUiIHkxPSI3NDEuMTI1IiB5Mj0iNzQxLjEyNSIvPjxwb2x5Z29uIGZpbGw9IiMxODE4MTgiIHBvaW50cz0iMzM5LjUsNzM3LjEyNSwzNDkuNSw3NDEuMTI1LDMzOS41LDc0NS4xMjUsMzQzLjUsNzQxLjEyNSIgc3R5bGU9InN0cm9rZTojMTgxODE4O3N0cm9rZS13aWR0aDoxLjA7Ii8+PGxpbmUgc3R5bGU9InN0cm9rZTojMTgxODE4O3N0cm9rZS13aWR0aDoxLjA7IiB4MT0iNDYwLjI1IiB4Mj0iNDYwLjI1IiB5MT0iNTY0LjU5MzgiIHkyPSI3NDEuMTI1Ii8+PGxpbmUgc3R5bGU9InN0cm9rZTojMTgxODE4O3N0cm9rZS13aWR0aDoxLjA7IiB4MT0iNDYwLjI1IiB4Mj0iMzczLjUiIHkxPSI3NDEuMTI1IiB5Mj0iNzQxLjEyNSIvPjxwb2x5Z29uIGZpbGw9IiMxODE4MTgiIHBvaW50cz0iMzgzLjUsNzM3LjEyNSwzNzMuNSw3NDEuMTI1LDM4My41LDc0NS4xMjUsMzc5LjUsNzQxLjEyNSIgc3R5bGU9InN0cm9rZTojMTgxODE4O3N0cm9rZS13aWR0aDoxLjA7Ii8+PGxpbmUgc3R5bGU9InN0cm9rZTojMTgxODE4O3N0cm9rZS13aWR0aDoxLjA7IiB4MT0iMzYxLjUiIHgyPSIzNjEuNSIgeTE9IjQ3Ny43NSIgeTI9IjQ5Ny43NSIvPjxwb2x5Z29uIGZpbGw9IiMxODE4MTgiIHBvaW50cz0iMzU3LjUsNDg3Ljc1LDM2MS41LDQ5Ny43NSwzNjUuNSw0ODcuNzUsMzYxLjUsNDkxLjc1IiBzdHlsZT0ic3Ryb2tlOiMxODE4MTg7c3Ryb2tlLXdpZHRoOjEuMDsiLz48bGluZSBzdHlsZT0ic3Ryb2tlOiMxODE4MTg7c3Ryb2tlLXdpZHRoOjEuMDsiIHgxPSIzNjEuNSIgeDI9IjM2MS41IiB5MT0iNzUzLjEyNSIgeTI9Ijc3My4xMjUiLz48cG9seWdvbiBmaWxsPSIjMTgxODE4IiBwb2ludHM9IjM1Ny41LDc2My4xMjUsMzYxLjUsNzczLjEyNSwzNjUuNSw3NjMuMTI1LDM2MS41LDc2Ny4xMjUiIHN0eWxlPSJzdHJva2U6IzE4MTgxODtzdHJva2Utd2lkdGg6MS4wOyIvPjxsaW5lIHN0eWxlPSJzdHJva2U6IzE4MTgxODtzdHJva2Utd2lkdGg6MS4wOyIgeDE9IjM2MS41IiB4Mj0iMzYxLjUiIHkxPSI4MDUuOTY4OCIgeTI9IjgyNS45Njg4Ii8+PHBvbHlnb24gZmlsbD0iIzE4MTgxOCIgcG9pbnRzPSIzNTcuNSw4MTUuOTY4OCwzNjEuNSw4MjUuOTY4OCwzNjUuNSw4MTUuOTY4OCwzNjEuNSw4MTkuOTY4OCIgc3R5bGU9InN0cm9rZTojMTgxODE4O3N0cm9rZS13aWR0aDoxLjA7Ii8+PGxpbmUgc3R5bGU9InN0cm9rZTojMTgxODE4O3N0cm9rZS13aWR0aDoxLjA7IiB4MT0iMjExLjUiIHgyPSIyMTEuNSIgeTE9Ijk0NS42NTYzIiB5Mj0iOTY1LjY1NjMiLz48cG9seWdvbiBmaWxsPSIjMTgxODE4IiBwb2ludHM9IjIwNy41LDk1NS42NTYzLDIxMS41LDk2NS42NTYzLDIxNS41LDk1NS42NTYzLDIxMS41LDk1OS42NTYzIiBzdHlsZT0ic3Ryb2tlOiMxODE4MTg7c3Ryb2tlLXdpZHRoOjEuMDsiLz48bGluZSBzdHlsZT0ic3Ryb2tlOiMxODE4MTg7c3Ryb2tlLXdpZHRoOjEuMDsiIHgxPSIyMTEuNSIgeDI9IjIxMS41IiB5MT0iOTk4LjUiIHkyPSIxMDE4LjUiLz48cG9seWdvbiBmaWxsPSIjMTgxODE4IiBwb2ludHM9IjIwNy41LDEwMDguNSwyMTEuNSwxMDE4LjUsMjE1LjUsMTAwOC41LDIxMS41LDEwMTIuNSIgc3R5bGU9InN0cm9rZTojMTgxODE4O3N0cm9rZS13aWR0aDoxLjA7Ii8+PGxpbmUgc3R5bGU9InN0cm9rZTojMTgxODE4O3N0cm9rZS13aWR0aDoxLjA7IiB4MT0iMTE4LjUiIHgyPSIxMDguNSIgeTE9IjEwODMuMzQzOCIgeTI9IjEwODMuMzQzOCIvPjxsaW5lIHN0eWxlPSJzdHJva2U6IzE4MTgxODtzdHJva2Utd2lkdGg6MS4wOyIgeDE9IjEwOC41IiB4Mj0iMTA4LjUiIHkxPSIxMDgzLjM0MzgiIHkyPSIxMTA1LjM0MzgiLz48cG9seWdvbiBmaWxsPSIjMTgxODE4IiBwb2ludHM9IjEwNC41LDEwOTUuMzQzOCwxMDguNSwxMTA1LjM0MzgsMTEyLjUsMTA5NS4zNDM4LDEwOC41LDEwOTkuMzQzOCIgc3R5bGU9InN0cm9rZTojMTgxODE4O3N0cm9rZS13aWR0aDoxLjA7Ii8+PGxpbmUgc3R5bGU9InN0cm9rZTojMTgxODE4O3N0cm9rZS13aWR0aDoxLjA7IiB4MT0iMzA0LjUiIHgyPSIzMTQuNSIgeTE9IjEwODMuMzQzOCIgeTI9IjEwODMuMzQzOCIvPjxsaW5lIHN0eWxlPSJzdHJva2U6IzE4MTgxODtzdHJva2Utd2lkdGg6MS4wOyIgeDE9IjMxNC41IiB4Mj0iMzE0LjUiIHkxPSIxMDgzLjM0MzgiIHkyPSIxMTA1LjM0MzgiLz48cG9seWdvbiBmaWxsPSIjMTgxODE4IiBwb2ludHM9IjMxMC41LDEwOTUuMzQzOCwzMTQuNSwxMTA1LjM0MzgsMzE4LjUsMTA5NS4zNDM4LDMxNC41LDEwOTkuMzQzOCIgc3R5bGU9InN0cm9rZTojMTgxODE4O3N0cm9rZS13aWR0aDoxLjA7Ii8+PGxpbmUgc3R5bGU9InN0cm9rZTojMTgxODE4O3N0cm9rZS13aWR0aDoxLjA7IiB4MT0iMTA4LjUiIHgyPSIxMDguNSIgeTE9IjExMzguMTg3NSIgeTI9IjExNTYuMTg3NSIvPjxsaW5lIHN0eWxlPSJzdHJva2U6IzE4MTgxODtzdHJva2Utd2lkdGg6MS4wOyIgeDE9IjEwOC41IiB4Mj0iMTk5LjUiIHkxPSIxMTU2LjE4NzUiIHkyPSIxMTU2LjE4NzUiLz48cG9seWdvbiBmaWxsPSIjMTgxODE4IiBwb2ludHM9IjE4OS41LDExNTIuMTg3NSwxOTkuNSwxMTU2LjE4NzUsMTg5LjUsMTE2MC4xODc1LDE5My41LDExNTYuMTg3NSIgc3R5bGU9InN0cm9rZTojMTgxODE4O3N0cm9rZS13aWR0aDoxLjA7Ii8+PGxpbmUgc3R5bGU9InN0cm9rZTojMTgxODE4O3N0cm9rZS13aWR0aDoxLjA7IiB4MT0iMzE0LjUiIHgyPSIzMTQuNSIgeTE9IjExMzguMTg3NSIgeTI9IjExNTYuMTg3NSIvPjxsaW5lIHN0eWxlPSJzdHJva2U6IzE4MTgxODtzdHJva2Utd2lkdGg6MS4wOyIgeDE9IjMxNC41IiB4Mj0iMjIzLjUiIHkxPSIxMTU2LjE4NzUiIHkyPSIxMTU2LjE4NzUiLz48cG9seWdvbiBmaWxsPSIjMTgxODE4IiBwb2ludHM9IjIzMy41LDExNTIuMTg3NSwyMjMuNSwxMTU2LjE4NzUsMjMzLjUsMTE2MC4xODc1LDIyOS41LDExNTYuMTg3NSIgc3R5bGU9InN0cm9rZTojMTgxODE4O3N0cm9rZS13aWR0aDoxLjA7Ii8+PGxpbmUgc3R5bGU9InN0cm9rZTojMTgxODE4O3N0cm9rZS13aWR0aDoxLjA7IiB4MT0iMjExLjUiIHgyPSIyMTEuNSIgeTE9IjEwNTEuMzQzOCIgeTI9IjEwNzEuMzQzOCIvPjxwb2x5Z29uIGZpbGw9IiMxODE4MTgiIHBvaW50cz0iMjA3LjUsMTA2MS4zNDM4LDIxMS41LDEwNzEuMzQzOCwyMTUuNSwxMDYxLjM0MzgsMjExLjUsMTA2NS4zNDM4IiBzdHlsZT0ic3Ryb2tlOiMxODE4MTg7c3Ryb2tlLXdpZHRoOjEuMDsiLz48bGluZSBzdHlsZT0ic3Ryb2tlOiMxODE4MTg7c3Ryb2tlLXdpZHRoOjEuMDsiIHgxPSIyOTUuNSIgeDI9IjIxMS41IiB5MT0iODkwLjgxMjUiIHkyPSI4OTAuODEyNSIvPjxsaW5lIHN0eWxlPSJzdHJva2U6IzE4MTgxODtzdHJva2Utd2lkdGg6MS4wOyIgeDE9IjIxMS41IiB4Mj0iMjExLjUiIHkxPSI4OTAuODEyNSIgeTI9IjkxMi44MTI1Ii8+PHBvbHlnb24gZmlsbD0iIzE4MTgxOCIgcG9pbnRzPSIyMDcuNSw5MDIuODEyNSwyMTEuNSw5MTIuODEyNSwyMTUuNSw5MDIuODEyNSwyMTEuNSw5MDYuODEyNSIgc3R5bGU9InN0cm9rZTojMTgxODE4O3N0cm9rZS13aWR0aDoxLjA7Ii8+PGxpbmUgc3R5bGU9InN0cm9rZTojMTgxODE4O3N0cm9rZS13aWR0aDoxLjA7IiB4MT0iNDI3LjUiIHgyPSI1MTEuNSIgeTE9Ijg5MC44MTI1IiB5Mj0iODkwLjgxMjUiLz48bGluZSBzdHlsZT0ic3Ryb2tlOiMxODE4MTg7c3Ryb2tlLXdpZHRoOjEuMDsiIHgxPSI1MTEuNSIgeDI9IjUxMS41IiB5MT0iODkwLjgxMjUiIHkyPSI5MTIuODEyNSIvPjxwb2x5Z29uIGZpbGw9IiMxODE4MTgiIHBvaW50cz0iNTA3LjUsOTAyLjgxMjUsNTExLjUsOTEyLjgxMjUsNTE1LjUsOTAyLjgxMjUsNTExLjUsOTA2LjgxMjUiIHN0eWxlPSJzdHJva2U6IzE4MTgxODtzdHJva2Utd2lkdGg6MS4wOyIvPjxsaW5lIHN0eWxlPSJzdHJva2U6IzE4MTgxODtzdHJva2Utd2lkdGg6MS4wOyIgeDE9IjIxMS41IiB4Mj0iMjExLjUiIHkxPSIxMTY4LjE4NzUiIHkyPSIxMTg2LjE4NzUiLz48bGluZSBzdHlsZT0ic3Ryb2tlOiMxODE4MTg7c3Ryb2tlLXdpZHRoOjEuMDsiIHgxPSIyMTEuNSIgeDI9IjM0OS41IiB5MT0iMTE4Ni4xODc1IiB5Mj0iMTE4Ni4xODc1Ii8+PHBvbHlnb24gZmlsbD0iIzE4MTgxOCIgcG9pbnRzPSIzMzkuNSwxMTgyLjE4NzUsMzQ5LjUsMTE4Ni4xODc1LDMzOS41LDExOTAuMTg3NSwzNDMuNSwxMTg2LjE4NzUiIHN0eWxlPSJzdHJva2U6IzE4MTgxODtzdHJva2Utd2lkdGg6MS4wOyIvPjxsaW5lIHN0eWxlPSJzdHJva2U6IzE4MTgxODtzdHJva2Utd2lkdGg6MS4wOyIgeDE9IjUxMS41IiB4Mj0iNTExLjUiIHkxPSI5NDUuNjU2MyIgeTI9IjExODYuMTg3NSIvPjxsaW5lIHN0eWxlPSJzdHJva2U6IzE4MTgxODtzdHJva2Utd2lkdGg6MS4wOyIgeDE9IjUxMS41IiB4Mj0iMzczLjUiIHkxPSIxMTg2LjE4NzUiIHkyPSIxMTg2LjE4NzUiLz48cG9seWdvbiBmaWxsPSIjMTgxODE4IiBwb2ludHM9IjM4My41LDExODIuMTg3NSwzNzMuNSwxMTg2LjE4NzUsMzgzLjUsMTE5MC4xODc1LDM3OS41LDExODYuMTg3NSIgc3R5bGU9InN0cm9rZTojMTgxODE4O3N0cm9rZS13aWR0aDoxLjA7Ii8+PGxpbmUgc3R5bGU9InN0cm9rZTojMTgxODE4O3N0cm9rZS13aWR0aDoxLjA7IiB4MT0iMzYxLjUiIHgyPSIzNjEuNSIgeTE9Ijg1OC44MTI1IiB5Mj0iODc4LjgxMjUiLz48cG9seWdvbiBmaWxsPSIjMTgxODE4IiBwb2ludHM9IjM1Ny41LDg2OC44MTI1LDM2MS41LDg3OC44MTI1LDM2NS41LDg2OC44MTI1LDM2MS41LDg3Mi44MTI1IiBzdHlsZT0ic3Ryb2tlOiMxODE4MTg7c3Ryb2tlLXdpZHRoOjEuMDsiLz48bGluZSBzdHlsZT0ic3Ryb2tlOiMxODE4MTg7c3Ryb2tlLXdpZHRoOjEuMDsiIHgxPSIzNjEuNSIgeDI9IjM2MS41IiB5MT0iMTE5OC4xODc1IiB5Mj0iMTIxOC4xODc1Ii8+PHBvbHlnb24gZmlsbD0iIzE4MTgxOCIgcG9pbnRzPSIzNTcuNSwxMjA4LjE4NzUsMzYxLjUsMTIxOC4xODc1LDM2NS41LDEyMDguMTg3NSwzNjEuNSwxMjEyLjE4NzUiIHN0eWxlPSJzdHJva2U6IzE4MTgxODtzdHJva2Utd2lkdGg6MS4wOyIvPjxsaW5lIHN0eWxlPSJzdHJva2U6IzE4MTgxODtzdHJva2Utd2lkdGg6MS4wOyIgeDE9IjM2MS41IiB4Mj0iMzYxLjUiIHkxPSIxMjUxLjAzMTMiIHkyPSIxMjcxLjAzMTMiLz48cG9seWdvbiBmaWxsPSIjMTgxODE4IiBwb2ludHM9IjM1Ny41LDEyNjEuMDMxMywzNjEuNSwxMjcxLjAzMTMsMzY1LjUsMTI2MS4wMzEzLDM2MS41LDEyNjUuMDMxMyIgc3R5bGU9InN0cm9rZTojMTgxODE4O3N0cm9rZS13aWR0aDoxLjA7Ii8+PGxpbmUgc3R5bGU9InN0cm9rZTojMTgxODE4O3N0cm9rZS13aWR0aDoxLjA7IiB4MT0iMzYxLjUiIHgyPSIzNjEuNSIgeTE9IjEzMDMuODc1IiB5Mj0iMTMyMy44NzUiLz48cG9seWdvbiBmaWxsPSIjMTgxODE4IiBwb2ludHM9IjM1Ny41LDEzMTMuODc1LDM2MS41LDEzMjMuODc1LDM2NS41LDEzMTMuODc1LDM2MS41LDEzMTcuODc1IiBzdHlsZT0ic3Ryb2tlOiMxODE4MTg7c3Ryb2tlLXdpZHRoOjEuMDsiLz48IS0tU1JDPVtoUDcxUWlDbTM4UmxWV2VUS3pXSmY4VEhhWjg2NnVvTXpreDVJWTltdlNub01saHNpdkVjUERxZk9xVDlsX05oLXZ0bEdzLUcweG92WGRZanllRVdQdHQyOV9aRzhYVmRwTGZIM1RiSE1wOUdVNG5ncWJRVUxuMVFQQ1lrQTJpNWE2LWcyYUxXTWJYZ1FKLVRKa19aeTRYdVdVcXYzY0llendYenJTdXhFc244MGRnZWRSX3RxR2YybmN1bUE0YXdndy1tekp2QXRnRVBSWjFnczUyakw1dXVReDcxRXljalZZdF9aMzlqTjh4b3JRRTRpR0taY0RVMTcyeVpzZldKeVZfenBCWGs4S25vLUNxMUR5SDdnc0pNVFR3VDRJOUdZUEtibmFjU3JpdG5leFhteU1KazRUOFRuQ3RDVTBuWElMbWxHLVdaUkNwaDF6ZTNzM1MwXS0tPjwvZz48L3N2Zz4=;" vertex="1" parent="1">
            <mxGeometry x="587" y="260" width="253" height="573.55" as="geometry" />
          </mxCell>
        </UserObject>
        <UserObject label="" plantUmlData="{&#xa;  &quot;data&quot;: &quot;@startuml\n\n:Student Login;\n:Username, Password;\nif (Valid Credentials?) then (yes)\n  :Access Student Dashboard;\n  :View Events;\n  :Search Events;\n  :Register for Events;\nelse (no)\n  :Display Error Message;\nendif\n\n:College Login;\n:CollegeID, Password;\nif (Valid Credentials?) then (yes)\n  :Access College Dashboard;\n  :View Events;\n  :Search Events;\n  :Request Event Registration;\nelse (no)\n  :Display Error Message;\nendif\n\n:Admin Login;\n:Username, Password;\nif (Valid Credentials?) then (yes)\n  :Access Admin Dashboard;\n  :View Events;\n  :Search Events;\n  if (Event Registration Request?) then (yes)\n    :Approve or Decline Request;\n  else (no)\n    :Continue Viewing Events;\n  endif\nelse (no)\n  :Display Error Message;\nendif\n\n:Guest Access;\n:View Events;\n:Search Events;\n\n@enduml\n\n&quot;,&#xa;  &quot;format&quot;: &quot;svg&quot;&#xa;}" id="nF57_oaCUXwNxO_2Wn-n-4">
          <mxCell style="shape=image;noLabel=1;verticalAlign=top;aspect=fixed;imageAspect=0;image=data:image/svg+xml,PD94bWwgdmVyc2lvbj0iMS4wIiBlbmNvZGluZz0idXMtYXNjaWkiIHN0YW5kYWxvbmU9Im5vIj8+PHN2ZyB4bWxucz0iaHR0cDovL3d3dy53My5vcmcvMjAwMC9zdmciIHhtbG5zOnhsaW5rPSJodHRwOi8vd3d3LnczLm9yZy8xOTk5L3hsaW5rIiBjb250ZW50U3R5bGVUeXBlPSJ0ZXh0L2NzcyIgaGVpZ2h0PSIxMzY3cHgiIHByZXNlcnZlQXNwZWN0UmF0aW89Im5vbmUiIHN0eWxlPSJ3aWR0aDo2MDNweDtoZWlnaHQ6MTM2N3B4O2JhY2tncm91bmQ6I0ZGRkZGRjsiIHZlcnNpb249IjEuMSIgdmlld0JveD0iMCAwIDYwMyAxMzY3IiB3aWR0aD0iNjAzcHgiIHpvb21BbmRQYW49Im1hZ25pZnkiPjxkZWZzLz48Zz48cmVjdCBmaWxsPSIjRjFGMUYxIiBoZWlnaHQ9IjMyLjg0MzgiIHJ4PSIxMi41IiByeT0iMTIuNSIgc3R5bGU9InN0cm9rZTojMTgxODE4O3N0cm9rZS13aWR0aDowLjU7IiB3aWR0aD0iMTA2IiB4PSIzMDguNSIgeT0iMTEiLz48dGV4dCBmaWxsPSIjMDAwMDAwIiBmb250LWZhbWlseT0ic2Fucy1zZXJpZiIgZm9udC1zaXplPSIxMiIgbGVuZ3RoQWRqdXN0PSJzcGFjaW5nIiB0ZXh0TGVuZ3RoPSI4NiIgeD0iMzE4LjUiIHk9IjMyLjM0MzgiPlN0dWRlbnQgTG9naW48L3RleHQ+PHJlY3QgZmlsbD0iI0YxRjFGMSIgaGVpZ2h0PSIzMi44NDM4IiByeD0iMTIuNSIgcnk9IjEyLjUiIHN0eWxlPSJzdHJva2U6IzE4MTgxODtzdHJva2Utd2lkdGg6MC41OyIgd2lkdGg9IjE0MiIgeD0iMjkwLjUiIHk9IjYzLjg0MzgiLz48dGV4dCBmaWxsPSIjMDAwMDAwIiBmb250LWZhbWlseT0ic2Fucy1zZXJpZiIgZm9udC1zaXplPSIxMiIgbGVuZ3RoQWRqdXN0PSJzcGFjaW5nIiB0ZXh0TGVuZ3RoPSIxMjIiIHg9IjMwMC41IiB5PSI4NS4xODc1Ij5Vc2VybmFtZSwgUGFzc3dvcmQ8L3RleHQ+PHBvbHlnb24gZmlsbD0iI0YxRjFGMSIgcG9pbnRzPSIzMDcuNSwxMTYuNjg3NSw0MTUuNSwxMTYuNjg3NSw0MjcuNSwxMjguNjg3NSw0MTUuNSwxNDAuNjg3NSwzMDcuNSwxNDAuNjg3NSwyOTUuNSwxMjguNjg3NSwzMDcuNSwxMTYuNjg3NSIgc3R5bGU9InN0cm9rZTojMTgxODE4O3N0cm9rZS13aWR0aDowLjU7Ii8+PHRleHQgZmlsbD0iIzAwMDAwMCIgZm9udC1mYW1pbHk9InNhbnMtc2VyaWYiIGZvbnQtc2l6ZT0iMTEiIGxlbmd0aEFkanVzdD0ic3BhY2luZyIgdGV4dExlbmd0aD0iMTA4IiB4PSIzMDcuNSIgeT0iMTMzLjE5OTIiPlZhbGlkIENyZWRlbnRpYWxzPzwvdGV4dD48dGV4dCBmaWxsPSIjMDAwMDAwIiBmb250LWZhbWlseT0ic2Fucy1zZXJpZiIgZm9udC1zaXplPSIxMSIgbGVuZ3RoQWRqdXN0PSJzcGFjaW5nIiB0ZXh0TGVuZ3RoPSIxOCIgeD0iMjc3LjUiIHk9IjEyNy4zMTI1Ij55ZXM8L3RleHQ+PHRleHQgZmlsbD0iIzAwMDAwMCIgZm9udC1mYW1pbHk9InNhbnMtc2VyaWYiIGZvbnQtc2l6ZT0iMTEiIGxlbmd0aEFkanVzdD0ic3BhY2luZyIgdGV4dExlbmd0aD0iMTIiIHg9IjQyNy41IiB5PSIxMjcuMzEyNSI+bm88L3RleHQ+PHJlY3QgZmlsbD0iI0YxRjFGMSIgaGVpZ2h0PSIzMi44NDM4IiByeD0iMTIuNSIgcnk9IjEyLjUiIHN0eWxlPSJzdHJva2U6IzE4MTgxODtzdHJva2Utd2lkdGg6MC41OyIgd2lkdGg9IjE4MiIgeD0iMTc0LjUiIHk9IjE1MC42ODc1Ii8+PHRleHQgZmlsbD0iIzAwMDAwMCIgZm9udC1mYW1pbHk9InNhbnMtc2VyaWYiIGZvbnQtc2l6ZT0iMTIiIGxlbmd0aEFkanVzdD0ic3BhY2luZyIgdGV4dExlbmd0aD0iMTYyIiB4PSIxODQuNSIgeT0iMTcyLjAzMTMiPkFjY2VzcyBTdHVkZW50IERhc2hib2FyZDwvdGV4dD48cmVjdCBmaWxsPSIjRjFGMUYxIiBoZWlnaHQ9IjMyLjg0MzgiIHJ4PSIxMi41IiByeT0iMTIuNSIgc3R5bGU9InN0cm9rZTojMTgxODE4O3N0cm9rZS13aWR0aDowLjU7IiB3aWR0aD0iOTIiIHg9IjIxOS41IiB5PSIyMDMuNTMxMyIvPjx0ZXh0IGZpbGw9IiMwMDAwMDAiIGZvbnQtZmFtaWx5PSJzYW5zLXNlcmlmIiBmb250LXNpemU9IjEyIiBsZW5ndGhBZGp1c3Q9InNwYWNpbmciIHRleHRMZW5ndGg9IjcyIiB4PSIyMjkuNSIgeT0iMjI0Ljg3NSI+VmlldyBFdmVudHM8L3RleHQ+PHJlY3QgZmlsbD0iI0YxRjFGMSIgaGVpZ2h0PSIzMi44NDM4IiByeD0iMTIuNSIgcnk9IjEyLjUiIHN0eWxlPSJzdHJva2U6IzE4MTgxODtzdHJva2Utd2lkdGg6MC41OyIgd2lkdGg9IjEwNyIgeD0iMjEyIiB5PSIyNTYuMzc1Ii8+PHRleHQgZmlsbD0iIzAwMDAwMCIgZm9udC1mYW1pbHk9InNhbnMtc2VyaWYiIGZvbnQtc2l6ZT0iMTIiIGxlbmd0aEFkanVzdD0ic3BhY2luZyIgdGV4dExlbmd0aD0iODciIHg9IjIyMiIgeT0iMjc3LjcxODgiPlNlYXJjaCBFdmVudHM8L3RleHQ+PHJlY3QgZmlsbD0iI0YxRjFGMSIgaGVpZ2h0PSIzMi44NDM4IiByeD0iMTIuNSIgcnk9IjEyLjUiIHN0eWxlPSJzdHJva2U6IzE4MTgxODtzdHJva2Utd2lkdGg6MC41OyIgd2lkdGg9IjE0NiIgeD0iMTkyLjUiIHk9IjMwOS4yMTg4Ii8+PHRleHQgZmlsbD0iIzAwMDAwMCIgZm9udC1mYW1pbHk9InNhbnMtc2VyaWYiIGZvbnQtc2l6ZT0iMTIiIGxlbmd0aEFkanVzdD0ic3BhY2luZyIgdGV4dExlbmd0aD0iMTI2IiB4PSIyMDIuNSIgeT0iMzMwLjU2MjUiPlJlZ2lzdGVyIGZvciBFdmVudHM8L3RleHQ+PHJlY3QgZmlsbD0iI0YxRjFGMSIgaGVpZ2h0PSIzMi44NDM4IiByeD0iMTIuNSIgcnk9IjEyLjUiIHN0eWxlPSJzdHJva2U6IzE4MTgxODtzdHJva2Utd2lkdGg6MC41OyIgd2lkdGg9IjE2MiIgeD0iMzc2LjUiIHk9IjE1MC42ODc1Ii8+PHRleHQgZmlsbD0iIzAwMDAwMCIgZm9udC1mYW1pbHk9InNhbnMtc2VyaWYiIGZvbnQtc2l6ZT0iMTIiIGxlbmd0aEFkanVzdD0ic3BhY2luZyIgdGV4dExlbmd0aD0iMTQyIiB4PSIzODYuNSIgeT0iMTcyLjAzMTMiPkRpc3BsYXkgRXJyb3IgTWVzc2FnZTwvdGV4dD48cG9seWdvbiBmaWxsPSIjRjFGMUYxIiBwb2ludHM9IjM2MS41LDM0OC4wNjI1LDM3My41LDM2MC4wNjI1LDM2MS41LDM3Mi4wNjI1LDM0OS41LDM2MC4wNjI1LDM2MS41LDM0OC4wNjI1IiBzdHlsZT0ic3Ryb2tlOiMxODE4MTg7c3Ryb2tlLXdpZHRoOjAuNTsiLz48cmVjdCBmaWxsPSIjRjFGMUYxIiBoZWlnaHQ9IjMyLjg0MzgiIHJ4PSIxMi41IiByeT0iMTIuNSIgc3R5bGU9InN0cm9rZTojMTgxODE4O3N0cm9rZS13aWR0aDowLjU7IiB3aWR0aD0iMTA2IiB4PSIzMDguNSIgeT0iMzkyLjA2MjUiLz48dGV4dCBmaWxsPSIjMDAwMDAwIiBmb250LWZhbWlseT0ic2Fucy1zZXJpZiIgZm9udC1zaXplPSIxMiIgbGVuZ3RoQWRqdXN0PSJzcGFjaW5nIiB0ZXh0TGVuZ3RoPSI4NiIgeD0iMzE4LjUiIHk9IjQxMy40MDYzIj5Db2xsZWdlIExvZ2luPC90ZXh0PjxyZWN0IGZpbGw9IiNGMUYxRjEiIGhlaWdodD0iMzIuODQzOCIgcng9IjEyLjUiIHJ5PSIxMi41IiBzdHlsZT0ic3Ryb2tlOiMxODE4MTg7c3Ryb2tlLXdpZHRoOjAuNTsiIHdpZHRoPSIxNDciIHg9IjI4OCIgeT0iNDQ0LjkwNjMiLz48dGV4dCBmaWxsPSIjMDAwMDAwIiBmb250LWZhbWlseT0ic2Fucy1zZXJpZiIgZm9udC1zaXplPSIxMiIgbGVuZ3RoQWRqdXN0PSJzcGFjaW5nIiB0ZXh0TGVuZ3RoPSIxMjciIHg9IjI5OCIgeT0iNDY2LjI1Ij5Db2xsZWdlSUQsIFBhc3N3b3JkPC90ZXh0Pjxwb2x5Z29uIGZpbGw9IiNGMUYxRjEiIHBvaW50cz0iMzA3LjUsNDk3Ljc1LDQxNS41LDQ5Ny43NSw0MjcuNSw1MDkuNzUsNDE1LjUsNTIxLjc1LDMwNy41LDUyMS43NSwyOTUuNSw1MDkuNzUsMzA3LjUsNDk3Ljc1IiBzdHlsZT0ic3Ryb2tlOiMxODE4MTg7c3Ryb2tlLXdpZHRoOjAuNTsiLz48dGV4dCBmaWxsPSIjMDAwMDAwIiBmb250LWZhbWlseT0ic2Fucy1zZXJpZiIgZm9udC1zaXplPSIxMSIgbGVuZ3RoQWRqdXN0PSJzcGFjaW5nIiB0ZXh0TGVuZ3RoPSIxMDgiIHg9IjMwNy41IiB5PSI1MTQuMjYxNyI+VmFsaWQgQ3JlZGVudGlhbHM/PC90ZXh0Pjx0ZXh0IGZpbGw9IiMwMDAwMDAiIGZvbnQtZmFtaWx5PSJzYW5zLXNlcmlmIiBmb250LXNpemU9IjExIiBsZW5ndGhBZGp1c3Q9InNwYWNpbmciIHRleHRMZW5ndGg9IjE4IiB4PSIyNzcuNSIgeT0iNTA4LjM3NSI+eWVzPC90ZXh0Pjx0ZXh0IGZpbGw9IiMwMDAwMDAiIGZvbnQtZmFtaWx5PSJzYW5zLXNlcmlmIiBmb250LXNpemU9IjExIiBsZW5ndGhBZGp1c3Q9InNwYWNpbmciIHRleHRMZW5ndGg9IjEyIiB4PSI0MjcuNSIgeT0iNTA4LjM3NSI+bm88L3RleHQ+PHJlY3QgZmlsbD0iI0YxRjFGMSIgaGVpZ2h0PSIzMi44NDM4IiByeD0iMTIuNSIgcnk9IjEyLjUiIHN0eWxlPSJzdHJva2U6IzE4MTgxODtzdHJva2Utd2lkdGg6MC41OyIgd2lkdGg9IjE4MiIgeD0iMTcxLjc1IiB5PSI1MzEuNzUiLz48dGV4dCBmaWxsPSIjMDAwMDAwIiBmb250LWZhbWlseT0ic2Fucy1zZXJpZiIgZm9udC1zaXplPSIxMiIgbGVuZ3RoQWRqdXN0PSJzcGFjaW5nIiB0ZXh0TGVuZ3RoPSIxNjIiIHg9IjE4MS43NSIgeT0iNTUzLjA5MzgiPkFjY2VzcyBDb2xsZWdlIERhc2hib2FyZDwvdGV4dD48cmVjdCBmaWxsPSIjRjFGMUYxIiBoZWlnaHQ9IjMyLjg0MzgiIHJ4PSIxMi41IiByeT0iMTIuNSIgc3R5bGU9InN0cm9rZTojMTgxODE4O3N0cm9rZS13aWR0aDowLjU7IiB3aWR0aD0iOTIiIHg9IjIxNi43NSIgeT0iNTg0LjU5MzgiLz48dGV4dCBmaWxsPSIjMDAwMDAwIiBmb250LWZhbWlseT0ic2Fucy1zZXJpZiIgZm9udC1zaXplPSIxMiIgbGVuZ3RoQWRqdXN0PSJzcGFjaW5nIiB0ZXh0TGVuZ3RoPSI3MiIgeD0iMjI2Ljc1IiB5PSI2MDUuOTM3NSI+VmlldyBFdmVudHM8L3RleHQ+PHJlY3QgZmlsbD0iI0YxRjFGMSIgaGVpZ2h0PSIzMi44NDM4IiByeD0iMTIuNSIgcnk9IjEyLjUiIHN0eWxlPSJzdHJva2U6IzE4MTgxODtzdHJva2Utd2lkdGg6MC41OyIgd2lkdGg9IjEwNyIgeD0iMjA5LjI1IiB5PSI2MzcuNDM3NSIvPjx0ZXh0IGZpbGw9IiMwMDAwMDAiIGZvbnQtZmFtaWx5PSJzYW5zLXNlcmlmIiBmb250LXNpemU9IjEyIiBsZW5ndGhBZGp1c3Q9InNwYWNpbmciIHRleHRMZW5ndGg9Ijg3IiB4PSIyMTkuMjUiIHk9IjY1OC43ODEzIj5TZWFyY2ggRXZlbnRzPC90ZXh0PjxyZWN0IGZpbGw9IiNGMUYxRjEiIGhlaWdodD0iMzIuODQzOCIgcng9IjEyLjUiIHJ5PSIxMi41IiBzdHlsZT0ic3Ryb2tlOiMxODE4MTg7c3Ryb2tlLXdpZHRoOjAuNTsiIHdpZHRoPSIxOTMiIHg9IjE2Ni4yNSIgeT0iNjkwLjI4MTMiLz48dGV4dCBmaWxsPSIjMDAwMDAwIiBmb250LWZhbWlseT0ic2Fucy1zZXJpZiIgZm9udC1zaXplPSIxMiIgbGVuZ3RoQWRqdXN0PSJzcGFjaW5nIiB0ZXh0TGVuZ3RoPSIxNzMiIHg9IjE3Ni4yNSIgeT0iNzExLjYyNSI+UmVxdWVzdCBFdmVudCBSZWdpc3RyYXRpb248L3RleHQ+PHJlY3QgZmlsbD0iI0YxRjFGMSIgaGVpZ2h0PSIzMi44NDM4IiByeD0iMTIuNSIgcnk9IjEyLjUiIHN0eWxlPSJzdHJva2U6IzE4MTgxODtzdHJva2Utd2lkdGg6MC41OyIgd2lkdGg9IjE2MiIgeD0iMzc5LjI1IiB5PSI1MzEuNzUiLz48dGV4dCBmaWxsPSIjMDAwMDAwIiBmb250LWZhbWlseT0ic2Fucy1zZXJpZiIgZm9udC1zaXplPSIxMiIgbGVuZ3RoQWRqdXN0PSJzcGFjaW5nIiB0ZXh0TGVuZ3RoPSIxNDIiIHg9IjM4OS4yNSIgeT0iNTUzLjA5MzgiPkRpc3BsYXkgRXJyb3IgTWVzc2FnZTwvdGV4dD48cG9seWdvbiBmaWxsPSIjRjFGMUYxIiBwb2ludHM9IjM2MS41LDcyOS4xMjUsMzczLjUsNzQxLjEyNSwzNjEuNSw3NTMuMTI1LDM0OS41LDc0MS4xMjUsMzYxLjUsNzI5LjEyNSIgc3R5bGU9InN0cm9rZTojMTgxODE4O3N0cm9rZS13aWR0aDowLjU7Ii8+PHJlY3QgZmlsbD0iI0YxRjFGMSIgaGVpZ2h0PSIzMi44NDM4IiByeD0iMTIuNSIgcnk9IjEyLjUiIHN0eWxlPSJzdHJva2U6IzE4MTgxODtzdHJva2Utd2lkdGg6MC41OyIgd2lkdGg9IjkyIiB4PSIzMTUuNSIgeT0iNzczLjEyNSIvPjx0ZXh0IGZpbGw9IiMwMDAwMDAiIGZvbnQtZmFtaWx5PSJzYW5zLXNlcmlmIiBmb250LXNpemU9IjEyIiBsZW5ndGhBZGp1c3Q9InNwYWNpbmciIHRleHRMZW5ndGg9IjcyIiB4PSIzMjUuNSIgeT0iNzk0LjQ2ODgiPkFkbWluIExvZ2luPC90ZXh0PjxyZWN0IGZpbGw9IiNGMUYxRjEiIGhlaWdodD0iMzIuODQzOCIgcng9IjEyLjUiIHJ5PSIxMi41IiBzdHlsZT0ic3Ryb2tlOiMxODE4MTg7c3Ryb2tlLXdpZHRoOjAuNTsiIHdpZHRoPSIxNDIiIHg9IjI5MC41IiB5PSI4MjUuOTY4OCIvPjx0ZXh0IGZpbGw9IiMwMDAwMDAiIGZvbnQtZmFtaWx5PSJzYW5zLXNlcmlmIiBmb250LXNpemU9IjEyIiBsZW5ndGhBZGp1c3Q9InNwYWNpbmciIHRleHRMZW5ndGg9IjEyMiIgeD0iMzAwLjUiIHk9Ijg0Ny4zMTI1Ij5Vc2VybmFtZSwgUGFzc3dvcmQ8L3RleHQ+PHBvbHlnb24gZmlsbD0iI0YxRjFGMSIgcG9pbnRzPSIzMDcuNSw4NzguODEyNSw0MTUuNSw4NzguODEyNSw0MjcuNSw4OTAuODEyNSw0MTUuNSw5MDIuODEyNSwzMDcuNSw5MDIuODEyNSwyOTUuNSw4OTAuODEyNSwzMDcuNSw4NzguODEyNSIgc3R5bGU9InN0cm9rZTojMTgxODE4O3N0cm9rZS13aWR0aDowLjU7Ii8+PHRleHQgZmlsbD0iIzAwMDAwMCIgZm9udC1mYW1pbHk9InNhbnMtc2VyaWYiIGZvbnQtc2l6ZT0iMTEiIGxlbmd0aEFkanVzdD0ic3BhY2luZyIgdGV4dExlbmd0aD0iMTA4IiB4PSIzMDcuNSIgeT0iODk1LjMyNDIiPlZhbGlkIENyZWRlbnRpYWxzPzwvdGV4dD48dGV4dCBmaWxsPSIjMDAwMDAwIiBmb250LWZhbWlseT0ic2Fucy1zZXJpZiIgZm9udC1zaXplPSIxMSIgbGVuZ3RoQWRqdXN0PSJzcGFjaW5nIiB0ZXh0TGVuZ3RoPSIxOCIgeD0iMjc3LjUiIHk9Ijg4OS40Mzc1Ij55ZXM8L3RleHQ+PHRleHQgZmlsbD0iIzAwMDAwMCIgZm9udC1mYW1pbHk9InNhbnMtc2VyaWYiIGZvbnQtc2l6ZT0iMTEiIGxlbmd0aEFkanVzdD0ic3BhY2luZyIgdGV4dExlbmd0aD0iMTIiIHg9IjQyNy41IiB5PSI4ODkuNDM3NSI+bm88L3RleHQ+PHJlY3QgZmlsbD0iI0YxRjFGMSIgaGVpZ2h0PSIzMi44NDM4IiByeD0iMTIuNSIgcnk9IjEyLjUiIHN0eWxlPSJzdHJva2U6IzE4MTgxODtzdHJva2Utd2lkdGg6MC41OyIgd2lkdGg9IjE2OCIgeD0iMTI3LjUiIHk9IjkxMi44MTI1Ii8+PHRleHQgZmlsbD0iIzAwMDAwMCIgZm9udC1mYW1pbHk9InNhbnMtc2VyaWYiIGZvbnQtc2l6ZT0iMTIiIGxlbmd0aEFkanVzdD0ic3BhY2luZyIgdGV4dExlbmd0aD0iMTQ4IiB4PSIxMzcuNSIgeT0iOTM0LjE1NjMiPkFjY2VzcyBBZG1pbiBEYXNoYm9hcmQ8L3RleHQ+PHJlY3QgZmlsbD0iI0YxRjFGMSIgaGVpZ2h0PSIzMi44NDM4IiByeD0iMTIuNSIgcnk9IjEyLjUiIHN0eWxlPSJzdHJva2U6IzE4MTgxODtzdHJva2Utd2lkdGg6MC41OyIgd2lkdGg9IjkyIiB4PSIxNjUuNSIgeT0iOTY1LjY1NjMiLz48dGV4dCBmaWxsPSIjMDAwMDAwIiBmb250LWZhbWlseT0ic2Fucy1zZXJpZiIgZm9udC1zaXplPSIxMiIgbGVuZ3RoQWRqdXN0PSJzcGFjaW5nIiB0ZXh0TGVuZ3RoPSI3MiIgeD0iMTc1LjUiIHk9Ijk4NyI+VmlldyBFdmVudHM8L3RleHQ+PHJlY3QgZmlsbD0iI0YxRjFGMSIgaGVpZ2h0PSIzMi44NDM4IiByeD0iMTIuNSIgcnk9IjEyLjUiIHN0eWxlPSJzdHJva2U6IzE4MTgxODtzdHJva2Utd2lkdGg6MC41OyIgd2lkdGg9IjEwNyIgeD0iMTU4IiB5PSIxMDE4LjUiLz48dGV4dCBmaWxsPSIjMDAwMDAwIiBmb250LWZhbWlseT0ic2Fucy1zZXJpZiIgZm9udC1zaXplPSIxMiIgbGVuZ3RoQWRqdXN0PSJzcGFjaW5nIiB0ZXh0TGVuZ3RoPSI4NyIgeD0iMTY4IiB5PSIxMDM5Ljg0MzgiPlNlYXJjaCBFdmVudHM8L3RleHQ+PHBvbHlnb24gZmlsbD0iI0YxRjFGMSIgcG9pbnRzPSIxMzAuNSwxMDcxLjM0MzgsMjkyLjUsMTA3MS4zNDM4LDMwNC41LDEwODMuMzQzOCwyOTIuNSwxMDk1LjM0MzgsMTMwLjUsMTA5NS4zNDM4LDExOC41LDEwODMuMzQzOCwxMzAuNSwxMDcxLjM0MzgiIHN0eWxlPSJzdHJva2U6IzE4MTgxODtzdHJva2Utd2lkdGg6MC41OyIvPjx0ZXh0IGZpbGw9IiMwMDAwMDAiIGZvbnQtZmFtaWx5PSJzYW5zLXNlcmlmIiBmb250LXNpemU9IjExIiBsZW5ndGhBZGp1c3Q9InNwYWNpbmciIHRleHRMZW5ndGg9IjE2MiIgeD0iMTMwLjUiIHk9IjEwODcuODU1NSI+RXZlbnQgUmVnaXN0cmF0aW9uIFJlcXVlc3Q/PC90ZXh0Pjx0ZXh0IGZpbGw9IiMwMDAwMDAiIGZvbnQtZmFtaWx5PSJzYW5zLXNlcmlmIiBmb250LXNpemU9IjExIiBsZW5ndGhBZGp1c3Q9InNwYWNpbmciIHRleHRMZW5ndGg9IjE4IiB4PSIxMDAuNSIgeT0iMTA4MS45Njg4Ij55ZXM8L3RleHQ+PHRleHQgZmlsbD0iIzAwMDAwMCIgZm9udC1mYW1pbHk9InNhbnMtc2VyaWYiIGZvbnQtc2l6ZT0iMTEiIGxlbmd0aEFkanVzdD0ic3BhY2luZyIgdGV4dExlbmd0aD0iMTIiIHg9IjMwNC41IiB5PSIxMDgxLjk2ODgiPm5vPC90ZXh0PjxyZWN0IGZpbGw9IiNGMUYxRjEiIGhlaWdodD0iMzIuODQzOCIgcng9IjEyLjUiIHJ5PSIxMi41IiBzdHlsZT0ic3Ryb2tlOiMxODE4MTg7c3Ryb2tlLXdpZHRoOjAuNTsiIHdpZHRoPSIxOTUiIHg9IjExIiB5PSIxMTA1LjM0MzgiLz48dGV4dCBmaWxsPSIjMDAwMDAwIiBmb250LWZhbWlseT0ic2Fucy1zZXJpZiIgZm9udC1zaXplPSIxMiIgbGVuZ3RoQWRqdXN0PSJzcGFjaW5nIiB0ZXh0TGVuZ3RoPSIxNzUiIHg9IjIxIiB5PSIxMTI2LjY4NzUiPkFwcHJvdmUgb3IgRGVjbGluZSBSZXF1ZXN0PC90ZXh0PjxyZWN0IGZpbGw9IiNGMUYxRjEiIGhlaWdodD0iMzIuODQzOCIgcng9IjEyLjUiIHJ5PSIxMi41IiBzdHlsZT0ic3Ryb2tlOiMxODE4MTg7c3Ryb2tlLXdpZHRoOjAuNTsiIHdpZHRoPSIxNzIiIHg9IjIyOC41IiB5PSIxMTA1LjM0MzgiLz48dGV4dCBmaWxsPSIjMDAwMDAwIiBmb250LWZhbWlseT0ic2Fucy1zZXJpZiIgZm9udC1zaXplPSIxMiIgbGVuZ3RoQWRqdXN0PSJzcGFjaW5nIiB0ZXh0TGVuZ3RoPSIxNTIiIHg9IjIzOC41IiB5PSIxMTI2LjY4NzUiPkNvbnRpbnVlIFZpZXdpbmcgRXZlbnRzPC90ZXh0Pjxwb2x5Z29uIGZpbGw9IiNGMUYxRjEiIHBvaW50cz0iMjExLjUsMTE0NC4xODc1LDIyMy41LDExNTYuMTg3NSwyMTEuNSwxMTY4LjE4NzUsMTk5LjUsMTE1Ni4xODc1LDIxMS41LDExNDQuMTg3NSIgc3R5bGU9InN0cm9rZTojMTgxODE4O3N0cm9rZS13aWR0aDowLjU7Ii8+PHJlY3QgZmlsbD0iI0YxRjFGMSIgaGVpZ2h0PSIzMi44NDM4IiByeD0iMTIuNSIgcnk9IjEyLjUiIHN0eWxlPSJzdHJva2U6IzE4MTgxODtzdHJva2Utd2lkdGg6MC41OyIgd2lkdGg9IjE2MiIgeD0iNDMwLjUiIHk9IjkxMi44MTI1Ii8+PHRleHQgZmlsbD0iIzAwMDAwMCIgZm9udC1mYW1pbHk9InNhbnMtc2VyaWYiIGZvbnQtc2l6ZT0iMTIiIGxlbmd0aEFkanVzdD0ic3BhY2luZyIgdGV4dExlbmd0aD0iMTQyIiB4PSI0NDAuNSIgeT0iOTM0LjE1NjMiPkRpc3BsYXkgRXJyb3IgTWVzc2FnZTwvdGV4dD48cG9seWdvbiBmaWxsPSIjRjFGMUYxIiBwb2ludHM9IjM2MS41LDExNzQuMTg3NSwzNzMuNSwxMTg2LjE4NzUsMzYxLjUsMTE5OC4xODc1LDM0OS41LDExODYuMTg3NSwzNjEuNSwxMTc0LjE4NzUiIHN0eWxlPSJzdHJva2U6IzE4MTgxODtzdHJva2Utd2lkdGg6MC41OyIvPjxyZWN0IGZpbGw9IiNGMUYxRjEiIGhlaWdodD0iMzIuODQzOCIgcng9IjEyLjUiIHJ5PSIxMi41IiBzdHlsZT0ic3Ryb2tlOiMxODE4MTg7c3Ryb2tlLXdpZHRoOjAuNTsiIHdpZHRoPSIxMDAiIHg9IjMxMS41IiB5PSIxMjE4LjE4NzUiLz48dGV4dCBmaWxsPSIjMDAwMDAwIiBmb250LWZhbWlseT0ic2Fucy1zZXJpZiIgZm9udC1zaXplPSIxMiIgbGVuZ3RoQWRqdXN0PSJzcGFjaW5nIiB0ZXh0TGVuZ3RoPSI4MCIgeD0iMzIxLjUiIHk9IjEyMzkuNTMxMyI+R3Vlc3QgQWNjZXNzPC90ZXh0PjxyZWN0IGZpbGw9IiNGMUYxRjEiIGhlaWdodD0iMzIuODQzOCIgcng9IjEyLjUiIHJ5PSIxMi41IiBzdHlsZT0ic3Ryb2tlOiMxODE4MTg7c3Ryb2tlLXdpZHRoOjAuNTsiIHdpZHRoPSI5MiIgeD0iMzE1LjUiIHk9IjEyNzEuMDMxMyIvPjx0ZXh0IGZpbGw9IiMwMDAwMDAiIGZvbnQtZmFtaWx5PSJzYW5zLXNlcmlmIiBmb250LXNpemU9IjEyIiBsZW5ndGhBZGp1c3Q9InNwYWNpbmciIHRleHRMZW5ndGg9IjcyIiB4PSIzMjUuNSIgeT0iMTI5Mi4zNzUiPlZpZXcgRXZlbnRzPC90ZXh0PjxyZWN0IGZpbGw9IiNGMUYxRjEiIGhlaWdodD0iMzIuODQzOCIgcng9IjEyLjUiIHJ5PSIxMi41IiBzdHlsZT0ic3Ryb2tlOiMxODE4MTg7c3Ryb2tlLXdpZHRoOjAuNTsiIHdpZHRoPSIxMDciIHg9IjMwOCIgeT0iMTMyMy44NzUiLz48dGV4dCBmaWxsPSIjMDAwMDAwIiBmb250LWZhbWlseT0ic2Fucy1zZXJpZiIgZm9udC1zaXplPSIxMiIgbGVuZ3RoQWRqdXN0PSJzcGFjaW5nIiB0ZXh0TGVuZ3RoPSI4NyIgeD0iMzE4IiB5PSIxMzQ1LjIxODgiPlNlYXJjaCBFdmVudHM8L3RleHQ+PGxpbmUgc3R5bGU9InN0cm9rZTojMTgxODE4O3N0cm9rZS13aWR0aDoxLjA7IiB4MT0iMzYxLjUiIHgyPSIzNjEuNSIgeTE9IjQzLjg0MzgiIHkyPSI2My44NDM4Ii8+PHBvbHlnb24gZmlsbD0iIzE4MTgxOCIgcG9pbnRzPSIzNTcuNSw1My44NDM4LDM2MS41LDYzLjg0MzgsMzY1LjUsNTMuODQzOCwzNjEuNSw1Ny44NDM4IiBzdHlsZT0ic3Ryb2tlOiMxODE4MTg7c3Ryb2tlLXdpZHRoOjEuMDsiLz48bGluZSBzdHlsZT0ic3Ryb2tlOiMxODE4MTg7c3Ryb2tlLXdpZHRoOjEuMDsiIHgxPSIyNjUuNSIgeDI9IjI2NS41IiB5MT0iMTgzLjUzMTMiIHkyPSIyMDMuNTMxMyIvPjxwb2x5Z29uIGZpbGw9IiMxODE4MTgiIHBvaW50cz0iMjYxLjUsMTkzLjUzMTMsMjY1LjUsMjAzLjUzMTMsMjY5LjUsMTkzLjUzMTMsMjY1LjUsMTk3LjUzMTMiIHN0eWxlPSJzdHJva2U6IzE4MTgxODtzdHJva2Utd2lkdGg6MS4wOyIvPjxsaW5lIHN0eWxlPSJzdHJva2U6IzE4MTgxODtzdHJva2Utd2lkdGg6MS4wOyIgeDE9IjI2NS41IiB4Mj0iMjY1LjUiIHkxPSIyMzYuMzc1IiB5Mj0iMjU2LjM3NSIvPjxwb2x5Z29uIGZpbGw9IiMxODE4MTgiIHBvaW50cz0iMjYxLjUsMjQ2LjM3NSwyNjUuNSwyNTYuMzc1LDI2OS41LDI0Ni4zNzUsMjY1LjUsMjUwLjM3NSIgc3R5bGU9InN0cm9rZTojMTgxODE4O3N0cm9rZS13aWR0aDoxLjA7Ii8+PGxpbmUgc3R5bGU9InN0cm9rZTojMTgxODE4O3N0cm9rZS13aWR0aDoxLjA7IiB4MT0iMjY1LjUiIHgyPSIyNjUuNSIgeTE9IjI4OS4yMTg4IiB5Mj0iMzA5LjIxODgiLz48cG9seWdvbiBmaWxsPSIjMTgxODE4IiBwb2ludHM9IjI2MS41LDI5OS4yMTg4LDI2NS41LDMwOS4yMTg4LDI2OS41LDI5OS4yMTg4LDI2NS41LDMwMy4yMTg4IiBzdHlsZT0ic3Ryb2tlOiMxODE4MTg7c3Ryb2tlLXdpZHRoOjEuMDsiLz48bGluZSBzdHlsZT0ic3Ryb2tlOiMxODE4MTg7c3Ryb2tlLXdpZHRoOjEuMDsiIHgxPSIyOTUuNSIgeDI9IjI2NS41IiB5MT0iMTI4LjY4NzUiIHkyPSIxMjguNjg3NSIvPjxsaW5lIHN0eWxlPSJzdHJva2U6IzE4MTgxODtzdHJva2Utd2lkdGg6MS4wOyIgeDE9IjI2NS41IiB4Mj0iMjY1LjUiIHkxPSIxMjguNjg3NSIgeTI9IjE1MC42ODc1Ii8+PHBvbHlnb24gZmlsbD0iIzE4MTgxOCIgcG9pbnRzPSIyNjEuNSwxNDAuNjg3NSwyNjUuNSwxNTAuNjg3NSwyNjkuNSwxNDAuNjg3NSwyNjUuNSwxNDQuNjg3NSIgc3R5bGU9InN0cm9rZTojMTgxODE4O3N0cm9rZS13aWR0aDoxLjA7Ii8+PGxpbmUgc3R5bGU9InN0cm9rZTojMTgxODE4O3N0cm9rZS13aWR0aDoxLjA7IiB4MT0iNDI3LjUiIHgyPSI0NTcuNSIgeTE9IjEyOC42ODc1IiB5Mj0iMTI4LjY4NzUiLz48bGluZSBzdHlsZT0ic3Ryb2tlOiMxODE4MTg7c3Ryb2tlLXdpZHRoOjEuMDsiIHgxPSI0NTcuNSIgeDI9IjQ1Ny41IiB5MT0iMTI4LjY4NzUiIHkyPSIxNTAuNjg3NSIvPjxwb2x5Z29uIGZpbGw9IiMxODE4MTgiIHBvaW50cz0iNDUzLjUsMTQwLjY4NzUsNDU3LjUsMTUwLjY4NzUsNDYxLjUsMTQwLjY4NzUsNDU3LjUsMTQ0LjY4NzUiIHN0eWxlPSJzdHJva2U6IzE4MTgxODtzdHJva2Utd2lkdGg6MS4wOyIvPjxsaW5lIHN0eWxlPSJzdHJva2U6IzE4MTgxODtzdHJva2Utd2lkdGg6MS4wOyIgeDE9IjI2NS41IiB4Mj0iMjY1LjUiIHkxPSIzNDIuMDYyNSIgeTI9IjM2MC4wNjI1Ii8+PGxpbmUgc3R5bGU9InN0cm9rZTojMTgxODE4O3N0cm9rZS13aWR0aDoxLjA7IiB4MT0iMjY1LjUiIHgyPSIzNDkuNSIgeTE9IjM2MC4wNjI1IiB5Mj0iMzYwLjA2MjUiLz48cG9seWdvbiBmaWxsPSIjMTgxODE4IiBwb2ludHM9IjMzOS41LDM1Ni4wNjI1LDM0OS41LDM2MC4wNjI1LDMzOS41LDM2NC4wNjI1LDM0My41LDM2MC4wNjI1IiBzdHlsZT0ic3Ryb2tlOiMxODE4MTg7c3Ryb2tlLXdpZHRoOjEuMDsiLz48bGluZSBzdHlsZT0ic3Ryb2tlOiMxODE4MTg7c3Ryb2tlLXdpZHRoOjEuMDsiIHgxPSI0NTcuNSIgeDI9IjQ1Ny41IiB5MT0iMTgzLjUzMTMiIHkyPSIzNjAuMDYyNSIvPjxsaW5lIHN0eWxlPSJzdHJva2U6IzE4MTgxODtzdHJva2Utd2lkdGg6MS4wOyIgeDE9IjQ1Ny41IiB4Mj0iMzczLjUiIHkxPSIzNjAuMDYyNSIgeTI9IjM2MC4wNjI1Ii8+PHBvbHlnb24gZmlsbD0iIzE4MTgxOCIgcG9pbnRzPSIzODMuNSwzNTYuMDYyNSwzNzMuNSwzNjAuMDYyNSwzODMuNSwzNjQuMDYyNSwzNzkuNSwzNjAuMDYyNSIgc3R5bGU9InN0cm9rZTojMTgxODE4O3N0cm9rZS13aWR0aDoxLjA7Ii8+PGxpbmUgc3R5bGU9InN0cm9rZTojMTgxODE4O3N0cm9rZS13aWR0aDoxLjA7IiB4MT0iMzYxLjUiIHgyPSIzNjEuNSIgeTE9Ijk2LjY4NzUiIHkyPSIxMTYuNjg3NSIvPjxwb2x5Z29uIGZpbGw9IiMxODE4MTgiIHBvaW50cz0iMzU3LjUsMTA2LjY4NzUsMzYxLjUsMTE2LjY4NzUsMzY1LjUsMTA2LjY4NzUsMzYxLjUsMTEwLjY4NzUiIHN0eWxlPSJzdHJva2U6IzE4MTgxODtzdHJva2Utd2lkdGg6MS4wOyIvPjxsaW5lIHN0eWxlPSJzdHJva2U6IzE4MTgxODtzdHJva2Utd2lkdGg6MS4wOyIgeDE9IjM2MS41IiB4Mj0iMzYxLjUiIHkxPSIzNzIuMDYyNSIgeTI9IjM5Mi4wNjI1Ii8+PHBvbHlnb24gZmlsbD0iIzE4MTgxOCIgcG9pbnRzPSIzNTcuNSwzODIuMDYyNSwzNjEuNSwzOTIuMDYyNSwzNjUuNSwzODIuMDYyNSwzNjEuNSwzODYuMDYyNSIgc3R5bGU9InN0cm9rZTojMTgxODE4O3N0cm9rZS13aWR0aDoxLjA7Ii8+PGxpbmUgc3R5bGU9InN0cm9rZTojMTgxODE4O3N0cm9rZS13aWR0aDoxLjA7IiB4MT0iMzYxLjUiIHgyPSIzNjEuNSIgeTE9IjQyNC45MDYzIiB5Mj0iNDQ0LjkwNjMiLz48cG9seWdvbiBmaWxsPSIjMTgxODE4IiBwb2ludHM9IjM1Ny41LDQzNC45MDYzLDM2MS41LDQ0NC45MDYzLDM2NS41LDQzNC45MDYzLDM2MS41LDQzOC45MDYzIiBzdHlsZT0ic3Ryb2tlOiMxODE4MTg7c3Ryb2tlLXdpZHRoOjEuMDsiLz48bGluZSBzdHlsZT0ic3Ryb2tlOiMxODE4MTg7c3Ryb2tlLXdpZHRoOjEuMDsiIHgxPSIyNjIuNzUiIHgyPSIyNjIuNzUiIHkxPSI1NjQuNTkzOCIgeTI9IjU4NC41OTM4Ii8+PHBvbHlnb24gZmlsbD0iIzE4MTgxOCIgcG9pbnRzPSIyNTguNzUsNTc0LjU5MzgsMjYyLjc1LDU4NC41OTM4LDI2Ni43NSw1NzQuNTkzOCwyNjIuNzUsNTc4LjU5MzgiIHN0eWxlPSJzdHJva2U6IzE4MTgxODtzdHJva2Utd2lkdGg6MS4wOyIvPjxsaW5lIHN0eWxlPSJzdHJva2U6IzE4MTgxODtzdHJva2Utd2lkdGg6MS4wOyIgeDE9IjI2Mi43NSIgeDI9IjI2Mi43NSIgeTE9IjYxNy40Mzc1IiB5Mj0iNjM3LjQzNzUiLz48cG9seWdvbiBmaWxsPSIjMTgxODE4IiBwb2ludHM9IjI1OC43NSw2MjcuNDM3NSwyNjIuNzUsNjM3LjQzNzUsMjY2Ljc1LDYyNy40Mzc1LDI2Mi43NSw2MzEuNDM3NSIgc3R5bGU9InN0cm9rZTojMTgxODE4O3N0cm9rZS13aWR0aDoxLjA7Ii8+PGxpbmUgc3R5bGU9InN0cm9rZTojMTgxODE4O3N0cm9rZS13aWR0aDoxLjA7IiB4MT0iMjYyLjc1IiB4Mj0iMjYyLjc1IiB5MT0iNjcwLjI4MTMiIHkyPSI2OTAuMjgxMyIvPjxwb2x5Z29uIGZpbGw9IiMxODE4MTgiIHBvaW50cz0iMjU4Ljc1LDY4MC4yODEzLDI2Mi43NSw2OTAuMjgxMywyNjYuNzUsNjgwLjI4MTMsMjYyLjc1LDY4NC4yODEzIiBzdHlsZT0ic3Ryb2tlOiMxODE4MTg7c3Ryb2tlLXdpZHRoOjEuMDsiLz48bGluZSBzdHlsZT0ic3Ryb2tlOiMxODE4MTg7c3Ryb2tlLXdpZHRoOjEuMDsiIHgxPSIyOTUuNSIgeDI9IjI2Mi43NSIgeTE9IjUwOS43NSIgeTI9IjUwOS43NSIvPjxsaW5lIHN0eWxlPSJzdHJva2U6IzE4MTgxODtzdHJva2Utd2lkdGg6MS4wOyIgeDE9IjI2Mi43NSIgeDI9IjI2Mi43NSIgeTE9IjUwOS43NSIgeTI9IjUzMS43NSIvPjxwb2x5Z29uIGZpbGw9IiMxODE4MTgiIHBvaW50cz0iMjU4Ljc1LDUyMS43NSwyNjIuNzUsNTMxLjc1LDI2Ni43NSw1MjEuNzUsMjYyLjc1LDUyNS43NSIgc3R5bGU9InN0cm9rZTojMTgxODE4O3N0cm9rZS13aWR0aDoxLjA7Ii8+PGxpbmUgc3R5bGU9InN0cm9rZTojMTgxODE4O3N0cm9rZS13aWR0aDoxLjA7IiB4MT0iNDI3LjUiIHgyPSI0NjAuMjUiIHkxPSI1MDkuNzUiIHkyPSI1MDkuNzUiLz48bGluZSBzdHlsZT0ic3Ryb2tlOiMxODE4MTg7c3Ryb2tlLXdpZHRoOjEuMDsiIHgxPSI0NjAuMjUiIHgyPSI0NjAuMjUiIHkxPSI1MDkuNzUiIHkyPSI1MzEuNzUiLz48cG9seWdvbiBmaWxsPSIjMTgxODE4IiBwb2ludHM9IjQ1Ni4yNSw1MjEuNzUsNDYwLjI1LDUzMS43NSw0NjQuMjUsNTIxLjc1LDQ2MC4yNSw1MjUuNzUiIHN0eWxlPSJzdHJva2U6IzE4MTgxODtzdHJva2Utd2lkdGg6MS4wOyIvPjxsaW5lIHN0eWxlPSJzdHJva2U6IzE4MTgxODtzdHJva2Utd2lkdGg6MS4wOyIgeDE9IjI2Mi43NSIgeDI9IjI2Mi43NSIgeTE9IjcyMy4xMjUiIHkyPSI3NDEuMTI1Ii8+PGxpbmUgc3R5bGU9InN0cm9rZTojMTgxODE4O3N0cm9rZS13aWR0aDoxLjA7IiB4MT0iMjYyLjc1IiB4Mj0iMzQ5LjUiIHkxPSI3NDEuMTI1IiB5Mj0iNzQxLjEyNSIvPjxwb2x5Z29uIGZpbGw9IiMxODE4MTgiIHBvaW50cz0iMzM5LjUsNzM3LjEyNSwzNDkuNSw3NDEuMTI1LDMzOS41LDc0NS4xMjUsMzQzLjUsNzQxLjEyNSIgc3R5bGU9InN0cm9rZTojMTgxODE4O3N0cm9rZS13aWR0aDoxLjA7Ii8+PGxpbmUgc3R5bGU9InN0cm9rZTojMTgxODE4O3N0cm9rZS13aWR0aDoxLjA7IiB4MT0iNDYwLjI1IiB4Mj0iNDYwLjI1IiB5MT0iNTY0LjU5MzgiIHkyPSI3NDEuMTI1Ii8+PGxpbmUgc3R5bGU9InN0cm9rZTojMTgxODE4O3N0cm9rZS13aWR0aDoxLjA7IiB4MT0iNDYwLjI1IiB4Mj0iMzczLjUiIHkxPSI3NDEuMTI1IiB5Mj0iNzQxLjEyNSIvPjxwb2x5Z29uIGZpbGw9IiMxODE4MTgiIHBvaW50cz0iMzgzLjUsNzM3LjEyNSwzNzMuNSw3NDEuMTI1LDM4My41LDc0NS4xMjUsMzc5LjUsNzQxLjEyNSIgc3R5bGU9InN0cm9rZTojMTgxODE4O3N0cm9rZS13aWR0aDoxLjA7Ii8+PGxpbmUgc3R5bGU9InN0cm9rZTojMTgxODE4O3N0cm9rZS13aWR0aDoxLjA7IiB4MT0iMzYxLjUiIHgyPSIzNjEuNSIgeTE9IjQ3Ny43NSIgeTI9IjQ5Ny43NSIvPjxwb2x5Z29uIGZpbGw9IiMxODE4MTgiIHBvaW50cz0iMzU3LjUsNDg3Ljc1LDM2MS41LDQ5Ny43NSwzNjUuNSw0ODcuNzUsMzYxLjUsNDkxLjc1IiBzdHlsZT0ic3Ryb2tlOiMxODE4MTg7c3Ryb2tlLXdpZHRoOjEuMDsiLz48bGluZSBzdHlsZT0ic3Ryb2tlOiMxODE4MTg7c3Ryb2tlLXdpZHRoOjEuMDsiIHgxPSIzNjEuNSIgeDI9IjM2MS41IiB5MT0iNzUzLjEyNSIgeTI9Ijc3My4xMjUiLz48cG9seWdvbiBmaWxsPSIjMTgxODE4IiBwb2ludHM9IjM1Ny41LDc2My4xMjUsMzYxLjUsNzczLjEyNSwzNjUuNSw3NjMuMTI1LDM2MS41LDc2Ny4xMjUiIHN0eWxlPSJzdHJva2U6IzE4MTgxODtzdHJva2Utd2lkdGg6MS4wOyIvPjxsaW5lIHN0eWxlPSJzdHJva2U6IzE4MTgxODtzdHJva2Utd2lkdGg6MS4wOyIgeDE9IjM2MS41IiB4Mj0iMzYxLjUiIHkxPSI4MDUuOTY4OCIgeTI9IjgyNS45Njg4Ii8+PHBvbHlnb24gZmlsbD0iIzE4MTgxOCIgcG9pbnRzPSIzNTcuNSw4MTUuOTY4OCwzNjEuNSw4MjUuOTY4OCwzNjUuNSw4MTUuOTY4OCwzNjEuNSw4MTkuOTY4OCIgc3R5bGU9InN0cm9rZTojMTgxODE4O3N0cm9rZS13aWR0aDoxLjA7Ii8+PGxpbmUgc3R5bGU9InN0cm9rZTojMTgxODE4O3N0cm9rZS13aWR0aDoxLjA7IiB4MT0iMjExLjUiIHgyPSIyMTEuNSIgeTE9Ijk0NS42NTYzIiB5Mj0iOTY1LjY1NjMiLz48cG9seWdvbiBmaWxsPSIjMTgxODE4IiBwb2ludHM9IjIwNy41LDk1NS42NTYzLDIxMS41LDk2NS42NTYzLDIxNS41LDk1NS42NTYzLDIxMS41LDk1OS42NTYzIiBzdHlsZT0ic3Ryb2tlOiMxODE4MTg7c3Ryb2tlLXdpZHRoOjEuMDsiLz48bGluZSBzdHlsZT0ic3Ryb2tlOiMxODE4MTg7c3Ryb2tlLXdpZHRoOjEuMDsiIHgxPSIyMTEuNSIgeDI9IjIxMS41IiB5MT0iOTk4LjUiIHkyPSIxMDE4LjUiLz48cG9seWdvbiBmaWxsPSIjMTgxODE4IiBwb2ludHM9IjIwNy41LDEwMDguNSwyMTEuNSwxMDE4LjUsMjE1LjUsMTAwOC41LDIxMS41LDEwMTIuNSIgc3R5bGU9InN0cm9rZTojMTgxODE4O3N0cm9rZS13aWR0aDoxLjA7Ii8+PGxpbmUgc3R5bGU9InN0cm9rZTojMTgxODE4O3N0cm9rZS13aWR0aDoxLjA7IiB4MT0iMTE4LjUiIHgyPSIxMDguNSIgeTE9IjEwODMuMzQzOCIgeTI9IjEwODMuMzQzOCIvPjxsaW5lIHN0eWxlPSJzdHJva2U6IzE4MTgxODtzdHJva2Utd2lkdGg6MS4wOyIgeDE9IjEwOC41IiB4Mj0iMTA4LjUiIHkxPSIxMDgzLjM0MzgiIHkyPSIxMTA1LjM0MzgiLz48cG9seWdvbiBmaWxsPSIjMTgxODE4IiBwb2ludHM9IjEwNC41LDEwOTUuMzQzOCwxMDguNSwxMTA1LjM0MzgsMTEyLjUsMTA5NS4zNDM4LDEwOC41LDEwOTkuMzQzOCIgc3R5bGU9InN0cm9rZTojMTgxODE4O3N0cm9rZS13aWR0aDoxLjA7Ii8+PGxpbmUgc3R5bGU9InN0cm9rZTojMTgxODE4O3N0cm9rZS13aWR0aDoxLjA7IiB4MT0iMzA0LjUiIHgyPSIzMTQuNSIgeTE9IjEwODMuMzQzOCIgeTI9IjEwODMuMzQzOCIvPjxsaW5lIHN0eWxlPSJzdHJva2U6IzE4MTgxODtzdHJva2Utd2lkdGg6MS4wOyIgeDE9IjMxNC41IiB4Mj0iMzE0LjUiIHkxPSIxMDgzLjM0MzgiIHkyPSIxMTA1LjM0MzgiLz48cG9seWdvbiBmaWxsPSIjMTgxODE4IiBwb2ludHM9IjMxMC41LDEwOTUuMzQzOCwzMTQuNSwxMTA1LjM0MzgsMzE4LjUsMTA5NS4zNDM4LDMxNC41LDEwOTkuMzQzOCIgc3R5bGU9InN0cm9rZTojMTgxODE4O3N0cm9rZS13aWR0aDoxLjA7Ii8+PGxpbmUgc3R5bGU9InN0cm9rZTojMTgxODE4O3N0cm9rZS13aWR0aDoxLjA7IiB4MT0iMTA4LjUiIHgyPSIxMDguNSIgeTE9IjExMzguMTg3NSIgeTI9IjExNTYuMTg3NSIvPjxsaW5lIHN0eWxlPSJzdHJva2U6IzE4MTgxODtzdHJva2Utd2lkdGg6MS4wOyIgeDE9IjEwOC41IiB4Mj0iMTk5LjUiIHkxPSIxMTU2LjE4NzUiIHkyPSIxMTU2LjE4NzUiLz48cG9seWdvbiBmaWxsPSIjMTgxODE4IiBwb2ludHM9IjE4OS41LDExNTIuMTg3NSwxOTkuNSwxMTU2LjE4NzUsMTg5LjUsMTE2MC4xODc1LDE5My41LDExNTYuMTg3NSIgc3R5bGU9InN0cm9rZTojMTgxODE4O3N0cm9rZS13aWR0aDoxLjA7Ii8+PGxpbmUgc3R5bGU9InN0cm9rZTojMTgxODE4O3N0cm9rZS13aWR0aDoxLjA7IiB4MT0iMzE0LjUiIHgyPSIzMTQuNSIgeTE9IjExMzguMTg3NSIgeTI9IjExNTYuMTg3NSIvPjxsaW5lIHN0eWxlPSJzdHJva2U6IzE4MTgxODtzdHJva2Utd2lkdGg6MS4wOyIgeDE9IjMxNC41IiB4Mj0iMjIzLjUiIHkxPSIxMTU2LjE4NzUiIHkyPSIxMTU2LjE4NzUiLz48cG9seWdvbiBmaWxsPSIjMTgxODE4IiBwb2ludHM9IjIzMy41LDExNTIuMTg3NSwyMjMuNSwxMTU2LjE4NzUsMjMzLjUsMTE2MC4xODc1LDIyOS41LDExNTYuMTg3NSIgc3R5bGU9InN0cm9rZTojMTgxODE4O3N0cm9rZS13aWR0aDoxLjA7Ii8+PGxpbmUgc3R5bGU9InN0cm9rZTojMTgxODE4O3N0cm9rZS13aWR0aDoxLjA7IiB4MT0iMjExLjUiIHgyPSIyMTEuNSIgeTE9IjEwNTEuMzQzOCIgeTI9IjEwNzEuMzQzOCIvPjxwb2x5Z29uIGZpbGw9IiMxODE4MTgiIHBvaW50cz0iMjA3LjUsMTA2MS4zNDM4LDIxMS41LDEwNzEuMzQzOCwyMTUuNSwxMDYxLjM0MzgsMjExLjUsMTA2NS4zNDM4IiBzdHlsZT0ic3Ryb2tlOiMxODE4MTg7c3Ryb2tlLXdpZHRoOjEuMDsiLz48bGluZSBzdHlsZT0ic3Ryb2tlOiMxODE4MTg7c3Ryb2tlLXdpZHRoOjEuMDsiIHgxPSIyOTUuNSIgeDI9IjIxMS41IiB5MT0iODkwLjgxMjUiIHkyPSI4OTAuODEyNSIvPjxsaW5lIHN0eWxlPSJzdHJva2U6IzE4MTgxODtzdHJva2Utd2lkdGg6MS4wOyIgeDE9IjIxMS41IiB4Mj0iMjExLjUiIHkxPSI4OTAuODEyNSIgeTI9IjkxMi44MTI1Ii8+PHBvbHlnb24gZmlsbD0iIzE4MTgxOCIgcG9pbnRzPSIyMDcuNSw5MDIuODEyNSwyMTEuNSw5MTIuODEyNSwyMTUuNSw5MDIuODEyNSwyMTEuNSw5MDYuODEyNSIgc3R5bGU9InN0cm9rZTojMTgxODE4O3N0cm9rZS13aWR0aDoxLjA7Ii8+PGxpbmUgc3R5bGU9InN0cm9rZTojMTgxODE4O3N0cm9rZS13aWR0aDoxLjA7IiB4MT0iNDI3LjUiIHgyPSI1MTEuNSIgeTE9Ijg5MC44MTI1IiB5Mj0iODkwLjgxMjUiLz48bGluZSBzdHlsZT0ic3Ryb2tlOiMxODE4MTg7c3Ryb2tlLXdpZHRoOjEuMDsiIHgxPSI1MTEuNSIgeDI9IjUxMS41IiB5MT0iODkwLjgxMjUiIHkyPSI5MTIuODEyNSIvPjxwb2x5Z29uIGZpbGw9IiMxODE4MTgiIHBvaW50cz0iNTA3LjUsOTAyLjgxMjUsNTExLjUsOTEyLjgxMjUsNTE1LjUsOTAyLjgxMjUsNTExLjUsOTA2LjgxMjUiIHN0eWxlPSJzdHJva2U6IzE4MTgxODtzdHJva2Utd2lkdGg6MS4wOyIvPjxsaW5lIHN0eWxlPSJzdHJva2U6IzE4MTgxODtzdHJva2Utd2lkdGg6MS4wOyIgeDE9IjIxMS41IiB4Mj0iMjExLjUiIHkxPSIxMTY4LjE4NzUiIHkyPSIxMTg2LjE4NzUiLz48bGluZSBzdHlsZT0ic3Ryb2tlOiMxODE4MTg7c3Ryb2tlLXdpZHRoOjEuMDsiIHgxPSIyMTEuNSIgeDI9IjM0OS41IiB5MT0iMTE4Ni4xODc1IiB5Mj0iMTE4Ni4xODc1Ii8+PHBvbHlnb24gZmlsbD0iIzE4MTgxOCIgcG9pbnRzPSIzMzkuNSwxMTgyLjE4NzUsMzQ5LjUsMTE4Ni4xODc1LDMzOS41LDExOTAuMTg3NSwzNDMuNSwxMTg2LjE4NzUiIHN0eWxlPSJzdHJva2U6IzE4MTgxODtzdHJva2Utd2lkdGg6MS4wOyIvPjxsaW5lIHN0eWxlPSJzdHJva2U6IzE4MTgxODtzdHJva2Utd2lkdGg6MS4wOyIgeDE9IjUxMS41IiB4Mj0iNTExLjUiIHkxPSI5NDUuNjU2MyIgeTI9IjExODYuMTg3NSIvPjxsaW5lIHN0eWxlPSJzdHJva2U6IzE4MTgxODtzdHJva2Utd2lkdGg6MS4wOyIgeDE9IjUxMS41IiB4Mj0iMzczLjUiIHkxPSIxMTg2LjE4NzUiIHkyPSIxMTg2LjE4NzUiLz48cG9seWdvbiBmaWxsPSIjMTgxODE4IiBwb2ludHM9IjM4My41LDExODIuMTg3NSwzNzMuNSwxMTg2LjE4NzUsMzgzLjUsMTE5MC4xODc1LDM3OS41LDExODYuMTg3NSIgc3R5bGU9InN0cm9rZTojMTgxODE4O3N0cm9rZS13aWR0aDoxLjA7Ii8+PGxpbmUgc3R5bGU9InN0cm9rZTojMTgxODE4O3N0cm9rZS13aWR0aDoxLjA7IiB4MT0iMzYxLjUiIHgyPSIzNjEuNSIgeTE9Ijg1OC44MTI1IiB5Mj0iODc4LjgxMjUiLz48cG9seWdvbiBmaWxsPSIjMTgxODE4IiBwb2ludHM9IjM1Ny41LDg2OC44MTI1LDM2MS41LDg3OC44MTI1LDM2NS41LDg2OC44MTI1LDM2MS41LDg3Mi44MTI1IiBzdHlsZT0ic3Ryb2tlOiMxODE4MTg7c3Ryb2tlLXdpZHRoOjEuMDsiLz48bGluZSBzdHlsZT0ic3Ryb2tlOiMxODE4MTg7c3Ryb2tlLXdpZHRoOjEuMDsiIHgxPSIzNjEuNSIgeDI9IjM2MS41IiB5MT0iMTE5OC4xODc1IiB5Mj0iMTIxOC4xODc1Ii8+PHBvbHlnb24gZmlsbD0iIzE4MTgxOCIgcG9pbnRzPSIzNTcuNSwxMjA4LjE4NzUsMzYxLjUsMTIxOC4xODc1LDM2NS41LDEyMDguMTg3NSwzNjEuNSwxMjEyLjE4NzUiIHN0eWxlPSJzdHJva2U6IzE4MTgxODtzdHJva2Utd2lkdGg6MS4wOyIvPjxsaW5lIHN0eWxlPSJzdHJva2U6IzE4MTgxODtzdHJva2Utd2lkdGg6MS4wOyIgeDE9IjM2MS41IiB4Mj0iMzYxLjUiIHkxPSIxMjUxLjAzMTMiIHkyPSIxMjcxLjAzMTMiLz48cG9seWdvbiBmaWxsPSIjMTgxODE4IiBwb2ludHM9IjM1Ny41LDEyNjEuMDMxMywzNjEuNSwxMjcxLjAzMTMsMzY1LjUsMTI2MS4wMzEzLDM2MS41LDEyNjUuMDMxMyIgc3R5bGU9InN0cm9rZTojMTgxODE4O3N0cm9rZS13aWR0aDoxLjA7Ii8+PGxpbmUgc3R5bGU9InN0cm9rZTojMTgxODE4O3N0cm9rZS13aWR0aDoxLjA7IiB4MT0iMzYxLjUiIHgyPSIzNjEuNSIgeTE9IjEzMDMuODc1IiB5Mj0iMTMyMy44NzUiLz48cG9seWdvbiBmaWxsPSIjMTgxODE4IiBwb2ludHM9IjM1Ny41LDEzMTMuODc1LDM2MS41LDEzMjMuODc1LDM2NS41LDEzMTMuODc1LDM2MS41LDEzMTcuODc1IiBzdHlsZT0ic3Ryb2tlOiMxODE4MTg7c3Ryb2tlLXdpZHRoOjEuMDsiLz48IS0tU1JDPVtoUDcxUWlDbTM4UmxWV2VUS3pXSmY4VEhhWjg2NnVvTXpreDVJWTltdlNub01saHNpdkVjUERxZk9xVDlsX05oLXZ0bEdzLUcweG92WGRZanllRVdQdHQyOV9aRzhYVmRwTGZIM1RiSE1wOUdVNG5ncWJRVUxuMVFQQ1lrQTJpNWE2LWcyYUxXTWJYZ1FKLVRKa19aeTRYdVdVcXYzY0llendYenJTdXhFc244MGRnZWRSX3RxR2YybmN1bUE0YXdndy1tekp2QXRnRVBSWjFnczUyakw1dXVReDcxRXljalZZdF9aMzlqTjh4b3JRRTRpR0taY0RVMTcyeVpzZldKeVZfenBCWGs4S25vLUNxMUR5SDdnc0pNVFR3VDRJOUdZUEtibmFjU3JpdG5leFhteU1KazRUOFRuQ3RDVTBuWElMbWxHLVdaUkNwaDF6ZTNzM1MwXS0tPjwvZz48L3N2Zz4=;" vertex="1" parent="1">
            <mxGeometry x="330" y="-1011" width="326.86" height="741" as="geometry" />
          </mxCell>
        </UserObject>
        <UserObject label="" plantUmlData="{&#xa;  &quot;data&quot;: &quot;@startuml\n\n:Student Login;\n:Username, Password;\nif (Valid Credentials?) then (yes)\n  :Access Student Dashboard;\n  :View Events;\n  :Search Events;\n  :Register for Events;\nelse (no)\n  :Display Error Message;\nendif\n\n:College Login;\n:CollegeID, Password;\nif (Valid Credentials?) then (yes)\n  :Access College Dashboard;\n  :View Events;\n  :Search Events;\n  :Request Event Registration;\nelse (no)\n  :Display Error Message;\nendif\n\n:Admin Login;\n:Username, Password;\nif (Valid Credentials?) then (yes)\n  :Access Admin Dashboard;\n  :View Events;\n  :Search Events;\n  if (Event Registration Request?) then (yes)\n    :Approve or Decline Request;\n  else (no)\n    :Continue Viewing Events;\n  endif\nelse (no)\n  :Display Error Message;\nendif\n\n:Guest Access;\n:View Events;\n:Search Events;\n\n@enduml\n&quot;,&#xa;  &quot;format&quot;: &quot;svg&quot;&#xa;}" id="nF57_oaCUXwNxO_2Wn-n-7">
          <mxCell style="shape=image;noLabel=1;verticalAlign=top;aspect=fixed;imageAspect=0;image=data:image/svg+xml,PD94bWwgdmVyc2lvbj0iMS4wIiBlbmNvZGluZz0idXMtYXNjaWkiIHN0YW5kYWxvbmU9Im5vIj8+PHN2ZyB4bWxucz0iaHR0cDovL3d3dy53My5vcmcvMjAwMC9zdmciIHhtbG5zOnhsaW5rPSJodHRwOi8vd3d3LnczLm9yZy8xOTk5L3hsaW5rIiBjb250ZW50U3R5bGVUeXBlPSJ0ZXh0L2NzcyIgaGVpZ2h0PSIxMzY3cHgiIHByZXNlcnZlQXNwZWN0UmF0aW89Im5vbmUiIHN0eWxlPSJ3aWR0aDo2MDNweDtoZWlnaHQ6MTM2N3B4O2JhY2tncm91bmQ6I0ZGRkZGRjsiIHZlcnNpb249IjEuMSIgdmlld0JveD0iMCAwIDYwMyAxMzY3IiB3aWR0aD0iNjAzcHgiIHpvb21BbmRQYW49Im1hZ25pZnkiPjxkZWZzLz48Zz48cmVjdCBmaWxsPSIjRjFGMUYxIiBoZWlnaHQ9IjMyLjg0MzgiIHJ4PSIxMi41IiByeT0iMTIuNSIgc3R5bGU9InN0cm9rZTojMTgxODE4O3N0cm9rZS13aWR0aDowLjU7IiB3aWR0aD0iMTA2IiB4PSIzMDguNSIgeT0iMTEiLz48dGV4dCBmaWxsPSIjMDAwMDAwIiBmb250LWZhbWlseT0ic2Fucy1zZXJpZiIgZm9udC1zaXplPSIxMiIgbGVuZ3RoQWRqdXN0PSJzcGFjaW5nIiB0ZXh0TGVuZ3RoPSI4NiIgeD0iMzE4LjUiIHk9IjMyLjM0MzgiPlN0dWRlbnQgTG9naW48L3RleHQ+PHJlY3QgZmlsbD0iI0YxRjFGMSIgaGVpZ2h0PSIzMi44NDM4IiByeD0iMTIuNSIgcnk9IjEyLjUiIHN0eWxlPSJzdHJva2U6IzE4MTgxODtzdHJva2Utd2lkdGg6MC41OyIgd2lkdGg9IjE0MiIgeD0iMjkwLjUiIHk9IjYzLjg0MzgiLz48dGV4dCBmaWxsPSIjMDAwMDAwIiBmb250LWZhbWlseT0ic2Fucy1zZXJpZiIgZm9udC1zaXplPSIxMiIgbGVuZ3RoQWRqdXN0PSJzcGFjaW5nIiB0ZXh0TGVuZ3RoPSIxMjIiIHg9IjMwMC41IiB5PSI4NS4xODc1Ij5Vc2VybmFtZSwgUGFzc3dvcmQ8L3RleHQ+PHBvbHlnb24gZmlsbD0iI0YxRjFGMSIgcG9pbnRzPSIzMDcuNSwxMTYuNjg3NSw0MTUuNSwxMTYuNjg3NSw0MjcuNSwxMjguNjg3NSw0MTUuNSwxNDAuNjg3NSwzMDcuNSwxNDAuNjg3NSwyOTUuNSwxMjguNjg3NSwzMDcuNSwxMTYuNjg3NSIgc3R5bGU9InN0cm9rZTojMTgxODE4O3N0cm9rZS13aWR0aDowLjU7Ii8+PHRleHQgZmlsbD0iIzAwMDAwMCIgZm9udC1mYW1pbHk9InNhbnMtc2VyaWYiIGZvbnQtc2l6ZT0iMTEiIGxlbmd0aEFkanVzdD0ic3BhY2luZyIgdGV4dExlbmd0aD0iMTA4IiB4PSIzMDcuNSIgeT0iMTMzLjE5OTIiPlZhbGlkIENyZWRlbnRpYWxzPzwvdGV4dD48dGV4dCBmaWxsPSIjMDAwMDAwIiBmb250LWZhbWlseT0ic2Fucy1zZXJpZiIgZm9udC1zaXplPSIxMSIgbGVuZ3RoQWRqdXN0PSJzcGFjaW5nIiB0ZXh0TGVuZ3RoPSIxOCIgeD0iMjc3LjUiIHk9IjEyNy4zMTI1Ij55ZXM8L3RleHQ+PHRleHQgZmlsbD0iIzAwMDAwMCIgZm9udC1mYW1pbHk9InNhbnMtc2VyaWYiIGZvbnQtc2l6ZT0iMTEiIGxlbmd0aEFkanVzdD0ic3BhY2luZyIgdGV4dExlbmd0aD0iMTIiIHg9IjQyNy41IiB5PSIxMjcuMzEyNSI+bm88L3RleHQ+PHJlY3QgZmlsbD0iI0YxRjFGMSIgaGVpZ2h0PSIzMi44NDM4IiByeD0iMTIuNSIgcnk9IjEyLjUiIHN0eWxlPSJzdHJva2U6IzE4MTgxODtzdHJva2Utd2lkdGg6MC41OyIgd2lkdGg9IjE4MiIgeD0iMTc0LjUiIHk9IjE1MC42ODc1Ii8+PHRleHQgZmlsbD0iIzAwMDAwMCIgZm9udC1mYW1pbHk9InNhbnMtc2VyaWYiIGZvbnQtc2l6ZT0iMTIiIGxlbmd0aEFkanVzdD0ic3BhY2luZyIgdGV4dExlbmd0aD0iMTYyIiB4PSIxODQuNSIgeT0iMTcyLjAzMTMiPkFjY2VzcyBTdHVkZW50IERhc2hib2FyZDwvdGV4dD48cmVjdCBmaWxsPSIjRjFGMUYxIiBoZWlnaHQ9IjMyLjg0MzgiIHJ4PSIxMi41IiByeT0iMTIuNSIgc3R5bGU9InN0cm9rZTojMTgxODE4O3N0cm9rZS13aWR0aDowLjU7IiB3aWR0aD0iOTIiIHg9IjIxOS41IiB5PSIyMDMuNTMxMyIvPjx0ZXh0IGZpbGw9IiMwMDAwMDAiIGZvbnQtZmFtaWx5PSJzYW5zLXNlcmlmIiBmb250LXNpemU9IjEyIiBsZW5ndGhBZGp1c3Q9InNwYWNpbmciIHRleHRMZW5ndGg9IjcyIiB4PSIyMjkuNSIgeT0iMjI0Ljg3NSI+VmlldyBFdmVudHM8L3RleHQ+PHJlY3QgZmlsbD0iI0YxRjFGMSIgaGVpZ2h0PSIzMi44NDM4IiByeD0iMTIuNSIgcnk9IjEyLjUiIHN0eWxlPSJzdHJva2U6IzE4MTgxODtzdHJva2Utd2lkdGg6MC41OyIgd2lkdGg9IjEwNyIgeD0iMjEyIiB5PSIyNTYuMzc1Ii8+PHRleHQgZmlsbD0iIzAwMDAwMCIgZm9udC1mYW1pbHk9InNhbnMtc2VyaWYiIGZvbnQtc2l6ZT0iMTIiIGxlbmd0aEFkanVzdD0ic3BhY2luZyIgdGV4dExlbmd0aD0iODciIHg9IjIyMiIgeT0iMjc3LjcxODgiPlNlYXJjaCBFdmVudHM8L3RleHQ+PHJlY3QgZmlsbD0iI0YxRjFGMSIgaGVpZ2h0PSIzMi44NDM4IiByeD0iMTIuNSIgcnk9IjEyLjUiIHN0eWxlPSJzdHJva2U6IzE4MTgxODtzdHJva2Utd2lkdGg6MC41OyIgd2lkdGg9IjE0NiIgeD0iMTkyLjUiIHk9IjMwOS4yMTg4Ii8+PHRleHQgZmlsbD0iIzAwMDAwMCIgZm9udC1mYW1pbHk9InNhbnMtc2VyaWYiIGZvbnQtc2l6ZT0iMTIiIGxlbmd0aEFkanVzdD0ic3BhY2luZyIgdGV4dExlbmd0aD0iMTI2IiB4PSIyMDIuNSIgeT0iMzMwLjU2MjUiPlJlZ2lzdGVyIGZvciBFdmVudHM8L3RleHQ+PHJlY3QgZmlsbD0iI0YxRjFGMSIgaGVpZ2h0PSIzMi44NDM4IiByeD0iMTIuNSIgcnk9IjEyLjUiIHN0eWxlPSJzdHJva2U6IzE4MTgxODtzdHJva2Utd2lkdGg6MC41OyIgd2lkdGg9IjE2MiIgeD0iMzc2LjUiIHk9IjE1MC42ODc1Ii8+PHRleHQgZmlsbD0iIzAwMDAwMCIgZm9udC1mYW1pbHk9InNhbnMtc2VyaWYiIGZvbnQtc2l6ZT0iMTIiIGxlbmd0aEFkanVzdD0ic3BhY2luZyIgdGV4dExlbmd0aD0iMTQyIiB4PSIzODYuNSIgeT0iMTcyLjAzMTMiPkRpc3BsYXkgRXJyb3IgTWVzc2FnZTwvdGV4dD48cG9seWdvbiBmaWxsPSIjRjFGMUYxIiBwb2ludHM9IjM2MS41LDM0OC4wNjI1LDM3My41LDM2MC4wNjI1LDM2MS41LDM3Mi4wNjI1LDM0OS41LDM2MC4wNjI1LDM2MS41LDM0OC4wNjI1IiBzdHlsZT0ic3Ryb2tlOiMxODE4MTg7c3Ryb2tlLXdpZHRoOjAuNTsiLz48cmVjdCBmaWxsPSIjRjFGMUYxIiBoZWlnaHQ9IjMyLjg0MzgiIHJ4PSIxMi41IiByeT0iMTIuNSIgc3R5bGU9InN0cm9rZTojMTgxODE4O3N0cm9rZS13aWR0aDowLjU7IiB3aWR0aD0iMTA2IiB4PSIzMDguNSIgeT0iMzkyLjA2MjUiLz48dGV4dCBmaWxsPSIjMDAwMDAwIiBmb250LWZhbWlseT0ic2Fucy1zZXJpZiIgZm9udC1zaXplPSIxMiIgbGVuZ3RoQWRqdXN0PSJzcGFjaW5nIiB0ZXh0TGVuZ3RoPSI4NiIgeD0iMzE4LjUiIHk9IjQxMy40MDYzIj5Db2xsZWdlIExvZ2luPC90ZXh0PjxyZWN0IGZpbGw9IiNGMUYxRjEiIGhlaWdodD0iMzIuODQzOCIgcng9IjEyLjUiIHJ5PSIxMi41IiBzdHlsZT0ic3Ryb2tlOiMxODE4MTg7c3Ryb2tlLXdpZHRoOjAuNTsiIHdpZHRoPSIxNDciIHg9IjI4OCIgeT0iNDQ0LjkwNjMiLz48dGV4dCBmaWxsPSIjMDAwMDAwIiBmb250LWZhbWlseT0ic2Fucy1zZXJpZiIgZm9udC1zaXplPSIxMiIgbGVuZ3RoQWRqdXN0PSJzcGFjaW5nIiB0ZXh0TGVuZ3RoPSIxMjciIHg9IjI5OCIgeT0iNDY2LjI1Ij5Db2xsZWdlSUQsIFBhc3N3b3JkPC90ZXh0Pjxwb2x5Z29uIGZpbGw9IiNGMUYxRjEiIHBvaW50cz0iMzA3LjUsNDk3Ljc1LDQxNS41LDQ5Ny43NSw0MjcuNSw1MDkuNzUsNDE1LjUsNTIxLjc1LDMwNy41LDUyMS43NSwyOTUuNSw1MDkuNzUsMzA3LjUsNDk3Ljc1IiBzdHlsZT0ic3Ryb2tlOiMxODE4MTg7c3Ryb2tlLXdpZHRoOjAuNTsiLz48dGV4dCBmaWxsPSIjMDAwMDAwIiBmb250LWZhbWlseT0ic2Fucy1zZXJpZiIgZm9udC1zaXplPSIxMSIgbGVuZ3RoQWRqdXN0PSJzcGFjaW5nIiB0ZXh0TGVuZ3RoPSIxMDgiIHg9IjMwNy41IiB5PSI1MTQuMjYxNyI+VmFsaWQgQ3JlZGVudGlhbHM/PC90ZXh0Pjx0ZXh0IGZpbGw9IiMwMDAwMDAiIGZvbnQtZmFtaWx5PSJzYW5zLXNlcmlmIiBmb250LXNpemU9IjExIiBsZW5ndGhBZGp1c3Q9InNwYWNpbmciIHRleHRMZW5ndGg9IjE4IiB4PSIyNzcuNSIgeT0iNTA4LjM3NSI+eWVzPC90ZXh0Pjx0ZXh0IGZpbGw9IiMwMDAwMDAiIGZvbnQtZmFtaWx5PSJzYW5zLXNlcmlmIiBmb250LXNpemU9IjExIiBsZW5ndGhBZGp1c3Q9InNwYWNpbmciIHRleHRMZW5ndGg9IjEyIiB4PSI0MjcuNSIgeT0iNTA4LjM3NSI+bm88L3RleHQ+PHJlY3QgZmlsbD0iI0YxRjFGMSIgaGVpZ2h0PSIzMi44NDM4IiByeD0iMTIuNSIgcnk9IjEyLjUiIHN0eWxlPSJzdHJva2U6IzE4MTgxODtzdHJva2Utd2lkdGg6MC41OyIgd2lkdGg9IjE4MiIgeD0iMTcxLjc1IiB5PSI1MzEuNzUiLz48dGV4dCBmaWxsPSIjMDAwMDAwIiBmb250LWZhbWlseT0ic2Fucy1zZXJpZiIgZm9udC1zaXplPSIxMiIgbGVuZ3RoQWRqdXN0PSJzcGFjaW5nIiB0ZXh0TGVuZ3RoPSIxNjIiIHg9IjE4MS43NSIgeT0iNTUzLjA5MzgiPkFjY2VzcyBDb2xsZWdlIERhc2hib2FyZDwvdGV4dD48cmVjdCBmaWxsPSIjRjFGMUYxIiBoZWlnaHQ9IjMyLjg0MzgiIHJ4PSIxMi41IiByeT0iMTIuNSIgc3R5bGU9InN0cm9rZTojMTgxODE4O3N0cm9rZS13aWR0aDowLjU7IiB3aWR0aD0iOTIiIHg9IjIxNi43NSIgeT0iNTg0LjU5MzgiLz48dGV4dCBmaWxsPSIjMDAwMDAwIiBmb250LWZhbWlseT0ic2Fucy1zZXJpZiIgZm9udC1zaXplPSIxMiIgbGVuZ3RoQWRqdXN0PSJzcGFjaW5nIiB0ZXh0TGVuZ3RoPSI3MiIgeD0iMjI2Ljc1IiB5PSI2MDUuOTM3NSI+VmlldyBFdmVudHM8L3RleHQ+PHJlY3QgZmlsbD0iI0YxRjFGMSIgaGVpZ2h0PSIzMi44NDM4IiByeD0iMTIuNSIgcnk9IjEyLjUiIHN0eWxlPSJzdHJva2U6IzE4MTgxODtzdHJva2Utd2lkdGg6MC41OyIgd2lkdGg9IjEwNyIgeD0iMjA5LjI1IiB5PSI2MzcuNDM3NSIvPjx0ZXh0IGZpbGw9IiMwMDAwMDAiIGZvbnQtZmFtaWx5PSJzYW5zLXNlcmlmIiBmb250LXNpemU9IjEyIiBsZW5ndGhBZGp1c3Q9InNwYWNpbmciIHRleHRMZW5ndGg9Ijg3IiB4PSIyMTkuMjUiIHk9IjY1OC43ODEzIj5TZWFyY2ggRXZlbnRzPC90ZXh0PjxyZWN0IGZpbGw9IiNGMUYxRjEiIGhlaWdodD0iMzIuODQzOCIgcng9IjEyLjUiIHJ5PSIxMi41IiBzdHlsZT0ic3Ryb2tlOiMxODE4MTg7c3Ryb2tlLXdpZHRoOjAuNTsiIHdpZHRoPSIxOTMiIHg9IjE2Ni4yNSIgeT0iNjkwLjI4MTMiLz48dGV4dCBmaWxsPSIjMDAwMDAwIiBmb250LWZhbWlseT0ic2Fucy1zZXJpZiIgZm9udC1zaXplPSIxMiIgbGVuZ3RoQWRqdXN0PSJzcGFjaW5nIiB0ZXh0TGVuZ3RoPSIxNzMiIHg9IjE3Ni4yNSIgeT0iNzExLjYyNSI+UmVxdWVzdCBFdmVudCBSZWdpc3RyYXRpb248L3RleHQ+PHJlY3QgZmlsbD0iI0YxRjFGMSIgaGVpZ2h0PSIzMi44NDM4IiByeD0iMTIuNSIgcnk9IjEyLjUiIHN0eWxlPSJzdHJva2U6IzE4MTgxODtzdHJva2Utd2lkdGg6MC41OyIgd2lkdGg9IjE2MiIgeD0iMzc5LjI1IiB5PSI1MzEuNzUiLz48dGV4dCBmaWxsPSIjMDAwMDAwIiBmb250LWZhbWlseT0ic2Fucy1zZXJpZiIgZm9udC1zaXplPSIxMiIgbGVuZ3RoQWRqdXN0PSJzcGFjaW5nIiB0ZXh0TGVuZ3RoPSIxNDIiIHg9IjM4OS4yNSIgeT0iNTUzLjA5MzgiPkRpc3BsYXkgRXJyb3IgTWVzc2FnZTwvdGV4dD48cG9seWdvbiBmaWxsPSIjRjFGMUYxIiBwb2ludHM9IjM2MS41LDcyOS4xMjUsMzczLjUsNzQxLjEyNSwzNjEuNSw3NTMuMTI1LDM0OS41LDc0MS4xMjUsMzYxLjUsNzI5LjEyNSIgc3R5bGU9InN0cm9rZTojMTgxODE4O3N0cm9rZS13aWR0aDowLjU7Ii8+PHJlY3QgZmlsbD0iI0YxRjFGMSIgaGVpZ2h0PSIzMi44NDM4IiByeD0iMTIuNSIgcnk9IjEyLjUiIHN0eWxlPSJzdHJva2U6IzE4MTgxODtzdHJva2Utd2lkdGg6MC41OyIgd2lkdGg9IjkyIiB4PSIzMTUuNSIgeT0iNzczLjEyNSIvPjx0ZXh0IGZpbGw9IiMwMDAwMDAiIGZvbnQtZmFtaWx5PSJzYW5zLXNlcmlmIiBmb250LXNpemU9IjEyIiBsZW5ndGhBZGp1c3Q9InNwYWNpbmciIHRleHRMZW5ndGg9IjcyIiB4PSIzMjUuNSIgeT0iNzk0LjQ2ODgiPkFkbWluIExvZ2luPC90ZXh0PjxyZWN0IGZpbGw9IiNGMUYxRjEiIGhlaWdodD0iMzIuODQzOCIgcng9IjEyLjUiIHJ5PSIxMi41IiBzdHlsZT0ic3Ryb2tlOiMxODE4MTg7c3Ryb2tlLXdpZHRoOjAuNTsiIHdpZHRoPSIxNDIiIHg9IjI5MC41IiB5PSI4MjUuOTY4OCIvPjx0ZXh0IGZpbGw9IiMwMDAwMDAiIGZvbnQtZmFtaWx5PSJzYW5zLXNlcmlmIiBmb250LXNpemU9IjEyIiBsZW5ndGhBZGp1c3Q9InNwYWNpbmciIHRleHRMZW5ndGg9IjEyMiIgeD0iMzAwLjUiIHk9Ijg0Ny4zMTI1Ij5Vc2VybmFtZSwgUGFzc3dvcmQ8L3RleHQ+PHBvbHlnb24gZmlsbD0iI0YxRjFGMSIgcG9pbnRzPSIzMDcuNSw4NzguODEyNSw0MTUuNSw4NzguODEyNSw0MjcuNSw4OTAuODEyNSw0MTUuNSw5MDIuODEyNSwzMDcuNSw5MDIuODEyNSwyOTUuNSw4OTAuODEyNSwzMDcuNSw4NzguODEyNSIgc3R5bGU9InN0cm9rZTojMTgxODE4O3N0cm9rZS13aWR0aDowLjU7Ii8+PHRleHQgZmlsbD0iIzAwMDAwMCIgZm9udC1mYW1pbHk9InNhbnMtc2VyaWYiIGZvbnQtc2l6ZT0iMTEiIGxlbmd0aEFkanVzdD0ic3BhY2luZyIgdGV4dExlbmd0aD0iMTA4IiB4PSIzMDcuNSIgeT0iODk1LjMyNDIiPlZhbGlkIENyZWRlbnRpYWxzPzwvdGV4dD48dGV4dCBmaWxsPSIjMDAwMDAwIiBmb250LWZhbWlseT0ic2Fucy1zZXJpZiIgZm9udC1zaXplPSIxMSIgbGVuZ3RoQWRqdXN0PSJzcGFjaW5nIiB0ZXh0TGVuZ3RoPSIxOCIgeD0iMjc3LjUiIHk9Ijg4OS40Mzc1Ij55ZXM8L3RleHQ+PHRleHQgZmlsbD0iIzAwMDAwMCIgZm9udC1mYW1pbHk9InNhbnMtc2VyaWYiIGZvbnQtc2l6ZT0iMTEiIGxlbmd0aEFkanVzdD0ic3BhY2luZyIgdGV4dExlbmd0aD0iMTIiIHg9IjQyNy41IiB5PSI4ODkuNDM3NSI+bm88L3RleHQ+PHJlY3QgZmlsbD0iI0YxRjFGMSIgaGVpZ2h0PSIzMi44NDM4IiByeD0iMTIuNSIgcnk9IjEyLjUiIHN0eWxlPSJzdHJva2U6IzE4MTgxODtzdHJva2Utd2lkdGg6MC41OyIgd2lkdGg9IjE2OCIgeD0iMTI3LjUiIHk9IjkxMi44MTI1Ii8+PHRleHQgZmlsbD0iIzAwMDAwMCIgZm9udC1mYW1pbHk9InNhbnMtc2VyaWYiIGZvbnQtc2l6ZT0iMTIiIGxlbmd0aEFkanVzdD0ic3BhY2luZyIgdGV4dExlbmd0aD0iMTQ4IiB4PSIxMzcuNSIgeT0iOTM0LjE1NjMiPkFjY2VzcyBBZG1pbiBEYXNoYm9hcmQ8L3RleHQ+PHJlY3QgZmlsbD0iI0YxRjFGMSIgaGVpZ2h0PSIzMi44NDM4IiByeD0iMTIuNSIgcnk9IjEyLjUiIHN0eWxlPSJzdHJva2U6IzE4MTgxODtzdHJva2Utd2lkdGg6MC41OyIgd2lkdGg9IjkyIiB4PSIxNjUuNSIgeT0iOTY1LjY1NjMiLz48dGV4dCBmaWxsPSIjMDAwMDAwIiBmb250LWZhbWlseT0ic2Fucy1zZXJpZiIgZm9udC1zaXplPSIxMiIgbGVuZ3RoQWRqdXN0PSJzcGFjaW5nIiB0ZXh0TGVuZ3RoPSI3MiIgeD0iMTc1LjUiIHk9Ijk4NyI+VmlldyBFdmVudHM8L3RleHQ+PHJlY3QgZmlsbD0iI0YxRjFGMSIgaGVpZ2h0PSIzMi44NDM4IiByeD0iMTIuNSIgcnk9IjEyLjUiIHN0eWxlPSJzdHJva2U6IzE4MTgxODtzdHJva2Utd2lkdGg6MC41OyIgd2lkdGg9IjEwNyIgeD0iMTU4IiB5PSIxMDE4LjUiLz48dGV4dCBmaWxsPSIjMDAwMDAwIiBmb250LWZhbWlseT0ic2Fucy1zZXJpZiIgZm9udC1zaXplPSIxMiIgbGVuZ3RoQWRqdXN0PSJzcGFjaW5nIiB0ZXh0TGVuZ3RoPSI4NyIgeD0iMTY4IiB5PSIxMDM5Ljg0MzgiPlNlYXJjaCBFdmVudHM8L3RleHQ+PHBvbHlnb24gZmlsbD0iI0YxRjFGMSIgcG9pbnRzPSIxMzAuNSwxMDcxLjM0MzgsMjkyLjUsMTA3MS4zNDM4LDMwNC41LDEwODMuMzQzOCwyOTIuNSwxMDk1LjM0MzgsMTMwLjUsMTA5NS4zNDM4LDExOC41LDEwODMuMzQzOCwxMzAuNSwxMDcxLjM0MzgiIHN0eWxlPSJzdHJva2U6IzE4MTgxODtzdHJva2Utd2lkdGg6MC41OyIvPjx0ZXh0IGZpbGw9IiMwMDAwMDAiIGZvbnQtZmFtaWx5PSJzYW5zLXNlcmlmIiBmb250LXNpemU9IjExIiBsZW5ndGhBZGp1c3Q9InNwYWNpbmciIHRleHRMZW5ndGg9IjE2MiIgeD0iMTMwLjUiIHk9IjEwODcuODU1NSI+RXZlbnQgUmVnaXN0cmF0aW9uIFJlcXVlc3Q/PC90ZXh0Pjx0ZXh0IGZpbGw9IiMwMDAwMDAiIGZvbnQtZmFtaWx5PSJzYW5zLXNlcmlmIiBmb250LXNpemU9IjExIiBsZW5ndGhBZGp1c3Q9InNwYWNpbmciIHRleHRMZW5ndGg9IjE4IiB4PSIxMDAuNSIgeT0iMTA4MS45Njg4Ij55ZXM8L3RleHQ+PHRleHQgZmlsbD0iIzAwMDAwMCIgZm9udC1mYW1pbHk9InNhbnMtc2VyaWYiIGZvbnQtc2l6ZT0iMTEiIGxlbmd0aEFkanVzdD0ic3BhY2luZyIgdGV4dExlbmd0aD0iMTIiIHg9IjMwNC41IiB5PSIxMDgxLjk2ODgiPm5vPC90ZXh0PjxyZWN0IGZpbGw9IiNGMUYxRjEiIGhlaWdodD0iMzIuODQzOCIgcng9IjEyLjUiIHJ5PSIxMi41IiBzdHlsZT0ic3Ryb2tlOiMxODE4MTg7c3Ryb2tlLXdpZHRoOjAuNTsiIHdpZHRoPSIxOTUiIHg9IjExIiB5PSIxMTA1LjM0MzgiLz48dGV4dCBmaWxsPSIjMDAwMDAwIiBmb250LWZhbWlseT0ic2Fucy1zZXJpZiIgZm9udC1zaXplPSIxMiIgbGVuZ3RoQWRqdXN0PSJzcGFjaW5nIiB0ZXh0TGVuZ3RoPSIxNzUiIHg9IjIxIiB5PSIxMTI2LjY4NzUiPkFwcHJvdmUgb3IgRGVjbGluZSBSZXF1ZXN0PC90ZXh0PjxyZWN0IGZpbGw9IiNGMUYxRjEiIGhlaWdodD0iMzIuODQzOCIgcng9IjEyLjUiIHJ5PSIxMi41IiBzdHlsZT0ic3Ryb2tlOiMxODE4MTg7c3Ryb2tlLXdpZHRoOjAuNTsiIHdpZHRoPSIxNzIiIHg9IjIyOC41IiB5PSIxMTA1LjM0MzgiLz48dGV4dCBmaWxsPSIjMDAwMDAwIiBmb250LWZhbWlseT0ic2Fucy1zZXJpZiIgZm9udC1zaXplPSIxMiIgbGVuZ3RoQWRqdXN0PSJzcGFjaW5nIiB0ZXh0TGVuZ3RoPSIxNTIiIHg9IjIzOC41IiB5PSIxMTI2LjY4NzUiPkNvbnRpbnVlIFZpZXdpbmcgRXZlbnRzPC90ZXh0Pjxwb2x5Z29uIGZpbGw9IiNGMUYxRjEiIHBvaW50cz0iMjExLjUsMTE0NC4xODc1LDIyMy41LDExNTYuMTg3NSwyMTEuNSwxMTY4LjE4NzUsMTk5LjUsMTE1Ni4xODc1LDIxMS41LDExNDQuMTg3NSIgc3R5bGU9InN0cm9rZTojMTgxODE4O3N0cm9rZS13aWR0aDowLjU7Ii8+PHJlY3QgZmlsbD0iI0YxRjFGMSIgaGVpZ2h0PSIzMi44NDM4IiByeD0iMTIuNSIgcnk9IjEyLjUiIHN0eWxlPSJzdHJva2U6IzE4MTgxODtzdHJva2Utd2lkdGg6MC41OyIgd2lkdGg9IjE2MiIgeD0iNDMwLjUiIHk9IjkxMi44MTI1Ii8+PHRleHQgZmlsbD0iIzAwMDAwMCIgZm9udC1mYW1pbHk9InNhbnMtc2VyaWYiIGZvbnQtc2l6ZT0iMTIiIGxlbmd0aEFkanVzdD0ic3BhY2luZyIgdGV4dExlbmd0aD0iMTQyIiB4PSI0NDAuNSIgeT0iOTM0LjE1NjMiPkRpc3BsYXkgRXJyb3IgTWVzc2FnZTwvdGV4dD48cG9seWdvbiBmaWxsPSIjRjFGMUYxIiBwb2ludHM9IjM2MS41LDExNzQuMTg3NSwzNzMuNSwxMTg2LjE4NzUsMzYxLjUsMTE5OC4xODc1LDM0OS41LDExODYuMTg3NSwzNjEuNSwxMTc0LjE4NzUiIHN0eWxlPSJzdHJva2U6IzE4MTgxODtzdHJva2Utd2lkdGg6MC41OyIvPjxyZWN0IGZpbGw9IiNGMUYxRjEiIGhlaWdodD0iMzIuODQzOCIgcng9IjEyLjUiIHJ5PSIxMi41IiBzdHlsZT0ic3Ryb2tlOiMxODE4MTg7c3Ryb2tlLXdpZHRoOjAuNTsiIHdpZHRoPSIxMDAiIHg9IjMxMS41IiB5PSIxMjE4LjE4NzUiLz48dGV4dCBmaWxsPSIjMDAwMDAwIiBmb250LWZhbWlseT0ic2Fucy1zZXJpZiIgZm9udC1zaXplPSIxMiIgbGVuZ3RoQWRqdXN0PSJzcGFjaW5nIiB0ZXh0TGVuZ3RoPSI4MCIgeD0iMzIxLjUiIHk9IjEyMzkuNTMxMyI+R3Vlc3QgQWNjZXNzPC90ZXh0PjxyZWN0IGZpbGw9IiNGMUYxRjEiIGhlaWdodD0iMzIuODQzOCIgcng9IjEyLjUiIHJ5PSIxMi41IiBzdHlsZT0ic3Ryb2tlOiMxODE4MTg7c3Ryb2tlLXdpZHRoOjAuNTsiIHdpZHRoPSI5MiIgeD0iMzE1LjUiIHk9IjEyNzEuMDMxMyIvPjx0ZXh0IGZpbGw9IiMwMDAwMDAiIGZvbnQtZmFtaWx5PSJzYW5zLXNlcmlmIiBmb250LXNpemU9IjEyIiBsZW5ndGhBZGp1c3Q9InNwYWNpbmciIHRleHRMZW5ndGg9IjcyIiB4PSIzMjUuNSIgeT0iMTI5Mi4zNzUiPlZpZXcgRXZlbnRzPC90ZXh0PjxyZWN0IGZpbGw9IiNGMUYxRjEiIGhlaWdodD0iMzIuODQzOCIgcng9IjEyLjUiIHJ5PSIxMi41IiBzdHlsZT0ic3Ryb2tlOiMxODE4MTg7c3Ryb2tlLXdpZHRoOjAuNTsiIHdpZHRoPSIxMDciIHg9IjMwOCIgeT0iMTMyMy44NzUiLz48dGV4dCBmaWxsPSIjMDAwMDAwIiBmb250LWZhbWlseT0ic2Fucy1zZXJpZiIgZm9udC1zaXplPSIxMiIgbGVuZ3RoQWRqdXN0PSJzcGFjaW5nIiB0ZXh0TGVuZ3RoPSI4NyIgeD0iMzE4IiB5PSIxMzQ1LjIxODgiPlNlYXJjaCBFdmVudHM8L3RleHQ+PGxpbmUgc3R5bGU9InN0cm9rZTojMTgxODE4O3N0cm9rZS13aWR0aDoxLjA7IiB4MT0iMzYxLjUiIHgyPSIzNjEuNSIgeTE9IjQzLjg0MzgiIHkyPSI2My44NDM4Ii8+PHBvbHlnb24gZmlsbD0iIzE4MTgxOCIgcG9pbnRzPSIzNTcuNSw1My44NDM4LDM2MS41LDYzLjg0MzgsMzY1LjUsNTMuODQzOCwzNjEuNSw1Ny44NDM4IiBzdHlsZT0ic3Ryb2tlOiMxODE4MTg7c3Ryb2tlLXdpZHRoOjEuMDsiLz48bGluZSBzdHlsZT0ic3Ryb2tlOiMxODE4MTg7c3Ryb2tlLXdpZHRoOjEuMDsiIHgxPSIyNjUuNSIgeDI9IjI2NS41IiB5MT0iMTgzLjUzMTMiIHkyPSIyMDMuNTMxMyIvPjxwb2x5Z29uIGZpbGw9IiMxODE4MTgiIHBvaW50cz0iMjYxLjUsMTkzLjUzMTMsMjY1LjUsMjAzLjUzMTMsMjY5LjUsMTkzLjUzMTMsMjY1LjUsMTk3LjUzMTMiIHN0eWxlPSJzdHJva2U6IzE4MTgxODtzdHJva2Utd2lkdGg6MS4wOyIvPjxsaW5lIHN0eWxlPSJzdHJva2U6IzE4MTgxODtzdHJva2Utd2lkdGg6MS4wOyIgeDE9IjI2NS41IiB4Mj0iMjY1LjUiIHkxPSIyMzYuMzc1IiB5Mj0iMjU2LjM3NSIvPjxwb2x5Z29uIGZpbGw9IiMxODE4MTgiIHBvaW50cz0iMjYxLjUsMjQ2LjM3NSwyNjUuNSwyNTYuMzc1LDI2OS41LDI0Ni4zNzUsMjY1LjUsMjUwLjM3NSIgc3R5bGU9InN0cm9rZTojMTgxODE4O3N0cm9rZS13aWR0aDoxLjA7Ii8+PGxpbmUgc3R5bGU9InN0cm9rZTojMTgxODE4O3N0cm9rZS13aWR0aDoxLjA7IiB4MT0iMjY1LjUiIHgyPSIyNjUuNSIgeTE9IjI4OS4yMTg4IiB5Mj0iMzA5LjIxODgiLz48cG9seWdvbiBmaWxsPSIjMTgxODE4IiBwb2ludHM9IjI2MS41LDI5OS4yMTg4LDI2NS41LDMwOS4yMTg4LDI2OS41LDI5OS4yMTg4LDI2NS41LDMwMy4yMTg4IiBzdHlsZT0ic3Ryb2tlOiMxODE4MTg7c3Ryb2tlLXdpZHRoOjEuMDsiLz48bGluZSBzdHlsZT0ic3Ryb2tlOiMxODE4MTg7c3Ryb2tlLXdpZHRoOjEuMDsiIHgxPSIyOTUuNSIgeDI9IjI2NS41IiB5MT0iMTI4LjY4NzUiIHkyPSIxMjguNjg3NSIvPjxsaW5lIHN0eWxlPSJzdHJva2U6IzE4MTgxODtzdHJva2Utd2lkdGg6MS4wOyIgeDE9IjI2NS41IiB4Mj0iMjY1LjUiIHkxPSIxMjguNjg3NSIgeTI9IjE1MC42ODc1Ii8+PHBvbHlnb24gZmlsbD0iIzE4MTgxOCIgcG9pbnRzPSIyNjEuNSwxNDAuNjg3NSwyNjUuNSwxNTAuNjg3NSwyNjkuNSwxNDAuNjg3NSwyNjUuNSwxNDQuNjg3NSIgc3R5bGU9InN0cm9rZTojMTgxODE4O3N0cm9rZS13aWR0aDoxLjA7Ii8+PGxpbmUgc3R5bGU9InN0cm9rZTojMTgxODE4O3N0cm9rZS13aWR0aDoxLjA7IiB4MT0iNDI3LjUiIHgyPSI0NTcuNSIgeTE9IjEyOC42ODc1IiB5Mj0iMTI4LjY4NzUiLz48bGluZSBzdHlsZT0ic3Ryb2tlOiMxODE4MTg7c3Ryb2tlLXdpZHRoOjEuMDsiIHgxPSI0NTcuNSIgeDI9IjQ1Ny41IiB5MT0iMTI4LjY4NzUiIHkyPSIxNTAuNjg3NSIvPjxwb2x5Z29uIGZpbGw9IiMxODE4MTgiIHBvaW50cz0iNDUzLjUsMTQwLjY4NzUsNDU3LjUsMTUwLjY4NzUsNDYxLjUsMTQwLjY4NzUsNDU3LjUsMTQ0LjY4NzUiIHN0eWxlPSJzdHJva2U6IzE4MTgxODtzdHJva2Utd2lkdGg6MS4wOyIvPjxsaW5lIHN0eWxlPSJzdHJva2U6IzE4MTgxODtzdHJva2Utd2lkdGg6MS4wOyIgeDE9IjI2NS41IiB4Mj0iMjY1LjUiIHkxPSIzNDIuMDYyNSIgeTI9IjM2MC4wNjI1Ii8+PGxpbmUgc3R5bGU9InN0cm9rZTojMTgxODE4O3N0cm9rZS13aWR0aDoxLjA7IiB4MT0iMjY1LjUiIHgyPSIzNDkuNSIgeTE9IjM2MC4wNjI1IiB5Mj0iMzYwLjA2MjUiLz48cG9seWdvbiBmaWxsPSIjMTgxODE4IiBwb2ludHM9IjMzOS41LDM1Ni4wNjI1LDM0OS41LDM2MC4wNjI1LDMzOS41LDM2NC4wNjI1LDM0My41LDM2MC4wNjI1IiBzdHlsZT0ic3Ryb2tlOiMxODE4MTg7c3Ryb2tlLXdpZHRoOjEuMDsiLz48bGluZSBzdHlsZT0ic3Ryb2tlOiMxODE4MTg7c3Ryb2tlLXdpZHRoOjEuMDsiIHgxPSI0NTcuNSIgeDI9IjQ1Ny41IiB5MT0iMTgzLjUzMTMiIHkyPSIzNjAuMDYyNSIvPjxsaW5lIHN0eWxlPSJzdHJva2U6IzE4MTgxODtzdHJva2Utd2lkdGg6MS4wOyIgeDE9IjQ1Ny41IiB4Mj0iMzczLjUiIHkxPSIzNjAuMDYyNSIgeTI9IjM2MC4wNjI1Ii8+PHBvbHlnb24gZmlsbD0iIzE4MTgxOCIgcG9pbnRzPSIzODMuNSwzNTYuMDYyNSwzNzMuNSwzNjAuMDYyNSwzODMuNSwzNjQuMDYyNSwzNzkuNSwzNjAuMDYyNSIgc3R5bGU9InN0cm9rZTojMTgxODE4O3N0cm9rZS13aWR0aDoxLjA7Ii8+PGxpbmUgc3R5bGU9InN0cm9rZTojMTgxODE4O3N0cm9rZS13aWR0aDoxLjA7IiB4MT0iMzYxLjUiIHgyPSIzNjEuNSIgeTE9Ijk2LjY4NzUiIHkyPSIxMTYuNjg3NSIvPjxwb2x5Z29uIGZpbGw9IiMxODE4MTgiIHBvaW50cz0iMzU3LjUsMTA2LjY4NzUsMzYxLjUsMTE2LjY4NzUsMzY1LjUsMTA2LjY4NzUsMzYxLjUsMTEwLjY4NzUiIHN0eWxlPSJzdHJva2U6IzE4MTgxODtzdHJva2Utd2lkdGg6MS4wOyIvPjxsaW5lIHN0eWxlPSJzdHJva2U6IzE4MTgxODtzdHJva2Utd2lkdGg6MS4wOyIgeDE9IjM2MS41IiB4Mj0iMzYxLjUiIHkxPSIzNzIuMDYyNSIgeTI9IjM5Mi4wNjI1Ii8+PHBvbHlnb24gZmlsbD0iIzE4MTgxOCIgcG9pbnRzPSIzNTcuNSwzODIuMDYyNSwzNjEuNSwzOTIuMDYyNSwzNjUuNSwzODIuMDYyNSwzNjEuNSwzODYuMDYyNSIgc3R5bGU9InN0cm9rZTojMTgxODE4O3N0cm9rZS13aWR0aDoxLjA7Ii8+PGxpbmUgc3R5bGU9InN0cm9rZTojMTgxODE4O3N0cm9rZS13aWR0aDoxLjA7IiB4MT0iMzYxLjUiIHgyPSIzNjEuNSIgeTE9IjQyNC45MDYzIiB5Mj0iNDQ0LjkwNjMiLz48cG9seWdvbiBmaWxsPSIjMTgxODE4IiBwb2ludHM9IjM1Ny41LDQzNC45MDYzLDM2MS41LDQ0NC45MDYzLDM2NS41LDQzNC45MDYzLDM2MS41LDQzOC45MDYzIiBzdHlsZT0ic3Ryb2tlOiMxODE4MTg7c3Ryb2tlLXdpZHRoOjEuMDsiLz48bGluZSBzdHlsZT0ic3Ryb2tlOiMxODE4MTg7c3Ryb2tlLXdpZHRoOjEuMDsiIHgxPSIyNjIuNzUiIHgyPSIyNjIuNzUiIHkxPSI1NjQuNTkzOCIgeTI9IjU4NC41OTM4Ii8+PHBvbHlnb24gZmlsbD0iIzE4MTgxOCIgcG9pbnRzPSIyNTguNzUsNTc0LjU5MzgsMjYyLjc1LDU4NC41OTM4LDI2Ni43NSw1NzQuNTkzOCwyNjIuNzUsNTc4LjU5MzgiIHN0eWxlPSJzdHJva2U6IzE4MTgxODtzdHJva2Utd2lkdGg6MS4wOyIvPjxsaW5lIHN0eWxlPSJzdHJva2U6IzE4MTgxODtzdHJva2Utd2lkdGg6MS4wOyIgeDE9IjI2Mi43NSIgeDI9IjI2Mi43NSIgeTE9IjYxNy40Mzc1IiB5Mj0iNjM3LjQzNzUiLz48cG9seWdvbiBmaWxsPSIjMTgxODE4IiBwb2ludHM9IjI1OC43NSw2MjcuNDM3NSwyNjIuNzUsNjM3LjQzNzUsMjY2Ljc1LDYyNy40Mzc1LDI2Mi43NSw2MzEuNDM3NSIgc3R5bGU9InN0cm9rZTojMTgxODE4O3N0cm9rZS13aWR0aDoxLjA7Ii8+PGxpbmUgc3R5bGU9InN0cm9rZTojMTgxODE4O3N0cm9rZS13aWR0aDoxLjA7IiB4MT0iMjYyLjc1IiB4Mj0iMjYyLjc1IiB5MT0iNjcwLjI4MTMiIHkyPSI2OTAuMjgxMyIvPjxwb2x5Z29uIGZpbGw9IiMxODE4MTgiIHBvaW50cz0iMjU4Ljc1LDY4MC4yODEzLDI2Mi43NSw2OTAuMjgxMywyNjYuNzUsNjgwLjI4MTMsMjYyLjc1LDY4NC4yODEzIiBzdHlsZT0ic3Ryb2tlOiMxODE4MTg7c3Ryb2tlLXdpZHRoOjEuMDsiLz48bGluZSBzdHlsZT0ic3Ryb2tlOiMxODE4MTg7c3Ryb2tlLXdpZHRoOjEuMDsiIHgxPSIyOTUuNSIgeDI9IjI2Mi43NSIgeTE9IjUwOS43NSIgeTI9IjUwOS43NSIvPjxsaW5lIHN0eWxlPSJzdHJva2U6IzE4MTgxODtzdHJva2Utd2lkdGg6MS4wOyIgeDE9IjI2Mi43NSIgeDI9IjI2Mi43NSIgeTE9IjUwOS43NSIgeTI9IjUzMS43NSIvPjxwb2x5Z29uIGZpbGw9IiMxODE4MTgiIHBvaW50cz0iMjU4Ljc1LDUyMS43NSwyNjIuNzUsNTMxLjc1LDI2Ni43NSw1MjEuNzUsMjYyLjc1LDUyNS43NSIgc3R5bGU9InN0cm9rZTojMTgxODE4O3N0cm9rZS13aWR0aDoxLjA7Ii8+PGxpbmUgc3R5bGU9InN0cm9rZTojMTgxODE4O3N0cm9rZS13aWR0aDoxLjA7IiB4MT0iNDI3LjUiIHgyPSI0NjAuMjUiIHkxPSI1MDkuNzUiIHkyPSI1MDkuNzUiLz48bGluZSBzdHlsZT0ic3Ryb2tlOiMxODE4MTg7c3Ryb2tlLXdpZHRoOjEuMDsiIHgxPSI0NjAuMjUiIHgyPSI0NjAuMjUiIHkxPSI1MDkuNzUiIHkyPSI1MzEuNzUiLz48cG9seWdvbiBmaWxsPSIjMTgxODE4IiBwb2ludHM9IjQ1Ni4yNSw1MjEuNzUsNDYwLjI1LDUzMS43NSw0NjQuMjUsNTIxLjc1LDQ2MC4yNSw1MjUuNzUiIHN0eWxlPSJzdHJva2U6IzE4MTgxODtzdHJva2Utd2lkdGg6MS4wOyIvPjxsaW5lIHN0eWxlPSJzdHJva2U6IzE4MTgxODtzdHJva2Utd2lkdGg6MS4wOyIgeDE9IjI2Mi43NSIgeDI9IjI2Mi43NSIgeTE9IjcyMy4xMjUiIHkyPSI3NDEuMTI1Ii8+PGxpbmUgc3R5bGU9InN0cm9rZTojMTgxODE4O3N0cm9rZS13aWR0aDoxLjA7IiB4MT0iMjYyLjc1IiB4Mj0iMzQ5LjUiIHkxPSI3NDEuMTI1IiB5Mj0iNzQxLjEyNSIvPjxwb2x5Z29uIGZpbGw9IiMxODE4MTgiIHBvaW50cz0iMzM5LjUsNzM3LjEyNSwzNDkuNSw3NDEuMTI1LDMzOS41LDc0NS4xMjUsMzQzLjUsNzQxLjEyNSIgc3R5bGU9InN0cm9rZTojMTgxODE4O3N0cm9rZS13aWR0aDoxLjA7Ii8+PGxpbmUgc3R5bGU9InN0cm9rZTojMTgxODE4O3N0cm9rZS13aWR0aDoxLjA7IiB4MT0iNDYwLjI1IiB4Mj0iNDYwLjI1IiB5MT0iNTY0LjU5MzgiIHkyPSI3NDEuMTI1Ii8+PGxpbmUgc3R5bGU9InN0cm9rZTojMTgxODE4O3N0cm9rZS13aWR0aDoxLjA7IiB4MT0iNDYwLjI1IiB4Mj0iMzczLjUiIHkxPSI3NDEuMTI1IiB5Mj0iNzQxLjEyNSIvPjxwb2x5Z29uIGZpbGw9IiMxODE4MTgiIHBvaW50cz0iMzgzLjUsNzM3LjEyNSwzNzMuNSw3NDEuMTI1LDM4My41LDc0NS4xMjUsMzc5LjUsNzQxLjEyNSIgc3R5bGU9InN0cm9rZTojMTgxODE4O3N0cm9rZS13aWR0aDoxLjA7Ii8+PGxpbmUgc3R5bGU9InN0cm9rZTojMTgxODE4O3N0cm9rZS13aWR0aDoxLjA7IiB4MT0iMzYxLjUiIHgyPSIzNjEuNSIgeTE9IjQ3Ny43NSIgeTI9IjQ5Ny43NSIvPjxwb2x5Z29uIGZpbGw9IiMxODE4MTgiIHBvaW50cz0iMzU3LjUsNDg3Ljc1LDM2MS41LDQ5Ny43NSwzNjUuNSw0ODcuNzUsMzYxLjUsNDkxLjc1IiBzdHlsZT0ic3Ryb2tlOiMxODE4MTg7c3Ryb2tlLXdpZHRoOjEuMDsiLz48bGluZSBzdHlsZT0ic3Ryb2tlOiMxODE4MTg7c3Ryb2tlLXdpZHRoOjEuMDsiIHgxPSIzNjEuNSIgeDI9IjM2MS41IiB5MT0iNzUzLjEyNSIgeTI9Ijc3My4xMjUiLz48cG9seWdvbiBmaWxsPSIjMTgxODE4IiBwb2ludHM9IjM1Ny41LDc2My4xMjUsMzYxLjUsNzczLjEyNSwzNjUuNSw3NjMuMTI1LDM2MS41LDc2Ny4xMjUiIHN0eWxlPSJzdHJva2U6IzE4MTgxODtzdHJva2Utd2lkdGg6MS4wOyIvPjxsaW5lIHN0eWxlPSJzdHJva2U6IzE4MTgxODtzdHJva2Utd2lkdGg6MS4wOyIgeDE9IjM2MS41IiB4Mj0iMzYxLjUiIHkxPSI4MDUuOTY4OCIgeTI9IjgyNS45Njg4Ii8+PHBvbHlnb24gZmlsbD0iIzE4MTgxOCIgcG9pbnRzPSIzNTcuNSw4MTUuOTY4OCwzNjEuNSw4MjUuOTY4OCwzNjUuNSw4MTUuOTY4OCwzNjEuNSw4MTkuOTY4OCIgc3R5bGU9InN0cm9rZTojMTgxODE4O3N0cm9rZS13aWR0aDoxLjA7Ii8+PGxpbmUgc3R5bGU9InN0cm9rZTojMTgxODE4O3N0cm9rZS13aWR0aDoxLjA7IiB4MT0iMjExLjUiIHgyPSIyMTEuNSIgeTE9Ijk0NS42NTYzIiB5Mj0iOTY1LjY1NjMiLz48cG9seWdvbiBmaWxsPSIjMTgxODE4IiBwb2ludHM9IjIwNy41LDk1NS42NTYzLDIxMS41LDk2NS42NTYzLDIxNS41LDk1NS42NTYzLDIxMS41LDk1OS42NTYzIiBzdHlsZT0ic3Ryb2tlOiMxODE4MTg7c3Ryb2tlLXdpZHRoOjEuMDsiLz48bGluZSBzdHlsZT0ic3Ryb2tlOiMxODE4MTg7c3Ryb2tlLXdpZHRoOjEuMDsiIHgxPSIyMTEuNSIgeDI9IjIxMS41IiB5MT0iOTk4LjUiIHkyPSIxMDE4LjUiLz48cG9seWdvbiBmaWxsPSIjMTgxODE4IiBwb2ludHM9IjIwNy41LDEwMDguNSwyMTEuNSwxMDE4LjUsMjE1LjUsMTAwOC41LDIxMS41LDEwMTIuNSIgc3R5bGU9InN0cm9rZTojMTgxODE4O3N0cm9rZS13aWR0aDoxLjA7Ii8+PGxpbmUgc3R5bGU9InN0cm9rZTojMTgxODE4O3N0cm9rZS13aWR0aDoxLjA7IiB4MT0iMTE4LjUiIHgyPSIxMDguNSIgeTE9IjEwODMuMzQzOCIgeTI9IjEwODMuMzQzOCIvPjxsaW5lIHN0eWxlPSJzdHJva2U6IzE4MTgxODtzdHJva2Utd2lkdGg6MS4wOyIgeDE9IjEwOC41IiB4Mj0iMTA4LjUiIHkxPSIxMDgzLjM0MzgiIHkyPSIxMTA1LjM0MzgiLz48cG9seWdvbiBmaWxsPSIjMTgxODE4IiBwb2ludHM9IjEwNC41LDEwOTUuMzQzOCwxMDguNSwxMTA1LjM0MzgsMTEyLjUsMTA5NS4zNDM4LDEwOC41LDEwOTkuMzQzOCIgc3R5bGU9InN0cm9rZTojMTgxODE4O3N0cm9rZS13aWR0aDoxLjA7Ii8+PGxpbmUgc3R5bGU9InN0cm9rZTojMTgxODE4O3N0cm9rZS13aWR0aDoxLjA7IiB4MT0iMzA0LjUiIHgyPSIzMTQuNSIgeTE9IjEwODMuMzQzOCIgeTI9IjEwODMuMzQzOCIvPjxsaW5lIHN0eWxlPSJzdHJva2U6IzE4MTgxODtzdHJva2Utd2lkdGg6MS4wOyIgeDE9IjMxNC41IiB4Mj0iMzE0LjUiIHkxPSIxMDgzLjM0MzgiIHkyPSIxMTA1LjM0MzgiLz48cG9seWdvbiBmaWxsPSIjMTgxODE4IiBwb2ludHM9IjMxMC41LDEwOTUuMzQzOCwzMTQuNSwxMTA1LjM0MzgsMzE4LjUsMTA5NS4zNDM4LDMxNC41LDEwOTkuMzQzOCIgc3R5bGU9InN0cm9rZTojMTgxODE4O3N0cm9rZS13aWR0aDoxLjA7Ii8+PGxpbmUgc3R5bGU9InN0cm9rZTojMTgxODE4O3N0cm9rZS13aWR0aDoxLjA7IiB4MT0iMTA4LjUiIHgyPSIxMDguNSIgeTE9IjExMzguMTg3NSIgeTI9IjExNTYuMTg3NSIvPjxsaW5lIHN0eWxlPSJzdHJva2U6IzE4MTgxODtzdHJva2Utd2lkdGg6MS4wOyIgeDE9IjEwOC41IiB4Mj0iMTk5LjUiIHkxPSIxMTU2LjE4NzUiIHkyPSIxMTU2LjE4NzUiLz48cG9seWdvbiBmaWxsPSIjMTgxODE4IiBwb2ludHM9IjE4OS41LDExNTIuMTg3NSwxOTkuNSwxMTU2LjE4NzUsMTg5LjUsMTE2MC4xODc1LDE5My41LDExNTYuMTg3NSIgc3R5bGU9InN0cm9rZTojMTgxODE4O3N0cm9rZS13aWR0aDoxLjA7Ii8+PGxpbmUgc3R5bGU9InN0cm9rZTojMTgxODE4O3N0cm9rZS13aWR0aDoxLjA7IiB4MT0iMzE0LjUiIHgyPSIzMTQuNSIgeTE9IjExMzguMTg3NSIgeTI9IjExNTYuMTg3NSIvPjxsaW5lIHN0eWxlPSJzdHJva2U6IzE4MTgxODtzdHJva2Utd2lkdGg6MS4wOyIgeDE9IjMxNC41IiB4Mj0iMjIzLjUiIHkxPSIxMTU2LjE4NzUiIHkyPSIxMTU2LjE4NzUiLz48cG9seWdvbiBmaWxsPSIjMTgxODE4IiBwb2ludHM9IjIzMy41LDExNTIuMTg3NSwyMjMuNSwxMTU2LjE4NzUsMjMzLjUsMTE2MC4xODc1LDIyOS41LDExNTYuMTg3NSIgc3R5bGU9InN0cm9rZTojMTgxODE4O3N0cm9rZS13aWR0aDoxLjA7Ii8+PGxpbmUgc3R5bGU9InN0cm9rZTojMTgxODE4O3N0cm9rZS13aWR0aDoxLjA7IiB4MT0iMjExLjUiIHgyPSIyMTEuNSIgeTE9IjEwNTEuMzQzOCIgeTI9IjEwNzEuMzQzOCIvPjxwb2x5Z29uIGZpbGw9IiMxODE4MTgiIHBvaW50cz0iMjA3LjUsMTA2MS4zNDM4LDIxMS41LDEwNzEuMzQzOCwyMTUuNSwxMDYxLjM0MzgsMjExLjUsMTA2NS4zNDM4IiBzdHlsZT0ic3Ryb2tlOiMxODE4MTg7c3Ryb2tlLXdpZHRoOjEuMDsiLz48bGluZSBzdHlsZT0ic3Ryb2tlOiMxODE4MTg7c3Ryb2tlLXdpZHRoOjEuMDsiIHgxPSIyOTUuNSIgeDI9IjIxMS41IiB5MT0iODkwLjgxMjUiIHkyPSI4OTAuODEyNSIvPjxsaW5lIHN0eWxlPSJzdHJva2U6IzE4MTgxODtzdHJva2Utd2lkdGg6MS4wOyIgeDE9IjIxMS41IiB4Mj0iMjExLjUiIHkxPSI4OTAuODEyNSIgeTI9IjkxMi44MTI1Ii8+PHBvbHlnb24gZmlsbD0iIzE4MTgxOCIgcG9pbnRzPSIyMDcuNSw5MDIuODEyNSwyMTEuNSw5MTIuODEyNSwyMTUuNSw5MDIuODEyNSwyMTEuNSw5MDYuODEyNSIgc3R5bGU9InN0cm9rZTojMTgxODE4O3N0cm9rZS13aWR0aDoxLjA7Ii8+PGxpbmUgc3R5bGU9InN0cm9rZTojMTgxODE4O3N0cm9rZS13aWR0aDoxLjA7IiB4MT0iNDI3LjUiIHgyPSI1MTEuNSIgeTE9Ijg5MC44MTI1IiB5Mj0iODkwLjgxMjUiLz48bGluZSBzdHlsZT0ic3Ryb2tlOiMxODE4MTg7c3Ryb2tlLXdpZHRoOjEuMDsiIHgxPSI1MTEuNSIgeDI9IjUxMS41IiB5MT0iODkwLjgxMjUiIHkyPSI5MTIuODEyNSIvPjxwb2x5Z29uIGZpbGw9IiMxODE4MTgiIHBvaW50cz0iNTA3LjUsOTAyLjgxMjUsNTExLjUsOTEyLjgxMjUsNTE1LjUsOTAyLjgxMjUsNTExLjUsOTA2LjgxMjUiIHN0eWxlPSJzdHJva2U6IzE4MTgxODtzdHJva2Utd2lkdGg6MS4wOyIvPjxsaW5lIHN0eWxlPSJzdHJva2U6IzE4MTgxODtzdHJva2Utd2lkdGg6MS4wOyIgeDE9IjIxMS41IiB4Mj0iMjExLjUiIHkxPSIxMTY4LjE4NzUiIHkyPSIxMTg2LjE4NzUiLz48bGluZSBzdHlsZT0ic3Ryb2tlOiMxODE4MTg7c3Ryb2tlLXdpZHRoOjEuMDsiIHgxPSIyMTEuNSIgeDI9IjM0OS41IiB5MT0iMTE4Ni4xODc1IiB5Mj0iMTE4Ni4xODc1Ii8+PHBvbHlnb24gZmlsbD0iIzE4MTgxOCIgcG9pbnRzPSIzMzkuNSwxMTgyLjE4NzUsMzQ5LjUsMTE4Ni4xODc1LDMzOS41LDExOTAuMTg3NSwzNDMuNSwxMTg2LjE4NzUiIHN0eWxlPSJzdHJva2U6IzE4MTgxODtzdHJva2Utd2lkdGg6MS4wOyIvPjxsaW5lIHN0eWxlPSJzdHJva2U6IzE4MTgxODtzdHJva2Utd2lkdGg6MS4wOyIgeDE9IjUxMS41IiB4Mj0iNTExLjUiIHkxPSI5NDUuNjU2MyIgeTI9IjExODYuMTg3NSIvPjxsaW5lIHN0eWxlPSJzdHJva2U6IzE4MTgxODtzdHJva2Utd2lkdGg6MS4wOyIgeDE9IjUxMS41IiB4Mj0iMzczLjUiIHkxPSIxMTg2LjE4NzUiIHkyPSIxMTg2LjE4NzUiLz48cG9seWdvbiBmaWxsPSIjMTgxODE4IiBwb2ludHM9IjM4My41LDExODIuMTg3NSwzNzMuNSwxMTg2LjE4NzUsMzgzLjUsMTE5MC4xODc1LDM3OS41LDExODYuMTg3NSIgc3R5bGU9InN0cm9rZTojMTgxODE4O3N0cm9rZS13aWR0aDoxLjA7Ii8+PGxpbmUgc3R5bGU9InN0cm9rZTojMTgxODE4O3N0cm9rZS13aWR0aDoxLjA7IiB4MT0iMzYxLjUiIHgyPSIzNjEuNSIgeTE9Ijg1OC44MTI1IiB5Mj0iODc4LjgxMjUiLz48cG9seWdvbiBmaWxsPSIjMTgxODE4IiBwb2ludHM9IjM1Ny41LDg2OC44MTI1LDM2MS41LDg3OC44MTI1LDM2NS41LDg2OC44MTI1LDM2MS41LDg3Mi44MTI1IiBzdHlsZT0ic3Ryb2tlOiMxODE4MTg7c3Ryb2tlLXdpZHRoOjEuMDsiLz48bGluZSBzdHlsZT0ic3Ryb2tlOiMxODE4MTg7c3Ryb2tlLXdpZHRoOjEuMDsiIHgxPSIzNjEuNSIgeDI9IjM2MS41IiB5MT0iMTE5OC4xODc1IiB5Mj0iMTIxOC4xODc1Ii8+PHBvbHlnb24gZmlsbD0iIzE4MTgxOCIgcG9pbnRzPSIzNTcuNSwxMjA4LjE4NzUsMzYxLjUsMTIxOC4xODc1LDM2NS41LDEyMDguMTg3NSwzNjEuNSwxMjEyLjE4NzUiIHN0eWxlPSJzdHJva2U6IzE4MTgxODtzdHJva2Utd2lkdGg6MS4wOyIvPjxsaW5lIHN0eWxlPSJzdHJva2U6IzE4MTgxODtzdHJva2Utd2lkdGg6MS4wOyIgeDE9IjM2MS41IiB4Mj0iMzYxLjUiIHkxPSIxMjUxLjAzMTMiIHkyPSIxMjcxLjAzMTMiLz48cG9seWdvbiBmaWxsPSIjMTgxODE4IiBwb2ludHM9IjM1Ny41LDEyNjEuMDMxMywzNjEuNSwxMjcxLjAzMTMsMzY1LjUsMTI2MS4wMzEzLDM2MS41LDEyNjUuMDMxMyIgc3R5bGU9InN0cm9rZTojMTgxODE4O3N0cm9rZS13aWR0aDoxLjA7Ii8+PGxpbmUgc3R5bGU9InN0cm9rZTojMTgxODE4O3N0cm9rZS13aWR0aDoxLjA7IiB4MT0iMzYxLjUiIHgyPSIzNjEuNSIgeTE9IjEzMDMuODc1IiB5Mj0iMTMyMy44NzUiLz48cG9seWdvbiBmaWxsPSIjMTgxODE4IiBwb2ludHM9IjM1Ny41LDEzMTMuODc1LDM2MS41LDEzMjMuODc1LDM2NS41LDEzMTMuODc1LDM2MS41LDEzMTcuODc1IiBzdHlsZT0ic3Ryb2tlOiMxODE4MTg7c3Ryb2tlLXdpZHRoOjEuMDsiLz48IS0tU1JDPVtoUDcxUWlDbTM4UmxWV2VUS3pXSmY4VEhhWjg2NnVvTXpreDVJWTltdlNub01saHNpdkVjUERxZk9xVDlsX05oLXZ0bEdzLUcweG92WGRZanllRVdQdHQyOV9aRzhYVmRwTGZIM1RiSE1wOUdVNG5ncWJRVUxuMVFQQ1lrQTJpNWE2LWcyYUxXTWJYZ1FKLVRKa19aeTRYdVdVcXYzY0llendYenJTdXhFc244MGRnZWRSX3RxR2YybmN1bUE0YXdndy1tekp2QXRnRVBSWjFnczUyakw1dXVReDcxRXljalZZdF9aMzlqTjh4b3JRRTRpR0taY0RVMTcyeVpzZldKeVZfenBCWGs4S25vLUNxMUR5SDdnc0pNVFR3VDRJOUdZUEtibmFjU3JpdG5leFhteU1KazRUOFRuQ3RDVTBuWElMbWxHLVdaUkNwaDF6ZTNzM1MwXS0tPjwvZz48L3N2Zz4=;" vertex="1" parent="1">
            <mxGeometry x="170" y="-1430" width="603" height="1367" as="geometry" />
          </mxCell>
        </UserObject>
        <UserObject label="" plantUmlData="{&#xa;  &quot;data&quot;: &quot;@startuml\n\nactor Student\nactor College\nactor Admin\nactor Guest\n\ndatabase \&quot;Event Data\&quot; {\n  [Events]\n}\n\nStudent -&gt; (Student Login)\nCollege -&gt; (College Login)\nAdmin -&gt; (Admin Login)\nGuest -&gt; (Guest Access)\n\n(Student Login) --&gt; (Access Student Dashboard)\n(College Login) --&gt; (Access College Dashboard)\n(Admin Login) --&gt; (Access Admin Dashboard)\n\n(Access Student Dashboard) --&gt; (View Events)\n(Access Student Dashboard) --&gt; (Search Events)\n(Access Student Dashboard) --&gt; (Register for Events)\n\n(Access College Dashboard) --&gt; (View Events)\n(Access College Dashboard) --&gt; (Search Events)\n(Access College Dashboard) --&gt; (Request Event Registration)\n\n(Access Admin Dashboard) --&gt; (View Events)\n(Access Admin Dashboard) --&gt; (Search Events)\n(Access Admin Dashboard) --&gt; (Approve or Decline Request)\n\n(Guest Access) --&gt; (View Events)\n(Guest Access) --&gt; (Search Events)\n\n(View Events) --&gt; (Events)\n(Search Events) --&gt; (Events)\n(Register for Events) --&gt; (Events)\n(Request Event Registration) --&gt; (Events)\n(Approve or Decline Request) --&gt; (Events)\n\n@enduml\n&quot;,&#xa;  &quot;format&quot;: &quot;svg&quot;&#xa;}" id="nF57_oaCUXwNxO_2Wn-n-10">
          <mxCell style="shape=image;noLabel=1;verticalAlign=top;aspect=fixed;imageAspect=0;image=data:image/svg+xml,PD94bWwgdmVyc2lvbj0iMS4wIiBlbmNvZGluZz0idXMtYXNjaWkiIHN0YW5kYWxvbmU9Im5vIj8+PHN2ZyB4bWxucz0iaHR0cDovL3d3dy53My5vcmcvMjAwMC9zdmciIHhtbG5zOnhsaW5rPSJodHRwOi8vd3d3LnczLm9yZy8xOTk5L3hsaW5rIiBjb250ZW50U3R5bGVUeXBlPSJ0ZXh0L2NzcyIgaGVpZ2h0PSI1MDRweCIgcHJlc2VydmVBc3BlY3RSYXRpbz0ibm9uZSIgc3R5bGU9IndpZHRoOjEwMDVweDtoZWlnaHQ6NTA0cHg7YmFja2dyb3VuZDojRkZGRkZGOyIgdmVyc2lvbj0iMS4xIiB2aWV3Qm94PSIwIDAgMTAwNSA1MDQiIHdpZHRoPSIxMDA1cHgiIHpvb21BbmRQYW49Im1hZ25pZnkiPjxkZWZzLz48Zz48IS0tY2x1c3RlciBFdmVudCBEYXRhLS0+PGcgaWQ9ImNsdXN0ZXJfRXZlbnQgRGF0YSI+PHBhdGggZD0iTTQ2OSwzODguOTYgQzQ2OSwzNzguOTYgNTI2LDM3OC45NiA1MjYsMzc4Ljk2IEM1MjYsMzc4Ljk2IDU4MywzNzguOTYgNTgzLDM4OC45NiBMNTgzLDQ3Ny45NiBDNTgzLDQ4Ny45NiA1MjYsNDg3Ljk2IDUyNiw0ODcuOTYgQzUyNiw0ODcuOTYgNDY5LDQ4Ny45NiA0NjksNDc3Ljk2IEw0NjksMzg4Ljk2ICIgZmlsbD0ibm9uZSIgc3R5bGU9InN0cm9rZTojMTgxODE4O3N0cm9rZS13aWR0aDoxLjA7Ii8+PHBhdGggZD0iTTQ2OSwzODguOTYgQzQ2OSwzOTguOTYgNTI2LDM5OC45NiA1MjYsMzk4Ljk2IEM1MjYsMzk4Ljk2IDU4MywzOTguOTYgNTgzLDM4OC45NiAiIGZpbGw9Im5vbmUiIHN0eWxlPSJzdHJva2U6IzE4MTgxODtzdHJva2Utd2lkdGg6MS4wOyIvPjx0ZXh0IGZpbGw9IiMwMDAwMDAiIGZvbnQtZmFtaWx5PSJzYW5zLXNlcmlmIiBmb250LXNpemU9IjE0IiBmb250LXdlaWdodD0iYm9sZCIgbGVuZ3RoQWRqdXN0PSJzcGFjaW5nIiB0ZXh0TGVuZ3RoPSI3MCIgeD0iNDkxIiB5PSI0MTQuMTk0NCI+RXZlbnQgRGF0YTwvdGV4dD48L2c+PCEtLWVudGl0eSBFdmVudHMtLT48ZyBpZD0iZWxlbV9FdmVudHMiPjxyZWN0IGZpbGw9IiNGMUYxRjEiIGhlaWdodD0iNDQuOTg0NCIgcng9IjIuNSIgcnk9IjIuNSIgc3R5bGU9InN0cm9rZTojMTgxODE4O3N0cm9rZS13aWR0aDowLjU7IiB3aWR0aD0iODIiIHg9IjQ4NSIgeT0iNDI2Ljk2Ii8+PHJlY3QgZmlsbD0iI0YxRjFGMSIgaGVpZ2h0PSIxMCIgc3R5bGU9InN0cm9rZTojMTgxODE4O3N0cm9rZS13aWR0aDowLjU7IiB3aWR0aD0iMTUiIHg9IjU0NyIgeT0iNDMxLjk2Ii8+PHJlY3QgZmlsbD0iI0YxRjFGMSIgaGVpZ2h0PSIyIiBzdHlsZT0ic3Ryb2tlOiMxODE4MTg7c3Ryb2tlLXdpZHRoOjAuNTsiIHdpZHRoPSI0IiB4PSI1NDUiIHk9IjQzMy45NiIvPjxyZWN0IGZpbGw9IiNGMUYxRjEiIGhlaWdodD0iMiIgc3R5bGU9InN0cm9rZTojMTgxODE4O3N0cm9rZS13aWR0aDowLjU7IiB3aWR0aD0iNCIgeD0iNTQ1IiB5PSI0MzcuOTYiLz48dGV4dCBmaWxsPSIjMDAwMDAwIiBmb250LWZhbWlseT0ic2Fucy1zZXJpZiIgZm9udC1zaXplPSIxNCIgbGVuZ3RoQWRqdXN0PSJzcGFjaW5nIiB0ZXh0TGVuZ3RoPSI0MiIgeD0iNTAwIiB5PSI0NjAuMTk0NCI+RXZlbnRzPC90ZXh0PjwvZz48IS0tZW50aXR5IFN0dWRlbnQtLT48ZyBpZD0iZWxlbV9TdHVkZW50Ij48ZWxsaXBzZSBjeD0iMjM0IiBjeT0iNTMuNDYiIGZpbGw9IiNGMUYxRjEiIHJ4PSI4IiByeT0iOCIgc3R5bGU9InN0cm9rZTojMTgxODE4O3N0cm9rZS13aWR0aDowLjU7Ii8+PHBhdGggZD0iTTIzNCw2MS40NiBMMjM0LDg4LjQ2IE0yMjEsNjkuNDYgTDI0Nyw2OS40NiBNMjM0LDg4LjQ2IEwyMjEsMTAzLjQ2IE0yMzQsODguNDYgTDI0NywxMDMuNDYgIiBmaWxsPSJub25lIiBzdHlsZT0ic3Ryb2tlOiMxODE4MTg7c3Ryb2tlLXdpZHRoOjAuNTsiLz48dGV4dCBmaWxsPSIjMDAwMDAwIiBmb250LWZhbWlseT0ic2Fucy1zZXJpZiIgZm9udC1zaXplPSIxNCIgbGVuZ3RoQWRqdXN0PSJzcGFjaW5nIiB0ZXh0TGVuZ3RoPSI0OSIgeD0iMjA5LjUiIHk9IjExOC4xOTQ0Ij5TdHVkZW50PC90ZXh0PjwvZz48IS0tZW50aXR5IENvbGxlZ2UtLT48ZyBpZD0iZWxlbV9Db2xsZWdlIj48ZWxsaXBzZSBjeD0iMzE4IiBjeT0iNTMuNDYiIGZpbGw9IiNGMUYxRjEiIHJ4PSI4IiByeT0iOCIgc3R5bGU9InN0cm9rZTojMTgxODE4O3N0cm9rZS13aWR0aDowLjU7Ii8+PHBhdGggZD0iTTMxOCw2MS40NiBMMzE4LDg4LjQ2IE0zMDUsNjkuNDYgTDMzMSw2OS40NiBNMzE4LDg4LjQ2IEwzMDUsMTAzLjQ2IE0zMTgsODguNDYgTDMzMSwxMDMuNDYgIiBmaWxsPSJub25lIiBzdHlsZT0ic3Ryb2tlOiMxODE4MTg7c3Ryb2tlLXdpZHRoOjAuNTsiLz48dGV4dCBmaWxsPSIjMDAwMDAwIiBmb250LWZhbWlseT0ic2Fucy1zZXJpZiIgZm9udC1zaXplPSIxNCIgbGVuZ3RoQWRqdXN0PSJzcGFjaW5nIiB0ZXh0TGVuZ3RoPSI0OSIgeD0iMjkzLjUiIHk9IjExOC4xOTQ0Ij5Db2xsZWdlPC90ZXh0PjwvZz48IS0tZW50aXR5IEFkbWluLS0+PGcgaWQ9ImVsZW1fQWRtaW4iPjxlbGxpcHNlIGN4PSI3NjgiIGN5PSI1My40NiIgZmlsbD0iI0YxRjFGMSIgcng9IjgiIHJ5PSI4IiBzdHlsZT0ic3Ryb2tlOiMxODE4MTg7c3Ryb2tlLXdpZHRoOjAuNTsiLz48cGF0aCBkPSJNNzY4LDYxLjQ2IEw3NjgsODguNDYgTTc1NSw2OS40NiBMNzgxLDY5LjQ2IE03NjgsODguNDYgTDc1NSwxMDMuNDYgTTc2OCw4OC40NiBMNzgxLDEwMy40NiAiIGZpbGw9Im5vbmUiIHN0eWxlPSJzdHJva2U6IzE4MTgxODtzdHJva2Utd2lkdGg6MC41OyIvPjx0ZXh0IGZpbGw9IiMwMDAwMDAiIGZvbnQtZmFtaWx5PSJzYW5zLXNlcmlmIiBmb250LXNpemU9IjE0IiBsZW5ndGhBZGp1c3Q9InNwYWNpbmciIHRleHRMZW5ndGg9IjM2IiB4PSI3NTAiIHk9IjExOC4xOTQ0Ij5BZG1pbjwvdGV4dD48L2c+PCEtLWVudGl0eSBHdWVzdC0tPjxnIGlkPSJlbGVtX0d1ZXN0Ij48ZWxsaXBzZSBjeD0iNTcyIiBjeT0iMTg4LjQ2IiBmaWxsPSIjRjFGMUYxIiByeD0iOCIgcnk9IjgiIHN0eWxlPSJzdHJva2U6IzE4MTgxODtzdHJva2Utd2lkdGg6MC41OyIvPjxwYXRoIGQ9Ik01NzIsMTk2LjQ2IEw1NzIsMjIzLjQ2IE01NTksMjA0LjQ2IEw1ODUsMjA0LjQ2IE01NzIsMjIzLjQ2IEw1NTksMjM4LjQ2IE01NzIsMjIzLjQ2IEw1ODUsMjM4LjQ2ICIgZmlsbD0ibm9uZSIgc3R5bGU9InN0cm9rZTojMTgxODE4O3N0cm9rZS13aWR0aDowLjU7Ii8+PHRleHQgZmlsbD0iIzAwMDAwMCIgZm9udC1mYW1pbHk9InNhbnMtc2VyaWYiIGZvbnQtc2l6ZT0iMTQiIGxlbmd0aEFkanVzdD0ic3BhY2luZyIgdGV4dExlbmd0aD0iMzUiIHg9IjU1NC41IiB5PSIyNTMuMTk0NCI+R3Vlc3Q8L3RleHQ+PC9nPjxnIGlkPSJlbGVtX1N0dWRlbnQgTG9naW4iPjxlbGxpcHNlIGN4PSI0NDQuMTgzNCIgY3k9IjgyLjY5NjciIGZpbGw9IiNGMUYxRjEiIHJ4PSI2Ni42ODM0IiByeT0iMTUuNzM2NyIgc3R5bGU9InN0cm9rZTojMTgxODE4O3N0cm9rZS13aWR0aDowLjU7Ii8+PHRleHQgZmlsbD0iIzAwMDAwMCIgZm9udC1mYW1pbHk9InNhbnMtc2VyaWYiIGZvbnQtc2l6ZT0iMTQiIGxlbmd0aEFkanVzdD0ic3BhY2luZyIgdGV4dExlbmd0aD0iOTEiIHg9IjM5OC42ODM0IiB5PSI4Ni40Mzg5Ij5TdHVkZW50IExvZ2luPC90ZXh0PjwvZz48ZyBpZD0iZWxlbV9Db2xsZWdlIExvZ2luIj48ZWxsaXBzZSBjeD0iMTA4LjE4MzQiIGN5PSI4Mi42OTY3IiBmaWxsPSIjRjFGMUYxIiByeD0iNjYuNjgzNCIgcnk9IjE1LjczNjciIHN0eWxlPSJzdHJva2U6IzE4MTgxODtzdHJva2Utd2lkdGg6MC41OyIvPjx0ZXh0IGZpbGw9IiMwMDAwMDAiIGZvbnQtZmFtaWx5PSJzYW5zLXNlcmlmIiBmb250LXNpemU9IjE0IiBsZW5ndGhBZGp1c3Q9InNwYWNpbmciIHRleHRMZW5ndGg9IjkxIiB4PSI2Mi42ODM0IiB5PSI4Ni40Mzg5Ij5Db2xsZWdlIExvZ2luPC90ZXh0PjwvZz48ZyBpZD0iZWxlbV9BZG1pbiBMb2dpbiI+PGVsbGlwc2UgY3g9Ijg4My4wNTE5IiBjeT0iODIuNjcwNCIgZmlsbD0iI0YxRjFGMSIgcng9IjYxLjU1MTkiIHJ5PSIxNC43MTA0IiBzdHlsZT0ic3Ryb2tlOiMxODE4MTg7c3Ryb2tlLXdpZHRoOjAuNTsiLz48dGV4dCBmaWxsPSIjMDAwMDAwIiBmb250LWZhbWlseT0ic2Fucy1zZXJpZiIgZm9udC1zaXplPSIxNCIgbGVuZ3RoQWRqdXN0PSJzcGFjaW5nIiB0ZXh0TGVuZ3RoPSI3OCIgeD0iODQ0LjA1MTkiIHk9Ijg2LjQxMjYiPkFkbWluIExvZ2luPC90ZXh0PjwvZz48ZyBpZD0iZWxlbV9HdWVzdCBBY2Nlc3MiPjxlbGxpcHNlIGN4PSI2ODguODg3OCIgY3k9IjIxNy42Mzc2IiBmaWxsPSIjRjFGMUYxIiByeD0iNjMuODg3OCIgcnk9IjE1LjE3NzYiIHN0eWxlPSJzdHJva2U6IzE4MTgxODtzdHJva2Utd2lkdGg6MC41OyIvPjx0ZXh0IGZpbGw9IiMwMDAwMDAiIGZvbnQtZmFtaWx5PSJzYW5zLXNlcmlmIiBmb250LXNpemU9IjE0IiBsZW5ndGhBZGp1c3Q9InNwYWNpbmciIHRleHRMZW5ndGg9Ijg0IiB4PSI2NDYuODg3OCIgeT0iMjIxLjM3OTciPkd1ZXN0IEFjY2VzczwvdGV4dD48L2c+PGcgaWQ9ImVsZW1fQWNjZXNzIFN0dWRlbnQgRGFzaGJvYXJkIj48ZWxsaXBzZSBjeD0iNDE4Ljk4NSIgY3k9IjIxNy40NTciIGZpbGw9IiNGMUYxRjEiIHJ4PSIxMDAuNDg1IiByeT0iMjIuNDk3IiBzdHlsZT0ic3Ryb2tlOiMxODE4MTg7c3Ryb2tlLXdpZHRoOjAuNTsiLz48dGV4dCBmaWxsPSIjMDAwMDAwIiBmb250LWZhbWlseT0ic2Fucy1zZXJpZiIgZm9udC1zaXplPSIxNCIgbGVuZ3RoQWRqdXN0PSJzcGFjaW5nIiB0ZXh0TGVuZ3RoPSIxNjgiIHg9IjMzNC45ODUiIHk9IjIyMS4xOTkyIj5BY2Nlc3MgU3R1ZGVudCBEYXNoYm9hcmQ8L3RleHQ+PC9nPjxnIGlkPSJlbGVtX0FjY2VzcyBDb2xsZWdlIERhc2hib2FyZCI+PGVsbGlwc2UgY3g9IjE1Ny45ODUiIGN5PSIyMTcuNDU3IiBmaWxsPSIjRjFGMUYxIiByeD0iMTAwLjQ4NSIgcnk9IjIyLjQ5NyIgc3R5bGU9InN0cm9rZTojMTgxODE4O3N0cm9rZS13aWR0aDowLjU7Ii8+PHRleHQgZmlsbD0iIzAwMDAwMCIgZm9udC1mYW1pbHk9InNhbnMtc2VyaWYiIGZvbnQtc2l6ZT0iMTQiIGxlbmd0aEFkanVzdD0ic3BhY2luZyIgdGV4dExlbmd0aD0iMTY4IiB4PSI3My45ODUiIHk9IjIyMS4xOTkyIj5BY2Nlc3MgQ29sbGVnZSBEYXNoYm9hcmQ8L3RleHQ+PC9nPjxnIGlkPSJlbGVtX0FjY2VzcyBBZG1pbiBEYXNoYm9hcmQiPjxlbGxpcHNlIGN4PSI4ODMuMDE4MiIgY3k9IjIxNy4yNjM2IiBmaWxsPSIjRjFGMUYxIiByeD0iOTQuNTE4MiIgcnk9IjIxLjMwMzYiIHN0eWxlPSJzdHJva2U6IzE4MTgxODtzdHJva2Utd2lkdGg6MC41OyIvPjx0ZXh0IGZpbGw9IiMwMDAwMDAiIGZvbnQtZmFtaWx5PSJzYW5zLXNlcmlmIiBmb250LXNpemU9IjE0IiBsZW5ndGhBZGp1c3Q9InNwYWNpbmciIHRleHRMZW5ndGg9IjE1NSIgeD0iODA1LjUxODIiIHk9IjIyMS4wMDU4Ij5BY2Nlc3MgQWRtaW4gRGFzaGJvYXJkPC90ZXh0PjwvZz48ZyBpZD0iZWxlbV9WaWV3IEV2ZW50cyI+PGVsbGlwc2UgY3g9IjY4OS4wNTE5IiBjeT0iMzM5LjE3MDQiIGZpbGw9IiNGMUYxRjEiIHJ4PSI2MS41NTE5IiByeT0iMTQuNzEwNCIgc3R5bGU9InN0cm9rZTojMTgxODE4O3N0cm9rZS13aWR0aDowLjU7Ii8+PHRleHQgZmlsbD0iIzAwMDAwMCIgZm9udC1mYW1pbHk9InNhbnMtc2VyaWYiIGZvbnQtc2l6ZT0iMTQiIGxlbmd0aEFkanVzdD0ic3BhY2luZyIgdGV4dExlbmd0aD0iNzgiIHg9IjY1MC4wNTE5IiB5PSIzNDIuOTEyNiI+VmlldyBFdmVudHM8L3RleHQ+PC9nPjxnIGlkPSJlbGVtX1NlYXJjaCBFdmVudHMiPjxlbGxpcHNlIGN4PSI1MjYuMTgzNCIgY3k9IjMzOS4xOTY3IiBmaWxsPSIjRjFGMUYxIiByeD0iNjYuNjgzNCIgcnk9IjE1LjczNjciIHN0eWxlPSJzdHJva2U6IzE4MTgxODtzdHJva2Utd2lkdGg6MC41OyIvPjx0ZXh0IGZpbGw9IiMwMDAwMDAiIGZvbnQtZmFtaWx5PSJzYW5zLXNlcmlmIiBmb250LXNpemU9IjE0IiBsZW5ndGhBZGp1c3Q9InNwYWNpbmciIHRleHRMZW5ndGg9IjkxIiB4PSI0ODAuNjgzNCIgeT0iMzQyLjkzODkiPlNlYXJjaCBFdmVudHM8L3RleHQ+PC9nPjxnIGlkPSJlbGVtX1JlZ2lzdGVyIGZvciBFdmVudHMiPjxlbGxpcHNlIGN4PSIzNDAuMTA2MiIgY3k9IjMzOC43ODEyIiBmaWxsPSIjRjFGMUYxIiByeD0iODQuNjA2MiIgcnk9IjE5LjMyMTIiIHN0eWxlPSJzdHJva2U6IzE4MTgxODtzdHJva2Utd2lkdGg6MC41OyIvPjx0ZXh0IGZpbGw9IiMwMDAwMDAiIGZvbnQtZmFtaWx5PSJzYW5zLXNlcmlmIiBmb250LXNpemU9IjE0IiBsZW5ndGhBZGp1c3Q9InNwYWNpbmciIHRleHRMZW5ndGg9IjEzMyIgeD0iMjczLjYwNjIiIHk9IjM0Mi41MjM0Ij5SZWdpc3RlciBmb3IgRXZlbnRzPC90ZXh0PjwvZz48ZyBpZD0iZWxlbV9SZXF1ZXN0IEV2ZW50IFJlZ2lzdHJhdGlvbiI+PGVsbGlwc2UgY3g9IjExMi45ODIzIiBjeT0iMzM4Ljc1NjUiIGZpbGw9IiNGMUYxRjEiIHJ4PSIxMDYuOTgyMyIgcnk9IjIzLjc5NjUiIHN0eWxlPSJzdHJva2U6IzE4MTgxODtzdHJva2Utd2lkdGg6MC41OyIvPjx0ZXh0IGZpbGw9IiMwMDAwMDAiIGZvbnQtZmFtaWx5PSJzYW5zLXNlcmlmIiBmb250LXNpemU9IjE0IiBsZW5ndGhBZGp1c3Q9InNwYWNpbmciIHRleHRMZW5ndGg9IjE4MiIgeD0iMjEuOTgyMyIgeT0iMzQyLjQ5ODciPlJlcXVlc3QgRXZlbnQgUmVnaXN0cmF0aW9uPC90ZXh0PjwvZz48ZyBpZD0iZWxlbV9BcHByb3ZlIG9yIERlY2xpbmUgUmVxdWVzdCI+PGVsbGlwc2UgY3g9Ijg5Mi45ODIzIiBjeT0iMzM4Ljc1NjUiIGZpbGw9IiNGMUYxRjEiIHJ4PSIxMDYuOTgyMyIgcnk9IjIzLjc5NjUiIHN0eWxlPSJzdHJva2U6IzE4MTgxODtzdHJva2Utd2lkdGg6MC41OyIvPjx0ZXh0IGZpbGw9IiMwMDAwMDAiIGZvbnQtZmFtaWx5PSJzYW5zLXNlcmlmIiBmb250LXNpemU9IjE0IiBsZW5ndGhBZGp1c3Q9InNwYWNpbmciIHRleHRMZW5ndGg9IjE4MiIgeD0iODAxLjk4MjMiIHk9IjM0Mi40OTg3Ij5BcHByb3ZlIG9yIERlY2xpbmUgUmVxdWVzdDwvdGV4dD48L2c+PCEtLWxpbmsgU3R1ZGVudCB0byBTdHVkZW50IExvZ2luLS0+PGcgaWQ9ImxpbmtfU3R1ZGVudF9TdHVkZW50IExvZ2luIj48cGF0aCBkPSJNMjU3Ljc4LDQ0LjYyIEMyNjcuMzEsMzIuODYgMjc5LjQxLDIxLjMyIDI5My41LDE0Ljk2IEMzMTMuMzUsNiAzMjEuNjUsOC42NiAzNDIuNSwxNC45NiBDMzc2LjMzLDI1LjE4IDQwNC43MjIsNDYuODE5MiA0MjMuNDkyLDYzLjM4OTIgIiBmaWxsPSJub25lIiBpZD0iU3R1ZGVudC10by1TdHVkZW50IExvZ2luIiBzdHlsZT0ic3Ryb2tlOiMxODE4MTg7c3Ryb2tlLXdpZHRoOjEuMDsiLz48cG9seWdvbiBmaWxsPSIjMTgxODE4IiBwb2ludHM9IjQyNy45OSw2Ny4zNiw0MjMuODkwMiw1OC40MDUsNDI0LjI0MTYsNjQuMDUxLDQxOC41OTU3LDY0LjQwMjQsNDI3Ljk5LDY3LjM2IiBzdHlsZT0ic3Ryb2tlOiMxODE4MTg7c3Ryb2tlLXdpZHRoOjEuMDsiLz48L2c+PCEtLWxpbmsgQ29sbGVnZSB0byBDb2xsZWdlIExvZ2luLS0+PGcgaWQ9ImxpbmtfQ29sbGVnZV9Db2xsZWdlIExvZ2luIj48cGF0aCBkPSJNMjk0LjIyLDQ0LjYyIEMyODQuNjksMzIuODYgMjcyLjU5LDIxLjMyIDI1OC41LDE0Ljk2IEMyMzguNjUsNiAyMzAuMzUsOC42NiAyMDkuNSwxNC45NiBDMTc1LjY3LDI1LjE4IDE0Ny4yNzgsNDYuODE5MiAxMjguNTA4LDYzLjM4OTIgIiBmaWxsPSJub25lIiBpZD0iQ29sbGVnZS10by1Db2xsZWdlIExvZ2luIiBzdHlsZT0ic3Ryb2tlOiMxODE4MTg7c3Ryb2tlLXdpZHRoOjEuMDsiLz48cG9seWdvbiBmaWxsPSIjMTgxODE4IiBwb2ludHM9IjEyNC4wMSw2Ny4zNiwxMzMuNDA0Myw2NC40MDI0LDEyNy43NTg0LDY0LjA1MSwxMjguMTA5OCw1OC40MDUsMTI0LjAxLDY3LjM2IiBzdHlsZT0ic3Ryb2tlOiMxODE4MTg7c3Ryb2tlLXdpZHRoOjEuMDsiLz48L2c+PCEtLWxpbmsgQWRtaW4gdG8gQWRtaW4gTG9naW4tLT48ZyBpZD0ibGlua19BZG1pbl9BZG1pbiBMb2dpbiI+PHBhdGggZD0iTTc4Ni40Miw4Mi40NiBDNzk3Ljk5LDgyLjQ2IDgwMy41Niw4Mi40NiA4MTUuMTMsODIuNDYgIiBmaWxsPSJub25lIiBpZD0iQWRtaW4tdG8tQWRtaW4gTG9naW4iIHN0eWxlPSJzdHJva2U6IzE4MTgxODtzdHJva2Utd2lkdGg6MS4wOyIvPjxwb2x5Z29uIGZpbGw9IiMxODE4MTgiIHBvaW50cz0iODIxLjEzLDgyLjQ2LDgxMi4xMyw3OC40Niw4MTYuMTMsODIuNDYsODEyLjEzLDg2LjQ2LDgyMS4xMyw4Mi40NiIgc3R5bGU9InN0cm9rZTojMTgxODE4O3N0cm9rZS13aWR0aDoxLjA7Ii8+PC9nPjwhLS1saW5rIEd1ZXN0IHRvIEd1ZXN0IEFjY2Vzcy0tPjxnIGlkPSJsaW5rX0d1ZXN0X0d1ZXN0IEFjY2VzcyI+PHBhdGggZD0iTTU4OS44MiwyMTcuNDYgQzYwMS40NSwyMTcuNDYgNjA3LjA3LDIxNy40NiA2MTguNjksMjE3LjQ2ICIgZmlsbD0ibm9uZSIgaWQ9Ikd1ZXN0LXRvLUd1ZXN0IEFjY2VzcyIgc3R5bGU9InN0cm9rZTojMTgxODE4O3N0cm9rZS13aWR0aDoxLjA7Ii8+PHBvbHlnb24gZmlsbD0iIzE4MTgxOCIgcG9pbnRzPSI2MjQuNjksMjE3LjQ2LDYxNS42OSwyMTMuNDYsNjE5LjY5LDIxNy40Niw2MTUuNjksMjIxLjQ2LDYyNC42OSwyMTcuNDYiIHN0eWxlPSJzdHJva2U6IzE4MTgxODtzdHJva2Utd2lkdGg6MS4wOyIvPjwvZz48IS0tbGluayBTdHVkZW50IExvZ2luIHRvIEFjY2VzcyBTdHVkZW50IERhc2hib2FyZC0tPjxnIGlkPSJsaW5rX1N0dWRlbnQgTG9naW5fQWNjZXNzIFN0dWRlbnQgRGFzaGJvYXJkIj48cGF0aCBkPSJNNDQxLjIzLDk4LjIgQzQzNi44MywxMjEuNiA0MjkuMzM4NywxNjEuNDgzMyA0MjQuMjE4NywxODguNzEzMyAiIGZpbGw9Im5vbmUiIGlkPSJTdHVkZW50IExvZ2luLXRvLUFjY2VzcyBTdHVkZW50IERhc2hib2FyZCIgc3R5bGU9InN0cm9rZTojMTgxODE4O3N0cm9rZS13aWR0aDoxLjA7Ii8+PHBvbHlnb24gZmlsbD0iIzE4MTgxOCIgcG9pbnRzPSI0MjMuMTEsMTk0LjYxLDQyOC43MDQyLDE4Ni41MDQyLDQyNC4wMzM5LDE4OS42OTYxLDQyMC44NDIsMTg1LjAyNTgsNDIzLjExLDE5NC42MSIgc3R5bGU9InN0cm9rZTojMTgxODE4O3N0cm9rZS13aWR0aDoxLjA7Ii8+PC9nPjwhLS1saW5rIENvbGxlZ2UgTG9naW4gdG8gQWNjZXNzIENvbGxlZ2UgRGFzaGJvYXJkLS0+PGcgaWQ9ImxpbmtfQ29sbGVnZSBMb2dpbl9BY2Nlc3MgQ29sbGVnZSBEYXNoYm9hcmQiPjxwYXRoIGQ9Ik0xMTMuNDUsOTcuOTUgQzEyMi4yNSwxMjEuMzggMTM3LjU1NzIsMTYyLjA5NDMgMTQ3LjgxNzIsMTg5LjM2NDMgIiBmaWxsPSJub25lIiBpZD0iQ29sbGVnZSBMb2dpbi10by1BY2Nlc3MgQ29sbGVnZSBEYXNoYm9hcmQiIHN0eWxlPSJzdHJva2U6IzE4MTgxODtzdHJva2Utd2lkdGg6MS4wOyIvPjxwb2x5Z29uIGZpbGw9IiMxODE4MTgiIHBvaW50cz0iMTQ5LjkzLDE5NC45OCwxNTAuNTA0NSwxODUuMTQ3OSwxNDguMTY5MywxOTAuMzAwMywxNDMuMDE3LDE4Ny45NjUsMTQ5LjkzLDE5NC45OCIgc3R5bGU9InN0cm9rZTojMTgxODE4O3N0cm9rZS13aWR0aDoxLjA7Ii8+PC9nPjwhLS1saW5rIEFkbWluIExvZ2luIHRvIEFjY2VzcyBBZG1pbiBEYXNoYm9hcmQtLT48ZyBpZD0ibGlua19BZG1pbiBMb2dpbl9BY2Nlc3MgQWRtaW4gRGFzaGJvYXJkIj48cGF0aCBkPSJNODgzLDk3LjE5IEM4ODMsMTIwLjU1IDg4MywxNjIuMTcgODgzLDE4OS42NCAiIGZpbGw9Im5vbmUiIGlkPSJBZG1pbiBMb2dpbi10by1BY2Nlc3MgQWRtaW4gRGFzaGJvYXJkIiBzdHlsZT0ic3Ryb2tlOiMxODE4MTg7c3Ryb2tlLXdpZHRoOjEuMDsiLz48cG9seWdvbiBmaWxsPSIjMTgxODE4IiBwb2ludHM9Ijg4MywxOTUuNjQsODg3LDE4Ni42NCw4ODMsMTkwLjY0LDg3OSwxODYuNjQsODgzLDE5NS42NCIgc3R5bGU9InN0cm9rZTojMTgxODE4O3N0cm9rZS13aWR0aDoxLjA7Ii8+PC9nPjwhLS1saW5rIEFjY2VzcyBTdHVkZW50IERhc2hib2FyZCB0byBWaWV3IEV2ZW50cy0tPjxnIGlkPSJsaW5rX0FjY2VzcyBTdHVkZW50IERhc2hib2FyZF9WaWV3IEV2ZW50cyI+PHBhdGggZD0iTTQ2Mi42OCwyMzcuNzkgQzUxOC45NSwyNjIuNyA2MDkuNTczNCwzMDIuODAxNyA2NTYuMzQzNCwzMjMuNTAxNyAiIGZpbGw9Im5vbmUiIGlkPSJBY2Nlc3MgU3R1ZGVudCBEYXNoYm9hcmQtdG8tVmlldyBFdmVudHMiIHN0eWxlPSJzdHJva2U6IzE4MTgxODtzdHJva2Utd2lkdGg6MS4wOyIvPjxwb2x5Z29uIGZpbGw9IiMxODE4MTgiIHBvaW50cz0iNjYxLjgzLDMyNS45Myw2NTUuMjE4OSwzMTguNjI5Nyw2NTcuMjU3OCwzMjMuOTA2NCw2NTEuOTgxMiwzMjUuOTQ1Myw2NjEuODMsMzI1LjkzIiBzdHlsZT0ic3Ryb2tlOiMxODE4MTg7c3Ryb2tlLXdpZHRoOjEuMDsiLz48L2c+PCEtLWxpbmsgQWNjZXNzIFN0dWRlbnQgRGFzaGJvYXJkIHRvIFNlYXJjaCBFdmVudHMtLT48ZyBpZD0ibGlua19BY2Nlc3MgU3R1ZGVudCBEYXNoYm9hcmRfU2VhcmNoIEV2ZW50cyI+PHBhdGggZD0iTTQzOC4xMywyMzkuODIgQzQ1OS43NywyNjMuOTkgNDkwLjQxNzUsMjk4LjIyMDEgNTA5LjA4NzUsMzE5LjA3MDEgIiBmaWxsPSJub25lIiBpZD0iQWNjZXNzIFN0dWRlbnQgRGFzaGJvYXJkLXRvLVNlYXJjaCBFdmVudHMiIHN0eWxlPSJzdHJva2U6IzE4MTgxODtzdHJva2Utd2lkdGg6MS4wOyIvPjxwb2x5Z29uIGZpbGw9IiMxODE4MTgiIHBvaW50cz0iNTEzLjA5LDMyMy41NCw1MTAuMDY2MSwzMTQuMTY2OCw1MDkuNzU0NiwzMTkuODE1MSw1MDQuMTA2MywzMTkuNTAzNSw1MTMuMDksMzIzLjU0IiBzdHlsZT0ic3Ryb2tlOiMxODE4MTg7c3Ryb2tlLXdpZHRoOjEuMDsiLz48L2c+PCEtLWxpbmsgQWNjZXNzIFN0dWRlbnQgRGFzaGJvYXJkIHRvIFJlZ2lzdGVyIGZvciBFdmVudHMtLT48ZyBpZD0ibGlua19BY2Nlc3MgU3R1ZGVudCBEYXNoYm9hcmRfUmVnaXN0ZXIgZm9yIEV2ZW50cyI+PHBhdGggZD0iTTQwNC44OCwyMzkuODIgQzM4OS44OCwyNjIuNTIgMzY5LjcxOTksMjkzLjAxNTYgMzU1LjQ5OTksMzE0LjUxNTYgIiBmaWxsPSJub25lIiBpZD0iQWNjZXNzIFN0dWRlbnQgRGFzaGJvYXJkLXRvLVJlZ2lzdGVyIGZvciBFdmVudHMiIHN0eWxlPSJzdHJva2U6IzE4MTgxODtzdHJva2Utd2lkdGg6MS4wOyIvPjxwb2x5Z29uIGZpbGw9IiMxODE4MTgiIHBvaW50cz0iMzUyLjE5LDMxOS41MiwzNjAuNDkxMiwzMTQuMjE5OSwzNTQuOTQ4MywzMTUuMzQ5NiwzNTMuODE4NiwzMDkuODA2NywzNTIuMTksMzE5LjUyIiBzdHlsZT0ic3Ryb2tlOiMxODE4MTg7c3Ryb2tlLXdpZHRoOjEuMDsiLz48L2c+PCEtLWxpbmsgQWNjZXNzIENvbGxlZ2UgRGFzaGJvYXJkIHRvIFZpZXcgRXZlbnRzLS0+PGcgaWQ9ImxpbmtfQWNjZXNzIENvbGxlZ2UgRGFzaGJvYXJkX1ZpZXcgRXZlbnRzIj48cGF0aCBkPSJNMjIwLjQ2LDIzNS4yNCBDMjQ1LjQzLDI0MS43MyAyNzQuNSwyNDkuMDEgMzAxLDI1NC45NiBDNDM3LjUsMjg1LjYxIDQ3NC4wMywyODIuMDQgNjEwLDMxNC45NiBDNjI0LjQ0LDMxOC40NiA2MzQuNDI5MiwzMjEuMTk4NyA2NDguMDM5MiwzMjUuMjQ4NyAiIGZpbGw9Im5vbmUiIGlkPSJBY2Nlc3MgQ29sbGVnZSBEYXNoYm9hcmQtdG8tVmlldyBFdmVudHMiIHN0eWxlPSJzdHJva2U6IzE4MTgxODtzdHJva2Utd2lkdGg6MS4wOyIvPjxwb2x5Z29uIGZpbGw9IiMxODE4MTgiIHBvaW50cz0iNjUzLjc5LDMyNi45Niw2NDYuMzA0NywzMjAuNTU5Miw2NDguOTk3NywzMjUuNTMzOSw2NDQuMDIzLDMyOC4yMjY5LDY1My43OSwzMjYuOTYiIHN0eWxlPSJzdHJva2U6IzE4MTgxODtzdHJva2Utd2lkdGg6MS4wOyIvPjwvZz48IS0tbGluayBBY2Nlc3MgQ29sbGVnZSBEYXNoYm9hcmQgdG8gU2VhcmNoIEV2ZW50cy0tPjxnIGlkPSJsaW5rX0FjY2VzcyBDb2xsZWdlIERhc2hib2FyZF9TZWFyY2ggRXZlbnRzIj48cGF0aCBkPSJNMjEzLjA5LDIzNi4zNSBDMjg5LjE5LDI2MS4wNiA0MTguNjgzNCwzMDMuMTA2OCA0ODMuNTYzNCwzMjQuMTc2OCAiIGZpbGw9Im5vbmUiIGlkPSJBY2Nlc3MgQ29sbGVnZSBEYXNoYm9hcmQtdG8tU2VhcmNoIEV2ZW50cyIgc3R5bGU9InN0cm9rZTojMTgxODE4O3N0cm9rZS13aWR0aDoxLjA7Ii8+PHBvbHlnb24gZmlsbD0iIzE4MTgxOCIgcG9pbnRzPSI0ODkuMjcsMzI2LjAzLDQ4MS45NDU2LDMxOS40NDU3LDQ4NC41MTQ1LDMyNC40ODU2LDQ3OS40NzQ2LDMyNy4wNTQ1LDQ4OS4yNywzMjYuMDMiIHN0eWxlPSJzdHJva2U6IzE4MTgxODtzdHJva2Utd2lkdGg6MS4wOyIvPjwvZz48IS0tbGluayBBY2Nlc3MgQ29sbGVnZSBEYXNoYm9hcmQgdG8gUmVxdWVzdCBFdmVudCBSZWdpc3RyYXRpb24tLT48ZyBpZD0ibGlua19BY2Nlc3MgQ29sbGVnZSBEYXNoYm9hcmRfUmVxdWVzdCBFdmVudCBSZWdpc3RyYXRpb24iPjxwYXRoIGQ9Ik0xNDkuODUsMjQwLjEgQzE0MS45LDI2MS4yMiAxMzEuOTU1LDI4Ny42MjUxIDEyMy44MTUsMzA5LjIzNTEgIiBmaWxsPSJub25lIiBpZD0iQWNjZXNzIENvbGxlZ2UgRGFzaGJvYXJkLXRvLVJlcXVlc3QgRXZlbnQgUmVnaXN0cmF0aW9uIiBzdHlsZT0ic3Ryb2tlOiMxODE4MTg7c3Ryb2tlLXdpZHRoOjEuMDsiLz48cG9seWdvbiBmaWxsPSIjMTgxODE4IiBwb2ludHM9IjEyMS43LDMxNC44NSwxMjguNjE1NywzMDcuODM3NywxMjMuNDYyNSwzMTAuMTcwOSwxMjEuMTI5MiwzMDUuMDE3NywxMjEuNywzMTQuODUiIHN0eWxlPSJzdHJva2U6IzE4MTgxODtzdHJva2Utd2lkdGg6MS4wOyIvPjwvZz48IS0tbGluayBBY2Nlc3MgQWRtaW4gRGFzaGJvYXJkIHRvIFZpZXcgRXZlbnRzLS0+PGcgaWQ9ImxpbmtfQWNjZXNzIEFkbWluIERhc2hib2FyZF9WaWV3IEV2ZW50cyI+PHBhdGggZD0iTTg1MS40LDIzNy45MyBDODExLjQ2LDI2Mi41MyA3NDguOTM4OCwzMDEuMDQzNiA3MTQuOTM4OCwzMjEuOTgzNiAiIGZpbGw9Im5vbmUiIGlkPSJBY2Nlc3MgQWRtaW4gRGFzaGJvYXJkLXRvLVZpZXcgRXZlbnRzIiBzdHlsZT0ic3Ryb2tlOiMxODE4MTg7c3Ryb2tlLXdpZHRoOjEuMDsiLz48cG9seWdvbiBmaWxsPSIjMTgxODE4IiBwb2ludHM9IjcwOS44MywzMjUuMTMsNzE5LjU5MDgsMzIzLjgxNjIsNzE0LjA4NzMsMzIyLjUwOCw3MTUuMzk1NiwzMTcuMDA0NSw3MDkuODMsMzI1LjEzIiBzdHlsZT0ic3Ryb2tlOiMxODE4MTg7c3Ryb2tlLXdpZHRoOjEuMDsiLz48L2c+PCEtLWxpbmsgQWNjZXNzIEFkbWluIERhc2hib2FyZCB0byBTZWFyY2ggRXZlbnRzLS0+PGcgaWQ9ImxpbmtfQWNjZXNzIEFkbWluIERhc2hib2FyZF9TZWFyY2ggRXZlbnRzIj48cGF0aCBkPSJNODMxLjg1LDIzNS41OCBDNzU4LjY4LDI2MC4wNyA2MzEuNjM5NiwzMDIuNTk1MSA1NjcuODM5NiwzMjMuOTU1MSAiIGZpbGw9Im5vbmUiIGlkPSJBY2Nlc3MgQWRtaW4gRGFzaGJvYXJkLXRvLVNlYXJjaCBFdmVudHMiIHN0eWxlPSJzdHJva2U6IzE4MTgxODtzdHJva2Utd2lkdGg6MS4wOyIvPjxwb2x5Z29uIGZpbGw9IiMxODE4MTgiIHBvaW50cz0iNTYyLjE1LDMyNS44Niw1NzEuOTU0MywzMjYuNzk1OCw1NjYuODkxMywzMjQuMjcyNiw1NjkuNDE0NSwzMTkuMjA5Nyw1NjIuMTUsMzI1Ljg2IiBzdHlsZT0ic3Ryb2tlOiMxODE4MTg7c3Ryb2tlLXdpZHRoOjEuMDsiLz48L2c+PCEtLWxpbmsgQWNjZXNzIEFkbWluIERhc2hib2FyZCB0byBBcHByb3ZlIG9yIERlY2xpbmUgUmVxdWVzdC0tPjxnIGlkPSJsaW5rX0FjY2VzcyBBZG1pbiBEYXNoYm9hcmRfQXBwcm92ZSBvciBEZWNsaW5lIFJlcXVlc3QiPjxwYXRoIGQ9Ik04ODQuNzIsMjM5IEM4ODYuNDgsMjYwLjA5IDg4OC43MTk3LDI4Ni44NjA5IDg5MC41NTk3LDMwOC44NTA5ICIgZmlsbD0ibm9uZSIgaWQ9IkFjY2VzcyBBZG1pbiBEYXNoYm9hcmQtdG8tQXBwcm92ZSBvciBEZWNsaW5lIFJlcXVlc3QiIHN0eWxlPSJzdHJva2U6IzE4MTgxODtzdHJva2Utd2lkdGg6MS4wOyIvPjxwb2x5Z29uIGZpbGw9IiMxODE4MTgiIHBvaW50cz0iODkxLjA2LDMxNC44Myw4OTQuMjk1NiwzMDUuNTI3OCw4OTAuNjQzMSwzMDkuODQ3NCw4ODYuMzIzNSwzMDYuMTk0OSw4OTEuMDYsMzE0LjgzIiBzdHlsZT0ic3Ryb2tlOiMxODE4MTg7c3Ryb2tlLXdpZHRoOjEuMDsiLz48L2c+PCEtLWxpbmsgR3Vlc3QgQWNjZXNzIHRvIFZpZXcgRXZlbnRzLS0+PGcgaWQ9ImxpbmtfR3Vlc3QgQWNjZXNzX1ZpZXcgRXZlbnRzIj48cGF0aCBkPSJNNjg5LDIzMi42NCBDNjg5LDI1NS43NiA2ODksMjk1LjMgNjg5LDMxOC4xNyAiIGZpbGw9Im5vbmUiIGlkPSJHdWVzdCBBY2Nlc3MtdG8tVmlldyBFdmVudHMiIHN0eWxlPSJzdHJva2U6IzE4MTgxODtzdHJva2Utd2lkdGg6MS4wOyIvPjxwb2x5Z29uIGZpbGw9IiMxODE4MTgiIHBvaW50cz0iNjg5LDMyNC4xNyw2OTMsMzE1LjE3LDY4OSwzMTkuMTcsNjg1LDMxNS4xNyw2ODksMzI0LjE3IiBzdHlsZT0ic3Ryb2tlOiMxODE4MTg7c3Ryb2tlLXdpZHRoOjEuMDsiLz48L2c+PCEtLWxpbmsgR3Vlc3QgQWNjZXNzIHRvIFNlYXJjaCBFdmVudHMtLT48ZyBpZD0ibGlua19HdWVzdCBBY2Nlc3NfU2VhcmNoIEV2ZW50cyI+PHBhdGggZD0iTTY3MC42MiwyMzEuOTQgQzYzOS40OCwyNTQuNzYgNTgxLjUwODcsMjk3LjI2MjEgNTQ5LjkwODcsMzIwLjQzMjEgIiBmaWxsPSJub25lIiBpZD0iR3Vlc3QgQWNjZXNzLXRvLVNlYXJjaCBFdmVudHMiIHN0eWxlPSJzdHJva2U6IzE4MTgxODtzdHJva2Utd2lkdGg6MS4wOyIvPjxwb2x5Z29uIGZpbGw9IiMxODE4MTgiIHBvaW50cz0iNTQ1LjA3LDMyMy45OCw1NTQuNjkzMiwzMjEuODg0LDU0OS4xMDIyLDMyMS4wMjM1LDU0OS45NjI4LDMxNS40MzI0LDU0NS4wNywzMjMuOTgiIHN0eWxlPSJzdHJva2U6IzE4MTgxODtzdHJva2Utd2lkdGg6MS4wOyIvPjwvZz48IS0tbGluayBWaWV3IEV2ZW50cyB0byBFdmVudHMtLT48ZyBpZD0ibGlua19WaWV3IEV2ZW50c19FdmVudHMiPjxwYXRoIGQ9Ik02NjkuNjYsMzUyLjgzIEM2NDIuMjUsMzcxLjA4IDU5Ni43NTQ2LDQwMS4zNjUzIDU2My41MjQ2LDQyMy40ODUzICIgZmlsbD0ibm9uZSIgaWQ9IlZpZXcgRXZlbnRzLXRvLUV2ZW50cyIgc3R5bGU9InN0cm9rZTojMTgxODE4O3N0cm9rZS13aWR0aDoxLjA7Ii8+PHBvbHlnb24gZmlsbD0iIzE4MTgxOCIgcG9pbnRzPSI1NTguNTMsNDI2LjgxLDU2OC4yMzg0LDQyNS4xNTI2LDU2Mi42OTIyLDQyNC4wMzk0LDU2My44MDU0LDQxOC40OTMyLDU1OC41Myw0MjYuODEiIHN0eWxlPSJzdHJva2U6IzE4MTgxODtzdHJva2Utd2lkdGg6MS4wOyIvPjwvZz48IS0tbGluayBTZWFyY2ggRXZlbnRzIHRvIEV2ZW50cy0tPjxnIGlkPSJsaW5rX1NlYXJjaCBFdmVudHNfRXZlbnRzIj48cGF0aCBkPSJNNTI2LDM1NC41OSBDNTI2LDM3My4xIDUyNiwzOTkuMTQgNTI2LDQyMC41NyAiIGZpbGw9Im5vbmUiIGlkPSJTZWFyY2ggRXZlbnRzLXRvLUV2ZW50cyIgc3R5bGU9InN0cm9rZTojMTgxODE4O3N0cm9rZS13aWR0aDoxLjA7Ii8+PHBvbHlnb24gZmlsbD0iIzE4MTgxOCIgcG9pbnRzPSI1MjYsNDI2LjU3LDUzMCw0MTcuNTcsNTI2LDQyMS41Nyw1MjIsNDE3LjU3LDUyNiw0MjYuNTciIHN0eWxlPSJzdHJva2U6IzE4MTgxODtzdHJva2Utd2lkdGg6MS4wOyIvPjwvZz48IS0tbGluayBSZWdpc3RlciBmb3IgRXZlbnRzIHRvIEV2ZW50cy0tPjxnIGlkPSJsaW5rX1JlZ2lzdGVyIGZvciBFdmVudHNfRXZlbnRzIj48cGF0aCBkPSJNMzY5Ljg4LDM1Ny4zOSBDNDAyLjIzLDM3Ni4yNiA0NDguNjg3NSw0MDMuMzU2NSA0ODMuNjM3NSw0MjMuNzQ2NSAiIGZpbGw9Im5vbmUiIGlkPSJSZWdpc3RlciBmb3IgRXZlbnRzLXRvLUV2ZW50cyIgc3R5bGU9InN0cm9rZTojMTgxODE4O3N0cm9rZS13aWR0aDoxLjA7Ii8+PHBvbHlnb24gZmlsbD0iIzE4MTgxOCIgcG9pbnRzPSI0ODguODIsNDI2Ljc3LDQ4My4wNjE5LDQxOC43Nzk3LDQ4NC41MDEyLDQyNC4yNTA0LDQ3OS4wMzA2LDQyNS42ODk4LDQ4OC44Miw0MjYuNzciIHN0eWxlPSJzdHJva2U6IzE4MTgxODtzdHJva2Utd2lkdGg6MS4wOyIvPjwvZz48IS0tbGluayBSZXF1ZXN0IEV2ZW50IFJlZ2lzdHJhdGlvbiB0byBFdmVudHMtLT48ZyBpZD0ibGlua19SZXF1ZXN0IEV2ZW50IFJlZ2lzdHJhdGlvbl9FdmVudHMiPjxwYXRoIGQ9Ik0xODAuMjcsMzU3LjYzIEMyNjYuNTYsMzgwLjMgNDA3Ljc0NjgsNDE3LjM5NTcgNDc5LjAxNjgsNDM2LjExNTcgIiBmaWxsPSJub25lIiBpZD0iUmVxdWVzdCBFdmVudCBSZWdpc3RyYXRpb24tdG8tRXZlbnRzIiBzdHlsZT0ic3Ryb2tlOiMxODE4MTg7c3Ryb2tlLXdpZHRoOjEuMDsiLz48cG9seWdvbiBmaWxsPSIjMTgxODE4IiBwb2ludHM9IjQ4NC44Miw0MzcuNjQsNDc3LjEzMTUsNDMxLjQ4NDgsNDc5Ljk4NCw0MzYuMzY5OCw0NzUuMDk5MSw0MzkuMjIyNCw0ODQuODIsNDM3LjY0IiBzdHlsZT0ic3Ryb2tlOiMxODE4MTg7c3Ryb2tlLXdpZHRoOjEuMDsiLz48L2c+PCEtLWxpbmsgQXBwcm92ZSBvciBEZWNsaW5lIFJlcXVlc3QgdG8gRXZlbnRzLS0+PGcgaWQ9ImxpbmtfQXBwcm92ZSBvciBEZWNsaW5lIFJlcXVlc3RfRXZlbnRzIj48cGF0aCBkPSJNODMwLjMzLDM1OC40OSBDNzU1LjA5LDM4MC43MyA2MzYuODIzOSw0MTUuNjk5MyA1NzIuODEzOSw0MzQuNjE5MyAiIGZpbGw9Im5vbmUiIGlkPSJBcHByb3ZlIG9yIERlY2xpbmUgUmVxdWVzdC10by1FdmVudHMiIHN0eWxlPSJzdHJva2U6IzE4MTgxODtzdHJva2Utd2lkdGg6MS4wOyIvPjxwb2x5Z29uIGZpbGw9IiMxODE4MTgiIHBvaW50cz0iNTY3LjA2LDQzNi4zMiw1NzYuODI0Nyw0MzcuNjA0OCw1NzEuODU0OSw0MzQuOTAyNyw1NzQuNTU3LDQyOS45MzMsNTY3LjA2LDQzNi4zMiIgc3R5bGU9InN0cm9rZTojMTgxODE4O3N0cm9rZS13aWR0aDoxLjA7Ii8+PC9nPjwhLS1TUkM9W1pQQV9KV0NuM0NQdEZ1TkxnSlZxNVAxRUJNOVhRWUtNbjkzY3AzTklhUkg5TVdSNGtuRm8xcnIyU2gzUC1Od0VGcGpYdDJnRDF0aVRJNWZXRmprZ1FRQUhPak9GUnFCNi1FNUFuVzhDcEI4WkN1SWgtdmlobXZ0QkxfVzFZQ18tbUJwMDlxMnk1M1R0azR4bmVuZzV4MjFzeTVBQWUtSlJVSTU0eVRYdHppU1h3WmFkT3BnMHVjaFMtNUFsZmg2U0Z0Q3dBZ1E3M2VmczZQd2FFSnV0YVM1MWNBN0d4WGVBZG1Jek96WEZ6b1R5OEFSdndUX3VkYVBYQjZieVRRLUtZZzB6czhBWjVqbm1yQ0J0VEY0RjVOdjh5QVVQNUtoRVo5TEJOQjFMSG5rY3dkMV9GY2pyOHRHaHNYNlZYMklDQmh5alBWLWdQZ0cyNUVxWGdtWjhKdGRFNWNCal9OdVhwT0tNdkNBUzZWYTVdLS0+PC9nPjwvc3ZnPg==;" vertex="1" parent="1">
            <mxGeometry x="-40" y="-1150" width="1005" height="504" as="geometry" />
          </mxCell>
        </UserObject>
      </root>
    </mxGraphModel>
  </diagram>
</mxfile>
